G04*
G04 #@! TF.GenerationSoftware,Altium Limited,Altium Designer,25.7.1 (20)*
G04*
G04 Layer_Physical_Order=1*
G04 Layer_Color=255*
%FSLAX44Y44*%
%MOMM*%
G71*
G04*
G04 #@! TF.SameCoordinates,711889C3-5294-40D1-B7F6-5CF0684BB26A*
G04*
G04*
G04 #@! TF.FilePolarity,Positive*
G04*
G01*
G75*
%ADD17R,1.0000X0.8000*%
%ADD18O,2.1000X0.3000*%
%ADD19R,0.8000X1.0000*%
%ADD20O,0.3000X2.1000*%
%ADD21R,2.2000X3.3000*%
G04:AMPARAMS|DCode=22|XSize=0.76mm|YSize=0.6604mm|CornerRadius=0.0825mm|HoleSize=0mm|Usage=FLASHONLY|Rotation=0.000|XOffset=0mm|YOffset=0mm|HoleType=Round|Shape=RoundedRectangle|*
%AMROUNDEDRECTD22*
21,1,0.7600,0.4953,0,0,0.0*
21,1,0.5949,0.6604,0,0,0.0*
1,1,0.1651,0.2975,-0.2477*
1,1,0.1651,-0.2975,-0.2477*
1,1,0.1651,-0.2975,0.2477*
1,1,0.1651,0.2975,0.2477*
%
%ADD22ROUNDEDRECTD22*%
%ADD23R,2.2000X1.0000*%
G04:AMPARAMS|DCode=24|XSize=0.55mm|YSize=0.5mm|CornerRadius=0.0625mm|HoleSize=0mm|Usage=FLASHONLY|Rotation=270.000|XOffset=0mm|YOffset=0mm|HoleType=Round|Shape=RoundedRectangle|*
%AMROUNDEDRECTD24*
21,1,0.5500,0.3750,0,0,270.0*
21,1,0.4250,0.5000,0,0,270.0*
1,1,0.1250,-0.1875,-0.2125*
1,1,0.1250,-0.1875,0.2125*
1,1,0.1250,0.1875,0.2125*
1,1,0.1250,0.1875,-0.2125*
%
%ADD24ROUNDEDRECTD24*%
%ADD25R,1.1000X1.3000*%
%ADD26R,0.6000X0.4000*%
%ADD37R,1.3900X1.3900*%
%ADD38C,1.3900*%
%ADD41R,1.3000X1.3000*%
%ADD42C,1.3000*%
%ADD43C,1.5400*%
%ADD45R,1.5400X1.5400*%
%ADD50C,0.2997*%
%ADD51C,0.7366*%
%ADD52C,0.8128*%
%ADD53C,0.4826*%
%ADD54C,1.6000*%
G04:AMPARAMS|DCode=55|XSize=1.6mm|YSize=1.6mm|CornerRadius=0.4mm|HoleSize=0mm|Usage=FLASHONLY|Rotation=180.000|XOffset=0mm|YOffset=0mm|HoleType=Round|Shape=RoundedRectangle|*
%AMROUNDEDRECTD55*
21,1,1.6000,0.8000,0,0,180.0*
21,1,0.8000,1.6000,0,0,180.0*
1,1,0.8000,-0.4000,0.4000*
1,1,0.8000,0.4000,0.4000*
1,1,0.8000,0.4000,-0.4000*
1,1,0.8000,-0.4000,-0.4000*
%
%ADD55ROUNDEDRECTD55*%
%ADD56C,0.8600*%
%ADD57C,1.4000*%
%ADD58R,1.4000X1.4000*%
%ADD59R,1.4000X1.4000*%
%ADD60C,0.5080*%
G36*
X610252Y574157D02*
X610253Y188307D01*
X607713Y186038D01*
X161964D01*
X160993Y188384D01*
X188869Y216261D01*
X189537Y217261D01*
X189772Y218440D01*
Y242388D01*
X210784Y263400D01*
X213131Y262428D01*
Y251784D01*
X211916D01*
Y240736D01*
X220307D01*
X221355Y238357D01*
X220111Y236784D01*
X211916D01*
Y225736D01*
X213131D01*
Y206061D01*
X212361Y205469D01*
X210994Y203689D01*
X210135Y201615D01*
X209842Y199390D01*
X210135Y197165D01*
X210994Y195091D01*
X212361Y193311D01*
X214141Y191944D01*
X216215Y191085D01*
X218440Y190793D01*
X220665Y191085D01*
X222739Y191944D01*
X224519Y193311D01*
X225886Y195091D01*
X226745Y197165D01*
X227038Y199390D01*
X226745Y201615D01*
X225886Y203689D01*
X224519Y205469D01*
X223749Y206061D01*
Y225736D01*
X224964D01*
Y232426D01*
X228874Y236336D01*
X229542Y237336D01*
X229777Y238515D01*
Y241929D01*
X234969Y247121D01*
X237316Y246149D01*
Y240736D01*
X246280D01*
X247263Y238455D01*
X245898Y236784D01*
X237316D01*
Y225736D01*
X238531D01*
Y206061D01*
X237761Y205469D01*
X236394Y203689D01*
X235535Y201615D01*
X235243Y199390D01*
X235535Y197165D01*
X236394Y195091D01*
X237761Y193311D01*
X239541Y191944D01*
X241615Y191085D01*
X243840Y190793D01*
X246065Y191085D01*
X248139Y191944D01*
X249919Y193311D01*
X251286Y195091D01*
X252145Y197165D01*
X252437Y199390D01*
X252145Y201615D01*
X251286Y203689D01*
X249919Y205469D01*
X249149Y206061D01*
Y225736D01*
X250364D01*
Y232426D01*
X256179Y238241D01*
X256847Y239241D01*
X257082Y240420D01*
Y242563D01*
X260369Y245851D01*
X262716Y244879D01*
Y240736D01*
X271107D01*
X272155Y238357D01*
X270911Y236784D01*
X262716D01*
Y225736D01*
X263931D01*
Y206061D01*
X263161Y205469D01*
X261794Y203689D01*
X260935Y201615D01*
X260643Y199390D01*
X260935Y197165D01*
X261794Y195091D01*
X263161Y193311D01*
X264941Y191944D01*
X267015Y191085D01*
X269240Y190793D01*
X271465Y191085D01*
X273539Y191944D01*
X275319Y193311D01*
X276686Y195091D01*
X277545Y197165D01*
X277838Y199390D01*
X277545Y201615D01*
X276686Y203689D01*
X275319Y205469D01*
X274549Y206061D01*
Y225736D01*
X275764D01*
Y232426D01*
X280309Y236971D01*
X280977Y237971D01*
X281212Y239150D01*
Y242563D01*
X285769Y247121D01*
X288116Y246149D01*
Y240736D01*
X296507D01*
X297555Y238357D01*
X296311Y236784D01*
X288116D01*
Y225736D01*
X289331D01*
Y206061D01*
X288561Y205469D01*
X287194Y203689D01*
X286335Y201615D01*
X286042Y199390D01*
X286335Y197165D01*
X287194Y195091D01*
X288561Y193311D01*
X290341Y191944D01*
X292415Y191085D01*
X294640Y190793D01*
X296865Y191085D01*
X298939Y191944D01*
X300719Y193311D01*
X302086Y195091D01*
X302945Y197165D01*
X303237Y199390D01*
X302945Y201615D01*
X302086Y203689D01*
X300719Y205469D01*
X299949Y206061D01*
Y225736D01*
X301164D01*
Y232426D01*
X305709Y236971D01*
X306377Y237971D01*
X306612Y239150D01*
Y242563D01*
X308221Y244172D01*
X308221Y244172D01*
X311169Y247121D01*
X313516Y246149D01*
Y240736D01*
X321907D01*
X322955Y238357D01*
X321711Y236784D01*
X313516D01*
Y225736D01*
X314731D01*
Y206061D01*
X313961Y205469D01*
X312594Y203689D01*
X311735Y201615D01*
X311443Y199390D01*
X311735Y197165D01*
X312594Y195091D01*
X313961Y193311D01*
X315741Y191944D01*
X317815Y191085D01*
X320040Y190793D01*
X322265Y191085D01*
X324339Y191944D01*
X326119Y193311D01*
X327486Y195091D01*
X328345Y197165D01*
X328638Y199390D01*
X328345Y201615D01*
X327486Y203689D01*
X326119Y205469D01*
X325349Y206061D01*
Y225736D01*
X326564D01*
Y232426D01*
X331109Y236971D01*
X331777Y237971D01*
X332012Y239150D01*
Y243834D01*
X336569Y248391D01*
X338916Y247419D01*
Y240736D01*
X347307D01*
X348355Y238357D01*
X347111Y236784D01*
X338916D01*
Y225736D01*
X340131D01*
Y206061D01*
X339361Y205469D01*
X337994Y203689D01*
X337135Y201615D01*
X336842Y199390D01*
X337135Y197165D01*
X337994Y195091D01*
X339361Y193311D01*
X341141Y191944D01*
X343215Y191085D01*
X345440Y190793D01*
X347665Y191085D01*
X349739Y191944D01*
X351519Y193311D01*
X352886Y195091D01*
X353745Y197165D01*
X354038Y199390D01*
X353745Y201615D01*
X352886Y203689D01*
X351519Y205469D01*
X350749Y206061D01*
Y225736D01*
X351964D01*
Y232426D01*
X356509Y236971D01*
X357177Y237971D01*
X357412Y239150D01*
Y245103D01*
X361776Y249468D01*
X364316Y248416D01*
Y240736D01*
X373280D01*
X374263Y238455D01*
X372898Y236784D01*
X364316D01*
Y225736D01*
X365531D01*
Y206061D01*
X364761Y205469D01*
X363394Y203689D01*
X362535Y201615D01*
X362243Y199390D01*
X362535Y197165D01*
X363394Y195091D01*
X364761Y193311D01*
X366541Y191944D01*
X368615Y191085D01*
X370840Y190793D01*
X373065Y191085D01*
X375139Y191944D01*
X376919Y193311D01*
X378286Y195091D01*
X379145Y197165D01*
X379437Y199390D01*
X379145Y201615D01*
X378286Y203689D01*
X376919Y205469D01*
X376149Y206061D01*
Y225736D01*
X377364D01*
Y232426D01*
X385719Y240781D01*
X386387Y241781D01*
X386622Y242960D01*
Y246948D01*
X387176Y247318D01*
X389716Y245961D01*
Y240736D01*
X397748D01*
X398796Y238357D01*
X397551Y236784D01*
X389716D01*
Y225736D01*
X390931D01*
Y206061D01*
X390161Y205469D01*
X388794Y203689D01*
X387935Y201615D01*
X387643Y199390D01*
X387935Y197165D01*
X388794Y195091D01*
X390161Y193311D01*
X391941Y191944D01*
X394015Y191085D01*
X396240Y190793D01*
X398465Y191085D01*
X400539Y191944D01*
X402319Y193311D01*
X403686Y195091D01*
X404545Y197165D01*
X404837Y199390D01*
X404545Y201615D01*
X403686Y203689D01*
X402319Y205469D01*
X401549Y206061D01*
Y225736D01*
X402764D01*
Y232785D01*
X406442Y236463D01*
X407110Y237463D01*
X407344Y238642D01*
Y245506D01*
X412576Y250738D01*
X413788Y250538D01*
X415116Y249820D01*
Y240736D01*
X424531D01*
X425474Y238196D01*
X424295Y236843D01*
X424141D01*
X423844Y236784D01*
X415116D01*
Y225736D01*
X416331D01*
Y206061D01*
X415561Y205469D01*
X414194Y203689D01*
X413335Y201615D01*
X413042Y199390D01*
X413335Y197165D01*
X414194Y195091D01*
X415561Y193311D01*
X417341Y191944D01*
X419415Y191085D01*
X421640Y190793D01*
X423865Y191085D01*
X425939Y191944D01*
X427719Y193311D01*
X429086Y195091D01*
X429945Y197165D01*
X430238Y199390D01*
X429945Y201615D01*
X429086Y203689D01*
X427719Y205469D01*
X426949Y206061D01*
Y225736D01*
X428164D01*
Y231481D01*
X428315Y231582D01*
X431842Y235109D01*
X432510Y236108D01*
X432744Y237288D01*
Y245116D01*
X437976Y250348D01*
X439188Y250148D01*
X440516Y249430D01*
Y240736D01*
X451619D01*
X452711Y238286D01*
X451582Y236843D01*
X449541D01*
X449244Y236784D01*
X440516D01*
Y225736D01*
X441731D01*
Y207914D01*
X438516D01*
Y190866D01*
X455564D01*
Y207914D01*
X452349D01*
Y225736D01*
X453564D01*
Y230698D01*
X454651Y230914D01*
X455651Y231582D01*
X463008Y238940D01*
X465548Y238001D01*
Y210820D01*
X465783Y209641D01*
X466451Y208641D01*
X479553Y195538D01*
X480553Y194870D01*
X481733Y194636D01*
X556737D01*
X557917Y194870D01*
X558917Y195538D01*
X562594Y199216D01*
X569284D01*
Y200431D01*
X584566D01*
Y197216D01*
X601614D01*
Y214264D01*
X584566D01*
Y211049D01*
X569284D01*
Y212264D01*
X558236D01*
Y204069D01*
X556663Y202825D01*
X554284Y203873D01*
Y212264D01*
X543236D01*
Y211049D01*
X527979D01*
X523670Y215358D01*
X524185Y217262D01*
X524634Y217898D01*
X554600D01*
X555779Y218133D01*
X556779Y218801D01*
X562594Y224616D01*
X569284D01*
Y225831D01*
X586419D01*
X587011Y225061D01*
X588791Y223694D01*
X590865Y222835D01*
X593090Y222542D01*
X595315Y222835D01*
X597389Y223694D01*
X599169Y225061D01*
X600536Y226841D01*
X601395Y228915D01*
X601688Y231140D01*
X601395Y233365D01*
X600536Y235439D01*
X599169Y237219D01*
X597389Y238586D01*
X595315Y239445D01*
X593090Y239737D01*
X590865Y239445D01*
X588791Y238586D01*
X587011Y237219D01*
X586419Y236449D01*
X569284D01*
Y237664D01*
X558236D01*
Y229082D01*
X556565Y227717D01*
X554284Y228700D01*
Y237664D01*
X553834D01*
X552782Y240204D01*
X562594Y250016D01*
X569284D01*
Y251231D01*
X586419D01*
X587011Y250461D01*
X588791Y249094D01*
X590865Y248235D01*
X593090Y247943D01*
X595315Y248235D01*
X597389Y249094D01*
X599169Y250461D01*
X600536Y252241D01*
X601395Y254315D01*
X601688Y256540D01*
X601395Y258765D01*
X600536Y260839D01*
X599169Y262619D01*
X597389Y263986D01*
X595315Y264845D01*
X593090Y265138D01*
X590865Y264845D01*
X588791Y263986D01*
X587011Y262619D01*
X586419Y261849D01*
X569284D01*
Y263064D01*
X558236D01*
Y254482D01*
X556565Y253117D01*
X554284Y254100D01*
Y263064D01*
X543236D01*
Y261849D01*
X527979D01*
X523184Y266644D01*
X521462Y267795D01*
X519430Y268199D01*
X517398Y267795D01*
X515676Y266644D01*
X514525Y264922D01*
X514121Y262890D01*
X514525Y260858D01*
X515676Y259136D01*
X522026Y252786D01*
X522026Y252786D01*
X523748Y251635D01*
X525780Y251231D01*
X543236D01*
Y250016D01*
X550559D01*
X551531Y247669D01*
X548172Y244310D01*
X500458D01*
X481872Y262896D01*
Y271181D01*
X484218Y272153D01*
X484633Y271738D01*
X485633Y271070D01*
X486813Y270836D01*
X556737D01*
X557917Y271070D01*
X558917Y271738D01*
X562594Y275416D01*
X569284D01*
Y276631D01*
X586419D01*
X587011Y275861D01*
X588791Y274494D01*
X590865Y273635D01*
X593090Y273342D01*
X595315Y273635D01*
X597389Y274494D01*
X599169Y275861D01*
X600536Y277641D01*
X601395Y279715D01*
X601688Y281940D01*
X601395Y284165D01*
X600536Y286239D01*
X599169Y288019D01*
X597389Y289386D01*
X595315Y290245D01*
X593090Y290537D01*
X590865Y290245D01*
X588791Y289386D01*
X587011Y288019D01*
X586419Y287249D01*
X569284D01*
Y288464D01*
X558236D01*
Y280269D01*
X556663Y279025D01*
X554284Y280073D01*
Y288464D01*
X543236D01*
Y287249D01*
X527979D01*
X523184Y292044D01*
X522010Y292828D01*
X522564Y295368D01*
X555870D01*
X557049Y295603D01*
X558049Y296271D01*
X562594Y300816D01*
X569284D01*
Y302031D01*
X586419D01*
X587011Y301261D01*
X588791Y299894D01*
X590865Y299035D01*
X593090Y298743D01*
X595315Y299035D01*
X597389Y299894D01*
X599169Y301261D01*
X600536Y303041D01*
X601395Y305115D01*
X601688Y307340D01*
X601395Y309565D01*
X600536Y311639D01*
X599169Y313419D01*
X597389Y314786D01*
X595315Y315645D01*
X593090Y315938D01*
X590865Y315645D01*
X588791Y314786D01*
X587011Y313419D01*
X586419Y312649D01*
X569284D01*
Y313864D01*
X558236D01*
Y305669D01*
X556663Y304425D01*
X554284Y305473D01*
Y313864D01*
X543236D01*
Y312649D01*
X527979D01*
X523184Y317444D01*
X522010Y318228D01*
X522564Y320768D01*
X555870D01*
X557049Y321003D01*
X558049Y321671D01*
X562594Y326216D01*
X569284D01*
Y327431D01*
X586419D01*
X587011Y326661D01*
X588791Y325294D01*
X590865Y324435D01*
X593090Y324142D01*
X595315Y324435D01*
X597389Y325294D01*
X599169Y326661D01*
X600536Y328441D01*
X601395Y330515D01*
X601688Y332740D01*
X601395Y334965D01*
X600536Y337039D01*
X599169Y338819D01*
X597389Y340186D01*
X595315Y341045D01*
X593090Y341338D01*
X590865Y341045D01*
X588791Y340186D01*
X587011Y338819D01*
X586419Y338049D01*
X569284D01*
Y339264D01*
X558236D01*
Y331069D01*
X556663Y329825D01*
X554284Y330873D01*
Y339264D01*
X543236D01*
Y338049D01*
X527979D01*
X523670Y342358D01*
X524185Y344262D01*
X524634Y344898D01*
X554600D01*
X555779Y345133D01*
X556779Y345801D01*
X562594Y351616D01*
X569284D01*
Y352831D01*
X586419D01*
X587011Y352061D01*
X588791Y350694D01*
X590865Y349835D01*
X593090Y349543D01*
X595315Y349835D01*
X597389Y350694D01*
X599169Y352061D01*
X600536Y353841D01*
X601395Y355915D01*
X601688Y358140D01*
X601395Y360365D01*
X600536Y362439D01*
X599169Y364219D01*
X597389Y365586D01*
X595315Y366445D01*
X593090Y366738D01*
X590865Y366445D01*
X588791Y365586D01*
X587011Y364219D01*
X586419Y363449D01*
X569284D01*
Y364664D01*
X558236D01*
Y356082D01*
X556565Y354717D01*
X554284Y355700D01*
Y364664D01*
X543236D01*
Y363449D01*
X527979D01*
X523184Y368244D01*
X522010Y369028D01*
X522564Y371568D01*
X555870D01*
X557049Y371803D01*
X558049Y372471D01*
X562594Y377016D01*
X569284D01*
Y378231D01*
X586419D01*
X587011Y377461D01*
X588791Y376094D01*
X590865Y375235D01*
X593090Y374943D01*
X595315Y375235D01*
X597389Y376094D01*
X599169Y377461D01*
X600536Y379241D01*
X601395Y381315D01*
X601688Y383540D01*
X601395Y385765D01*
X600536Y387839D01*
X599169Y389619D01*
X597389Y390986D01*
X595315Y391845D01*
X593090Y392137D01*
X590865Y391845D01*
X588791Y390986D01*
X587011Y389619D01*
X586419Y388849D01*
X569284D01*
Y390064D01*
X558236D01*
Y381869D01*
X556663Y380625D01*
X554284Y381673D01*
Y390064D01*
X543236D01*
Y388849D01*
X527979D01*
X523184Y393644D01*
X521462Y394795D01*
X519430Y395199D01*
X517398Y394795D01*
X515676Y393644D01*
X514525Y391922D01*
X514121Y389890D01*
X514525Y387858D01*
X515676Y386136D01*
X521540Y380272D01*
X521025Y378368D01*
X520576Y377732D01*
X481632D01*
X462756Y396608D01*
X463808Y399148D01*
X540919D01*
X541329Y398738D01*
X542329Y398070D01*
X543508Y397836D01*
X558190D01*
X559370Y398070D01*
X560369Y398738D01*
X563438Y401807D01*
X563845Y402416D01*
X569284D01*
Y403631D01*
X586419D01*
X587011Y402861D01*
X588791Y401494D01*
X590865Y400635D01*
X593090Y400342D01*
X595315Y400635D01*
X597389Y401494D01*
X599169Y402861D01*
X600536Y404641D01*
X601395Y406715D01*
X601688Y408940D01*
X601395Y411165D01*
X600536Y413239D01*
X599169Y415019D01*
X597389Y416386D01*
X595315Y417245D01*
X593090Y417537D01*
X590865Y417245D01*
X588791Y416386D01*
X587011Y415019D01*
X586419Y414249D01*
X569284D01*
Y415464D01*
X558236D01*
Y406736D01*
X558177Y406439D01*
Y405262D01*
X556914Y403999D01*
X554284D01*
Y415464D01*
X543236D01*
Y414249D01*
X527979D01*
X523184Y419044D01*
X522010Y419828D01*
X522564Y422368D01*
X555870D01*
X557049Y422603D01*
X558049Y423271D01*
X562594Y427816D01*
X569284D01*
Y429031D01*
X586419D01*
X587011Y428261D01*
X588791Y426894D01*
X590865Y426035D01*
X593090Y425742D01*
X595315Y426035D01*
X597389Y426894D01*
X599169Y428261D01*
X600536Y430041D01*
X601395Y432115D01*
X601688Y434340D01*
X601395Y436565D01*
X600536Y438639D01*
X599169Y440419D01*
X597389Y441786D01*
X595315Y442645D01*
X593090Y442938D01*
X590865Y442645D01*
X588791Y441786D01*
X587011Y440419D01*
X586419Y439649D01*
X569284D01*
Y440864D01*
X558236D01*
Y432669D01*
X556663Y431425D01*
X554284Y432473D01*
Y440864D01*
X543236D01*
Y439649D01*
X527979D01*
X523184Y444444D01*
X521462Y445595D01*
X519430Y445999D01*
X517398Y445595D01*
X515676Y444444D01*
X514525Y442722D01*
X514121Y440690D01*
X514525Y438658D01*
X515236Y437594D01*
X513263Y435975D01*
X495498Y453740D01*
X494498Y454408D01*
X493319Y454643D01*
X450412D01*
X449054Y457183D01*
X449405Y457708D01*
X449809Y459740D01*
Y517603D01*
X483872Y551666D01*
X485417Y550481D01*
X487734Y549521D01*
X490220Y549194D01*
X492706Y549521D01*
X495023Y550481D01*
X497013Y552007D01*
X498539Y553997D01*
X499499Y556314D01*
X499826Y558800D01*
X499499Y561286D01*
X498539Y563603D01*
X497013Y565593D01*
X495023Y567119D01*
X492706Y568079D01*
X490220Y568406D01*
X487734Y568079D01*
X485417Y567119D01*
X483427Y565593D01*
X481901Y563603D01*
X481388Y562366D01*
X479814Y562053D01*
X478091Y560902D01*
X478091Y560902D01*
X476872Y559683D01*
X474190Y560593D01*
X474099Y561286D01*
X473139Y563603D01*
X471613Y565593D01*
X469623Y567119D01*
X467306Y568079D01*
X464820Y568406D01*
X462334Y568079D01*
X460017Y567119D01*
X458027Y565593D01*
X456501Y563603D01*
X455541Y561286D01*
X455214Y558800D01*
X455458Y556946D01*
X428046Y529534D01*
X426895Y527812D01*
X426491Y525780D01*
X426491Y525780D01*
Y459740D01*
X426895Y457708D01*
X427246Y457183D01*
X425888Y454643D01*
X424582D01*
X423403Y454408D01*
X422403Y453740D01*
X417519Y448857D01*
X416851Y447857D01*
X415993Y447501D01*
X415878Y447579D01*
X414698Y447813D01*
X413518Y447579D01*
X412518Y446910D01*
X411878D01*
X410878Y447579D01*
X409698Y447813D01*
X408518Y447579D01*
X407518Y446910D01*
X406878D01*
X405878Y447579D01*
X404698Y447813D01*
X403518Y447579D01*
X402518Y446910D01*
X401878D01*
X400878Y447579D01*
X399698Y447813D01*
X398518Y447579D01*
X397871Y447146D01*
X395386Y447944D01*
X394542Y449879D01*
X394514Y450243D01*
X411119Y466848D01*
X411787Y467848D01*
X412022Y469027D01*
Y497677D01*
X412768Y498794D01*
X413084Y500380D01*
X412768Y501966D01*
X411870Y503310D01*
X410526Y504208D01*
X408940Y504524D01*
X407354Y504208D01*
X406010Y503310D01*
X405112Y501966D01*
X404796Y500380D01*
X405112Y498794D01*
X405858Y497677D01*
Y492427D01*
X403318Y491233D01*
X402906Y491508D01*
X401320Y491824D01*
X399734Y491508D01*
X398390Y490610D01*
X397492Y489266D01*
X397176Y487680D01*
X397492Y486094D01*
X398238Y484977D01*
Y469077D01*
X392907Y463746D01*
X390106Y464538D01*
X389836Y465666D01*
X389908Y465774D01*
X390224Y467360D01*
X389908Y468946D01*
X389010Y470290D01*
X387666Y471188D01*
X386080Y471504D01*
X384494Y471188D01*
X383150Y470290D01*
X383010Y470080D01*
X381932Y470039D01*
X380164Y470394D01*
X379772Y470981D01*
X378001Y472752D01*
X377001Y473420D01*
X376094Y473600D01*
Y484074D01*
X373997D01*
Y503528D01*
X374023Y503547D01*
X375309Y505223D01*
X376118Y507175D01*
X376393Y509270D01*
X376118Y511365D01*
X375309Y513317D01*
X374023Y514993D01*
X372347Y516279D01*
X370395Y517088D01*
X368300Y517363D01*
X366205Y517088D01*
X364253Y516279D01*
X362577Y514993D01*
X361291Y513317D01*
X360482Y511365D01*
X360207Y509270D01*
X360482Y507175D01*
X361291Y505223D01*
X362577Y503547D01*
X362603Y503528D01*
Y479820D01*
X363036Y477640D01*
X363046Y477625D01*
Y473654D01*
X358688D01*
X357917Y476194D01*
X358084Y476306D01*
X359235Y478028D01*
X359639Y480060D01*
X359235Y482092D01*
X358084Y483814D01*
X353609Y488289D01*
Y501246D01*
X356324D01*
Y517294D01*
X340276D01*
Y501246D01*
X342991D01*
Y486090D01*
X342991Y486090D01*
X343395Y484058D01*
X344546Y482336D01*
X350576Y476306D01*
X350743Y476194D01*
X349972Y473654D01*
X338211D01*
X337544Y474811D01*
X337163Y476194D01*
X337838Y477204D01*
X338154Y478790D01*
X337838Y480376D01*
X336940Y481720D01*
X335596Y482618D01*
X334010Y482934D01*
X332424Y482618D01*
X331307Y481872D01*
X327044D01*
X326274Y484412D01*
X326780Y484750D01*
X327678Y486094D01*
X327994Y487680D01*
X327678Y489266D01*
X326780Y490610D01*
X325436Y491508D01*
X323850Y491824D01*
X322264Y491508D01*
X321716Y491142D01*
X320319Y491439D01*
X319499Y494211D01*
X321578Y496290D01*
X322896Y496552D01*
X324240Y497450D01*
X325138Y498794D01*
X325454Y500380D01*
X325138Y501966D01*
X324240Y503310D01*
X322896Y504208D01*
X321310Y504524D01*
X319724Y504208D01*
X318380Y503310D01*
X317482Y501966D01*
X317220Y500648D01*
X296221Y479650D01*
X245793D01*
X244613Y479415D01*
X243613Y478747D01*
X240388Y475522D01*
X219716D01*
X213640Y481598D01*
X213378Y482916D01*
X212480Y484260D01*
X211136Y485158D01*
X209550Y485474D01*
X207964Y485158D01*
X206620Y484260D01*
X205722Y482916D01*
X205406Y481330D01*
X205722Y479744D01*
X206620Y478400D01*
X207964Y477502D01*
X209282Y477240D01*
X211981Y474541D01*
X211577Y471437D01*
X210678Y470092D01*
X210363Y468507D01*
X210678Y466921D01*
X211577Y465577D01*
X212921Y464678D01*
X214507Y464363D01*
X216092Y464678D01*
X216384Y464873D01*
X216567Y464837D01*
X220531D01*
X221187Y463767D01*
X221611Y462297D01*
X220962Y461326D01*
X220646Y459740D01*
X220962Y458154D01*
X221860Y456810D01*
X223204Y455912D01*
X224790Y455596D01*
X226375Y455912D01*
X226438Y455885D01*
X228343Y454308D01*
X228411Y454118D01*
X228266Y453390D01*
X228582Y451804D01*
X229480Y450460D01*
X230824Y449562D01*
X232410Y449246D01*
X233996Y449562D01*
X235113Y450308D01*
X237273D01*
X238647Y448273D01*
X238755Y447768D01*
X238574Y446855D01*
Y404222D01*
X230844Y396492D01*
X227705Y396469D01*
X227468Y396617D01*
X225734Y397947D01*
X223490Y398877D01*
X221082Y399194D01*
X218674Y398877D01*
X216430Y397947D01*
X214503Y396469D01*
X213025Y394542D01*
X212096Y392298D01*
X211779Y389890D01*
X212096Y387482D01*
X213025Y385238D01*
X214503Y383311D01*
X216430Y381833D01*
X218674Y380903D01*
X221082Y380586D01*
X223490Y380903D01*
X225734Y381833D01*
X226183Y382177D01*
X228723Y380925D01*
Y354114D01*
X211858D01*
Y335666D01*
X228723D01*
Y324521D01*
X220973Y316772D01*
X77747D01*
X74459Y320059D01*
X75431Y322406D01*
X82754D01*
Y323621D01*
X105158D01*
X107413Y321366D01*
X109135Y320215D01*
X111167Y319811D01*
X113030D01*
X115062Y320215D01*
X116784Y321366D01*
X117935Y323088D01*
X118339Y325120D01*
X117935Y327152D01*
X116784Y328874D01*
X115062Y330025D01*
X113449Y330346D01*
X111111Y332684D01*
X109389Y333835D01*
X107357Y334239D01*
X107357Y334239D01*
X85492D01*
X85487Y334256D01*
X87365Y336796D01*
X115087D01*
X116267Y337030D01*
X117267Y337698D01*
X129179Y349611D01*
X129847Y350611D01*
X130082Y351790D01*
Y379592D01*
X145448Y394958D01*
X147601Y393519D01*
X147095Y392298D01*
X146778Y389890D01*
X147095Y387482D01*
X148025Y385238D01*
X149503Y383311D01*
X151430Y381833D01*
X153674Y380903D01*
X156082Y380586D01*
X158490Y380903D01*
X160734Y381833D01*
X162661Y383311D01*
X164139Y385238D01*
X165069Y387482D01*
X165386Y389890D01*
X165069Y392298D01*
X164139Y394542D01*
X162661Y396469D01*
X160734Y397947D01*
X158490Y398877D01*
X156082Y399194D01*
X153674Y398877D01*
X152453Y398371D01*
X151014Y400524D01*
X195718Y445228D01*
X205577D01*
X206694Y444482D01*
X208280Y444166D01*
X209866Y444482D01*
X211210Y445380D01*
X212108Y446724D01*
X212424Y448310D01*
X212108Y449896D01*
X211210Y451240D01*
X209866Y452138D01*
X208280Y452454D01*
X206694Y452138D01*
X205577Y451392D01*
X201960D01*
X200645Y453932D01*
X200823Y454199D01*
X201139Y455785D01*
X200823Y457370D01*
X199925Y458715D01*
X198581Y459613D01*
X197243Y459879D01*
X197476Y461050D01*
Y462995D01*
X197723Y463160D01*
X198621Y464504D01*
X198936Y466090D01*
X198621Y467676D01*
X197723Y469020D01*
X196378Y469918D01*
X194793Y470234D01*
X192312Y472142D01*
Y476087D01*
X193058Y477204D01*
X193374Y478790D01*
X193058Y480376D01*
X192160Y481720D01*
X190816Y482618D01*
X189230Y482934D01*
X187644Y482618D01*
X186300Y481720D01*
X185402Y480376D01*
X185086Y478790D01*
X185402Y477204D01*
X186148Y476087D01*
Y463557D01*
X141751Y419159D01*
X114729D01*
X114479Y421699D01*
X115062Y421815D01*
X116784Y422966D01*
X117935Y424688D01*
X118339Y426720D01*
X117935Y428752D01*
X116784Y430474D01*
X112974Y434284D01*
X111252Y435435D01*
X109220Y435839D01*
X109220Y435839D01*
X82754D01*
Y437054D01*
X71706D01*
Y428090D01*
X69425Y427107D01*
X67754Y428472D01*
Y437054D01*
X56706D01*
Y435839D01*
X36464D01*
Y439054D01*
X19416D01*
Y422006D01*
X36464D01*
Y425221D01*
X56706D01*
Y424006D01*
X63396D01*
X73208Y414194D01*
X73008Y412982D01*
X72290Y411654D01*
X71706D01*
Y402690D01*
X69425Y401707D01*
X67754Y403072D01*
Y411654D01*
X56706D01*
Y410439D01*
X34611D01*
X34019Y411209D01*
X32239Y412576D01*
X30165Y413435D01*
X27940Y413727D01*
X25715Y413435D01*
X23641Y412576D01*
X21861Y411209D01*
X20494Y409429D01*
X19635Y407355D01*
X19342Y405130D01*
X19635Y402905D01*
X20494Y400831D01*
X21861Y399051D01*
X23641Y397684D01*
X25715Y396825D01*
X27940Y396533D01*
X30165Y396825D01*
X32239Y397684D01*
X34019Y399051D01*
X34611Y399821D01*
X56706D01*
Y398606D01*
X63396D01*
X73208Y388794D01*
X73008Y387582D01*
X72290Y386254D01*
X71706D01*
Y377290D01*
X69425Y376307D01*
X67754Y377672D01*
Y386254D01*
X56706D01*
Y385039D01*
X34611D01*
X34019Y385809D01*
X32239Y387176D01*
X30165Y388035D01*
X27940Y388327D01*
X25715Y388035D01*
X23641Y387176D01*
X21861Y385809D01*
X20494Y384029D01*
X19635Y381955D01*
X19342Y379730D01*
X19635Y377505D01*
X20494Y375431D01*
X21861Y373651D01*
X23641Y372284D01*
X25715Y371425D01*
X27940Y371133D01*
X30165Y371425D01*
X32239Y372284D01*
X34019Y373651D01*
X34611Y374421D01*
X56706D01*
Y373206D01*
X63396D01*
X73208Y363394D01*
X73008Y362182D01*
X72290Y360854D01*
X71706D01*
Y351890D01*
X69425Y350907D01*
X67754Y352272D01*
Y360854D01*
X56706D01*
Y359639D01*
X34611D01*
X34019Y360409D01*
X32239Y361776D01*
X30165Y362635D01*
X27940Y362928D01*
X25715Y362635D01*
X23641Y361776D01*
X21861Y360409D01*
X20494Y358629D01*
X19635Y356555D01*
X19342Y354330D01*
X19635Y352105D01*
X20494Y350031D01*
X21861Y348251D01*
X23641Y346884D01*
X25715Y346025D01*
X27940Y345732D01*
X30165Y346025D01*
X32239Y346884D01*
X34019Y348251D01*
X34611Y349021D01*
X56706D01*
Y347806D01*
X63396D01*
X73208Y337994D01*
X73008Y336782D01*
X72290Y335454D01*
X71706D01*
Y326490D01*
X69425Y325507D01*
X67754Y326872D01*
Y335454D01*
X56706D01*
Y334239D01*
X34611D01*
X34019Y335009D01*
X32239Y336376D01*
X30165Y337235D01*
X27940Y337528D01*
X25715Y337235D01*
X23641Y336376D01*
X21861Y335009D01*
X20494Y333229D01*
X19635Y331155D01*
X19342Y328930D01*
X19635Y326705D01*
X20494Y324631D01*
X21861Y322851D01*
X23641Y321484D01*
X25715Y320625D01*
X27940Y320332D01*
X30165Y320625D01*
X32239Y321484D01*
X34019Y322851D01*
X34611Y323621D01*
X56706D01*
Y322406D01*
X63396D01*
X73208Y312594D01*
X72156Y310054D01*
X71706D01*
Y301090D01*
X69425Y300107D01*
X67754Y301472D01*
Y310054D01*
X56706D01*
Y308839D01*
X34611D01*
X34019Y309609D01*
X32239Y310976D01*
X30165Y311835D01*
X27940Y312127D01*
X25715Y311835D01*
X23641Y310976D01*
X21861Y309609D01*
X20494Y307829D01*
X19635Y305755D01*
X19342Y303530D01*
X19635Y301305D01*
X20494Y299231D01*
X21861Y297451D01*
X23641Y296084D01*
X25715Y295225D01*
X27940Y294932D01*
X30165Y295225D01*
X32239Y296084D01*
X34019Y297451D01*
X34611Y298221D01*
X56706D01*
Y297006D01*
X63396D01*
X73208Y287194D01*
X72156Y284654D01*
X71706D01*
Y275690D01*
X69425Y274707D01*
X67754Y276072D01*
Y284654D01*
X56706D01*
Y283439D01*
X34611D01*
X34019Y284209D01*
X32239Y285576D01*
X30165Y286435D01*
X27940Y286728D01*
X25715Y286435D01*
X23641Y285576D01*
X21861Y284209D01*
X20494Y282429D01*
X19635Y280355D01*
X19342Y278130D01*
X19635Y275905D01*
X20494Y273831D01*
X21861Y272051D01*
X23641Y270684D01*
X25715Y269825D01*
X27940Y269533D01*
X30165Y269825D01*
X32239Y270684D01*
X34019Y272051D01*
X34611Y272821D01*
X56706D01*
Y271606D01*
X63396D01*
X73208Y261794D01*
X72156Y259254D01*
X71706D01*
Y250290D01*
X69425Y249307D01*
X67754Y250672D01*
Y259254D01*
X56706D01*
Y258039D01*
X34611D01*
X34019Y258809D01*
X32239Y260176D01*
X30165Y261035D01*
X27940Y261327D01*
X25715Y261035D01*
X23641Y260176D01*
X21861Y258809D01*
X20494Y257029D01*
X19635Y254955D01*
X19342Y252730D01*
X19635Y250505D01*
X20494Y248431D01*
X21861Y246651D01*
X23641Y245284D01*
X25715Y244425D01*
X27940Y244132D01*
X30165Y244425D01*
X32239Y245284D01*
X34019Y246651D01*
X34611Y247421D01*
X56706D01*
Y246206D01*
X63396D01*
X73208Y236394D01*
X73008Y235182D01*
X72290Y233854D01*
X71706D01*
Y224890D01*
X69425Y223907D01*
X67754Y225272D01*
Y233854D01*
X56706D01*
Y232639D01*
X34611D01*
X34019Y233409D01*
X32239Y234776D01*
X30165Y235635D01*
X27940Y235928D01*
X25715Y235635D01*
X23641Y234776D01*
X21861Y233409D01*
X20494Y231629D01*
X19635Y229555D01*
X19342Y227330D01*
X19635Y225105D01*
X20494Y223031D01*
X21861Y221251D01*
X23641Y219884D01*
X25715Y219025D01*
X27940Y218732D01*
X30165Y219025D01*
X32239Y219884D01*
X34019Y221251D01*
X34611Y222021D01*
X56706D01*
Y220806D01*
X63396D01*
X71751Y212451D01*
X72751Y211783D01*
X73930Y211548D01*
X93745D01*
X94306Y211173D01*
X95486Y210939D01*
X150652D01*
X151832Y211173D01*
X152831Y211841D01*
X181262Y240271D01*
X183608Y239299D01*
Y219716D01*
X154400Y190508D01*
X117142D01*
X116549Y191262D01*
X116784Y194366D01*
X117935Y196088D01*
X118339Y198120D01*
X117935Y200152D01*
X116784Y201874D01*
X112974Y205684D01*
X111252Y206835D01*
X109220Y207239D01*
X109220Y207239D01*
X82754D01*
Y208454D01*
X71706D01*
Y199490D01*
X69425Y198507D01*
X67754Y199872D01*
Y208454D01*
X56706D01*
Y207239D01*
X34611D01*
X34019Y208009D01*
X32239Y209376D01*
X30165Y210235D01*
X27940Y210527D01*
X25715Y210235D01*
X23641Y209376D01*
X21861Y208009D01*
X20494Y206229D01*
X19635Y204155D01*
X19342Y201930D01*
X19635Y199705D01*
X20494Y197631D01*
X21861Y195851D01*
X23641Y194484D01*
X25715Y193625D01*
X27940Y193333D01*
X30165Y193625D01*
X32239Y194484D01*
X34019Y195851D01*
X34611Y196621D01*
X56706D01*
Y195406D01*
X63396D01*
X70418Y188384D01*
X69446Y186038D01*
X5698D01*
Y574692D01*
X609600D01*
X610252Y574157D01*
D02*
G37*
G36*
X297248Y410972D02*
X297483Y409793D01*
X298151Y408793D01*
X304640Y402304D01*
X304475Y399409D01*
X299621Y394555D01*
X298953Y393555D01*
X298718Y392376D01*
Y381612D01*
X296881Y379775D01*
X296213Y378775D01*
X295978Y377595D01*
Y377442D01*
X295780Y374984D01*
X281732D01*
Y358936D01*
X282554D01*
X284690Y357725D01*
Y353475D01*
X284226Y352909D01*
X270420D01*
X269241Y352675D01*
X268386Y352103D01*
X266283D01*
X264829Y353556D01*
Y357652D01*
X265081Y358029D01*
X265315Y359208D01*
Y373435D01*
X266919Y375039D01*
X267587Y376039D01*
X267822Y377219D01*
Y379701D01*
X269660Y381883D01*
X269770Y381936D01*
X277780D01*
Y397984D01*
X274822D01*
Y402175D01*
X274770Y402436D01*
Y405210D01*
X276280D01*
Y413601D01*
X278659Y414649D01*
X280232Y413405D01*
Y405210D01*
X291280D01*
Y418258D01*
X284590D01*
X280913Y421936D01*
X279913Y422604D01*
X278733Y422838D01*
X265504D01*
X264325Y422604D01*
X263325Y421936D01*
X260054Y418665D01*
X259386Y417665D01*
X259152Y416486D01*
Y382208D01*
X259386Y381029D01*
X260054Y380029D01*
X261623Y378460D01*
X260054Y376891D01*
X259386Y375891D01*
X259152Y374712D01*
Y360278D01*
X258900Y359901D01*
X258666Y358722D01*
Y352280D01*
X258900Y351101D01*
X259568Y350101D01*
X262827Y346842D01*
X263827Y346174D01*
X265006Y345940D01*
X268227D01*
X269279Y343400D01*
X246276Y320396D01*
X243929Y321368D01*
Y343704D01*
X245711Y345486D01*
X246379Y346485D01*
X246613Y347665D01*
Y376717D01*
X247547Y377651D01*
X248216Y378651D01*
X248450Y379830D01*
Y392594D01*
X254919Y399062D01*
X255587Y400062D01*
X255821Y401242D01*
Y422892D01*
X256515Y423506D01*
X258361Y424518D01*
X260062Y424180D01*
X262334Y424632D01*
X264261Y425919D01*
X265548Y427846D01*
X266000Y430118D01*
X265738Y431436D01*
X268817Y434515D01*
X297248D01*
Y410972D01*
D02*
G37*
G36*
X109276Y422966D02*
X110998Y421815D01*
X111581Y421699D01*
X111331Y419159D01*
X76959D01*
X74459Y421659D01*
X75431Y424006D01*
X82754D01*
Y425221D01*
X107021D01*
X109276Y422966D01*
D02*
G37*
G36*
X336572Y453644D02*
X336888Y452058D01*
X337786Y450714D01*
X339130Y449816D01*
X340716Y449500D01*
X342302Y449816D01*
X343646Y450714D01*
X345962Y449618D01*
X346617Y449069D01*
Y444740D01*
X346615Y444730D01*
Y426730D01*
X346850Y425550D01*
X347518Y424550D01*
X348518Y423881D01*
X349698Y423647D01*
X350878Y423881D01*
X351878Y424550D01*
X352547Y425550D01*
X352781Y426730D01*
Y444730D01*
X352780Y444735D01*
Y448851D01*
X355320Y449986D01*
X356616Y448826D01*
Y444737D01*
X356615Y444730D01*
Y426730D01*
X356850Y425550D01*
X357518Y424550D01*
X358518Y423881D01*
X359698Y423647D01*
X360878Y423881D01*
X361878Y424550D01*
X362518D01*
X363518Y423881D01*
X364698Y423647D01*
X365878Y423881D01*
X366878Y424550D01*
X367518D01*
X368518Y423881D01*
X369698Y423647D01*
X370878Y423881D01*
X371878Y424550D01*
X372518D01*
X373518Y423881D01*
X374698Y423647D01*
X375878Y423881D01*
X376878Y424550D01*
X377518D01*
X378518Y423881D01*
X379698Y423647D01*
X380878Y423881D01*
X381878Y424550D01*
X382518D01*
X383518Y423881D01*
X384698Y423647D01*
X385878Y423881D01*
X386878Y424550D01*
X387518D01*
X388518Y423881D01*
X389698Y423647D01*
X390878Y423881D01*
X391878Y424550D01*
X392518D01*
X393518Y423881D01*
X394698Y423647D01*
X395878Y423881D01*
X396878Y424550D01*
X397518D01*
X398518Y423881D01*
X399698Y423647D01*
X400878Y423881D01*
X401878Y424550D01*
X402518D01*
X403518Y423881D01*
X404698Y423647D01*
X405878Y423881D01*
X406878Y424550D01*
X407518D01*
X408518Y423881D01*
X409698Y423647D01*
X410878Y423881D01*
X411878Y424550D01*
X412518D01*
X413518Y423881D01*
X414698Y423647D01*
X415878Y423881D01*
X416878Y424550D01*
X417518D01*
X418518Y423881D01*
X419698Y423647D01*
X420878Y423881D01*
X421878Y424550D01*
X422518D01*
X423518Y423881D01*
X424698Y423647D01*
X425878Y423881D01*
X426878Y424550D01*
X427547Y425550D01*
X427781Y426730D01*
Y443958D01*
X431536D01*
X431584Y443911D01*
X431782Y442914D01*
X432680Y441570D01*
X434024Y440672D01*
X435610Y440356D01*
X437196Y440672D01*
X438540Y441570D01*
X439438Y442914D01*
X439754Y444500D01*
X439467Y445939D01*
X439465Y446129D01*
X440894Y448479D01*
X492042D01*
X517251Y423271D01*
X517845Y422874D01*
X517857Y421215D01*
X517577Y420230D01*
X517398Y420195D01*
X515676Y419044D01*
X514525Y417322D01*
X514121Y415290D01*
X514525Y413258D01*
X515676Y411536D01*
X519553Y407659D01*
X518581Y405312D01*
X469602D01*
X467694Y407793D01*
X467378Y409378D01*
X466480Y410723D01*
X466024Y411027D01*
X465861Y411782D01*
X466007Y413807D01*
X466024Y413849D01*
X466836Y414392D01*
X467734Y415736D01*
X468050Y417322D01*
X467734Y418908D01*
X467551Y419181D01*
X467045Y421005D01*
X467551Y422829D01*
X467734Y423102D01*
X468050Y424688D01*
X467734Y426274D01*
X466836Y427618D01*
X465492Y428516D01*
X465266Y428561D01*
X465070Y428600D01*
Y431190D01*
X465492Y431274D01*
X466836Y432172D01*
X467734Y433516D01*
X468050Y435102D01*
X467734Y436688D01*
X466836Y438032D01*
X465492Y438930D01*
X463906Y439246D01*
X462320Y438930D01*
X460976Y438032D01*
X460078Y436688D01*
X459762Y435102D01*
X460078Y433516D01*
X460976Y432172D01*
X462320Y431274D01*
X462546Y431229D01*
X462742Y431190D01*
Y428600D01*
X462320Y428516D01*
X460976Y427618D01*
X460078Y426274D01*
X459762Y424688D01*
X460078Y423102D01*
X460245Y422852D01*
X458916Y420312D01*
X452203D01*
X452198Y420313D01*
X434198D01*
X433018Y420079D01*
X432018Y419410D01*
X431349Y418410D01*
X431115Y417230D01*
X431349Y416050D01*
X432018Y415050D01*
X433018Y414381D01*
X434198Y414147D01*
X452198D01*
X452208Y414149D01*
X459379D01*
X460029Y413379D01*
X460279Y412254D01*
X459293Y410312D01*
X452205D01*
X452198Y410313D01*
X434198D01*
X433018Y410079D01*
X432018Y409410D01*
X431349Y408410D01*
X431115Y407230D01*
X431349Y406050D01*
X432018Y405050D01*
Y404410D01*
X431349Y403410D01*
X431115Y402230D01*
X431349Y401050D01*
X432018Y400050D01*
Y399410D01*
X431349Y398410D01*
X431115Y397230D01*
X431349Y396050D01*
X432018Y395050D01*
Y394410D01*
X431349Y393410D01*
X431115Y392230D01*
X431349Y391050D01*
X432018Y390050D01*
Y389410D01*
X431349Y388410D01*
X431115Y387230D01*
X431349Y386050D01*
X432018Y385050D01*
Y384410D01*
X431349Y383410D01*
X431115Y382230D01*
X431349Y381050D01*
X432018Y380050D01*
Y379410D01*
X431349Y378410D01*
X431115Y377230D01*
X431349Y376050D01*
X432018Y375050D01*
Y374410D01*
X431349Y373410D01*
X431115Y372230D01*
X431349Y371050D01*
X432018Y370050D01*
Y369410D01*
X431349Y368410D01*
X431115Y367230D01*
X431349Y366050D01*
X432018Y365050D01*
Y364410D01*
X431349Y363410D01*
X431115Y362230D01*
X431349Y361050D01*
X432018Y360050D01*
Y359410D01*
X431349Y358410D01*
X431115Y357230D01*
X431349Y356050D01*
X432018Y355050D01*
Y354410D01*
X431349Y353410D01*
X431115Y352230D01*
X431349Y351050D01*
X432018Y350050D01*
Y349410D01*
X431349Y348410D01*
X431115Y347230D01*
X431349Y346050D01*
X432018Y345050D01*
Y344410D01*
X431349Y343410D01*
X431115Y342230D01*
X431349Y341050D01*
X432018Y340050D01*
X433018Y339381D01*
X434198Y339147D01*
X447618D01*
Y291990D01*
X446864Y291372D01*
X433694D01*
X426046Y299020D01*
X426450Y302124D01*
X427348Y303468D01*
X427664Y305054D01*
X427548Y305633D01*
X427780Y306796D01*
Y314723D01*
X427781Y314730D01*
Y332730D01*
X427547Y333910D01*
X426878Y334910D01*
X425878Y335579D01*
X424698Y335813D01*
X423518Y335579D01*
X422518Y334910D01*
X421850Y333910D01*
X421615Y332730D01*
Y314730D01*
X421616Y314723D01*
Y308670D01*
X420590Y307984D01*
X417606Y307595D01*
X415793Y309312D01*
X415820Y310123D01*
X416417Y312241D01*
X416878Y312550D01*
X417547Y313550D01*
X417781Y314730D01*
Y332730D01*
X417547Y333910D01*
X416878Y334910D01*
X415878Y335579D01*
X414698Y335813D01*
X413518Y335579D01*
X412518Y334910D01*
X411878D01*
X410878Y335579D01*
X409698Y335813D01*
X408518Y335579D01*
X407518Y334910D01*
X406878D01*
X405878Y335579D01*
X404698Y335813D01*
X403518Y335579D01*
X402518Y334910D01*
X401878D01*
X400878Y335579D01*
X399698Y335813D01*
X398518Y335579D01*
X397518Y334910D01*
X396878D01*
X395878Y335579D01*
X394698Y335813D01*
X393518Y335579D01*
X392518Y334910D01*
X391878D01*
X390878Y335579D01*
X389698Y335813D01*
X388518Y335579D01*
X387518Y334910D01*
X386878D01*
X385878Y335579D01*
X384698Y335813D01*
X383518Y335579D01*
X382518Y334910D01*
X381878D01*
X380878Y335579D01*
X379698Y335813D01*
X378518Y335579D01*
X377518Y334910D01*
X376878D01*
X375878Y335579D01*
X374698Y335813D01*
X373518Y335579D01*
X372518Y334910D01*
X371878D01*
X370878Y335579D01*
X369698Y335813D01*
X368518Y335579D01*
X367518Y334910D01*
X366878D01*
X365878Y335579D01*
X364698Y335813D01*
X363518Y335579D01*
X362518Y334910D01*
X361878D01*
X360878Y335579D01*
X359698Y335813D01*
X358518Y335579D01*
X357518Y334910D01*
X356850Y333910D01*
X356615Y332730D01*
Y314730D01*
X356616Y314725D01*
Y307498D01*
X356582Y307476D01*
X355684Y306132D01*
X355368Y304546D01*
X355684Y302960D01*
X356582Y301616D01*
X356987Y298512D01*
X355320Y296845D01*
X352780Y297898D01*
Y314723D01*
X352781Y314730D01*
Y332730D01*
X352547Y333910D01*
X351878Y334910D01*
X350878Y335579D01*
X349698Y335813D01*
X348518Y335579D01*
X347518Y334910D01*
X346850Y333910D01*
X346643Y332873D01*
X345689Y332244D01*
X344268Y331656D01*
X341781Y334142D01*
Y339651D01*
X342378Y340050D01*
X343047Y341050D01*
X343281Y342230D01*
X343047Y343410D01*
X342378Y344410D01*
Y345050D01*
X343047Y346050D01*
X343281Y347230D01*
X343047Y348410D01*
X342378Y349410D01*
Y350050D01*
X343047Y351050D01*
X343281Y352230D01*
X343047Y353410D01*
X342378Y354410D01*
Y355050D01*
X343047Y356050D01*
X343281Y357230D01*
X343047Y358410D01*
X342378Y359410D01*
X341378Y360079D01*
X340198Y360313D01*
X323260D01*
X322899Y360555D01*
X321720Y360789D01*
X317896D01*
X317798Y361279D01*
X316900Y362624D01*
X315555Y363522D01*
X315129Y363607D01*
X314208Y366277D01*
X316903Y368973D01*
X319205Y367682D01*
X319115Y367230D01*
X319349Y366050D01*
X320018Y365050D01*
X321018Y364381D01*
X322198Y364147D01*
X340198D01*
X341378Y364381D01*
X342378Y365050D01*
X343047Y366050D01*
X343281Y367230D01*
X343047Y368410D01*
X342378Y369410D01*
Y370050D01*
X343047Y371050D01*
X343281Y372230D01*
X343047Y373410D01*
X342378Y374410D01*
Y375050D01*
X343047Y376050D01*
X343281Y377230D01*
X343047Y378410D01*
X342629Y379034D01*
X342774Y379383D01*
X343774Y380051D01*
X346900Y383177D01*
X347568Y384177D01*
X347803Y385357D01*
Y419103D01*
X347568Y420283D01*
X346900Y421282D01*
X316562Y451620D01*
X315563Y452288D01*
X314587Y452482D01*
X314158Y453088D01*
X313370Y455062D01*
X314190Y456125D01*
X334664D01*
X336572Y453644D01*
D02*
G37*
G36*
X109276Y372166D02*
X110998Y371015D01*
X111581Y370899D01*
X111331Y368359D01*
X76959D01*
X74459Y370859D01*
X75431Y373206D01*
X82754D01*
Y374421D01*
X107021D01*
X109276Y372166D01*
D02*
G37*
G36*
X107413Y346766D02*
X109135Y345615D01*
X109718Y345499D01*
X109468Y342959D01*
X76959D01*
X74459Y345459D01*
X75431Y347806D01*
X82754D01*
Y349021D01*
X105158D01*
X107413Y346766D01*
D02*
G37*
G36*
X221160Y308068D02*
X203193Y290102D01*
X79017D01*
X74459Y294659D01*
X75431Y297006D01*
X82754D01*
Y298221D01*
X107021D01*
X109276Y295966D01*
X110998Y294815D01*
X113030Y294411D01*
X115062Y294815D01*
X116784Y295966D01*
X117935Y297688D01*
X118339Y299720D01*
X117935Y301752D01*
X116784Y303474D01*
X112974Y307284D01*
X111800Y308068D01*
X112354Y310608D01*
X220108D01*
X221160Y308068D01*
D02*
G37*
G36*
X201077Y281591D02*
X185457Y265972D01*
X77747D01*
X74459Y269259D01*
X75431Y271606D01*
X82754D01*
Y272821D01*
X107021D01*
X109276Y270566D01*
X110998Y269415D01*
X113030Y269011D01*
X115062Y269415D01*
X116784Y270566D01*
X117935Y272288D01*
X118339Y274320D01*
X117935Y276352D01*
X116784Y278074D01*
X113460Y281398D01*
X113975Y283302D01*
X114424Y283938D01*
X200105D01*
X201077Y281591D01*
D02*
G37*
G36*
X407611Y280884D02*
Y254489D01*
X405106Y251985D01*
X402312Y252542D01*
X401549Y253821D01*
Y271780D01*
X401475Y272152D01*
X401654Y273050D01*
X401338Y274636D01*
X400440Y275980D01*
X399367Y276697D01*
X399007Y277061D01*
X397763Y279637D01*
X397780Y279721D01*
Y287396D01*
X400126Y288368D01*
X407611Y280884D01*
D02*
G37*
G36*
X375479Y291328D02*
X375621Y290402D01*
X361955Y276737D01*
X361287Y275737D01*
X361053Y274557D01*
Y257461D01*
X354504Y250912D01*
X351964Y251784D01*
X350749Y253821D01*
Y263652D01*
X350345Y265684D01*
X350107Y266040D01*
X349210Y267440D01*
X350288Y269730D01*
X372772Y292214D01*
X375479Y291328D01*
D02*
G37*
G36*
X341155Y274233D02*
X341162Y272991D01*
X340483Y272537D01*
X336555Y268609D01*
X335887Y267609D01*
X335653Y266430D01*
Y256191D01*
X329104Y249642D01*
X326564Y250694D01*
Y251784D01*
X325349D01*
Y271780D01*
X325275Y272152D01*
X325454Y273050D01*
X327362Y275531D01*
X340740D01*
X341155Y274233D01*
D02*
G37*
G36*
X312124Y277705D02*
X311155Y276737D01*
X310487Y275737D01*
X310253Y274557D01*
Y254921D01*
X303862Y248531D01*
X303862Y248531D01*
X303704Y248372D01*
X301164Y249424D01*
Y251784D01*
X299949D01*
Y271780D01*
X299875Y272152D01*
X300054Y273050D01*
X299738Y274636D01*
X298840Y275980D01*
X297921Y276594D01*
X297623Y277580D01*
X298746Y279453D01*
X299622Y280052D01*
X311152D01*
X312124Y277705D01*
D02*
G37*
G36*
X291245Y282227D02*
X285141Y276123D01*
X284473Y275123D01*
X284238Y273944D01*
Y254307D01*
X278304Y248372D01*
X275764Y249424D01*
Y251784D01*
X274549D01*
Y271780D01*
X274475Y272152D01*
X274654Y273050D01*
X274338Y274636D01*
X273440Y275980D01*
X272521Y276594D01*
X271946Y278496D01*
X271852Y279517D01*
X276908Y284573D01*
X290273D01*
X291245Y282227D01*
D02*
G37*
G36*
X321018Y339381D02*
X322198Y339147D01*
X335618D01*
Y332866D01*
X335852Y331687D01*
X336520Y330687D01*
X342094Y325113D01*
Y297601D01*
X339751Y295258D01*
X254753D01*
X253574Y295023D01*
X252574Y294355D01*
X234955Y276737D01*
X234287Y275737D01*
X234053Y274557D01*
Y254921D01*
X227311Y248179D01*
X224964Y249151D01*
Y251784D01*
X223749D01*
Y265931D01*
X223345Y267963D01*
X222194Y269685D01*
X221275Y270299D01*
X220589Y273205D01*
X255196Y307812D01*
X284318D01*
X285498Y308046D01*
X286497Y308714D01*
X317311Y339528D01*
X320018Y340050D01*
X321018Y339381D01*
D02*
G37*
G36*
X270366Y286748D02*
X259038Y275420D01*
X258370Y274420D01*
X258136Y273241D01*
Y252334D01*
X252904Y247102D01*
X250364Y248154D01*
Y251784D01*
X249149D01*
Y271780D01*
X249075Y272152D01*
X249254Y273050D01*
X248938Y274636D01*
X248040Y275980D01*
X247121Y276594D01*
X246546Y278496D01*
X246452Y279517D01*
X256030Y289094D01*
X269394D01*
X270366Y286748D01*
D02*
G37*
G36*
X388518Y311882D02*
X389698Y311647D01*
X391616Y309552D01*
Y280998D01*
X386940Y276321D01*
X386272Y275322D01*
X386037Y274142D01*
Y257045D01*
X381361Y252369D01*
X380693Y251369D01*
X380458Y250190D01*
Y245929D01*
X379904Y245558D01*
X377364Y246914D01*
Y251784D01*
X376149D01*
Y271780D01*
X376075Y272152D01*
X376254Y273050D01*
X375938Y274636D01*
X375040Y275980D01*
X374121Y276594D01*
X373546Y278496D01*
X373452Y279517D01*
X381877Y287942D01*
X382545Y288942D01*
X382780Y290121D01*
Y309552D01*
X384698Y311647D01*
X385878Y311882D01*
X386878Y312550D01*
X387518D01*
X388518Y311882D01*
D02*
G37*
G36*
X109276Y245166D02*
X110998Y244015D01*
X111581Y243899D01*
X111331Y241359D01*
X76959D01*
X74459Y243859D01*
X75431Y246206D01*
X82754D01*
Y247421D01*
X107021D01*
X109276Y245166D01*
D02*
G37*
G36*
X458411Y272385D02*
Y243059D01*
X456104Y240752D01*
X453564Y241804D01*
Y251784D01*
X452349D01*
Y269722D01*
X453215Y271018D01*
X453619Y273050D01*
X453486Y273717D01*
X455827Y274969D01*
X458411Y272385D01*
D02*
G37*
G36*
X109276Y194366D02*
X110998Y193215D01*
X111581Y193099D01*
X111331Y190559D01*
X76959D01*
X74459Y193059D01*
X75431Y195406D01*
X82754D01*
Y196621D01*
X107021D01*
X109276Y194366D01*
D02*
G37*
%LPC*%
G36*
X190554Y558068D02*
X177506D01*
Y557853D01*
X163795D01*
X161763Y557449D01*
X160041Y556298D01*
X160041Y556298D01*
X155726Y551983D01*
X154575Y550261D01*
X154171Y548229D01*
X154171Y548229D01*
Y530812D01*
X146956D01*
Y518097D01*
X114004D01*
Y519312D01*
X96464D01*
X90234Y525542D01*
X88512Y526693D01*
X86480Y527097D01*
X86480Y527097D01*
X82430D01*
X80398Y526693D01*
X80349Y526660D01*
X79455D01*
X78539Y526478D01*
X77914Y526060D01*
X77655Y525958D01*
X75267D01*
X75008Y526060D01*
X74383Y526478D01*
X73467Y526660D01*
X72573D01*
X72524Y526693D01*
X70492Y527097D01*
X58554D01*
X58554Y527097D01*
X56522Y526693D01*
X56473Y526660D01*
X55580D01*
X54663Y526478D01*
X53886Y525958D01*
X53366Y525181D01*
X53184Y524264D01*
Y523926D01*
X53101Y523843D01*
X38834D01*
Y527008D01*
X21886D01*
Y510060D01*
X38834D01*
Y513225D01*
X55300D01*
X55300Y513225D01*
X57332Y513629D01*
X59054Y514780D01*
X60753Y516479D01*
X64421D01*
Y500594D01*
X64421Y500594D01*
X64825Y498562D01*
X65976Y496840D01*
X76782Y486034D01*
X78504Y484883D01*
X80536Y484479D01*
X88956D01*
Y483264D01*
X114004D01*
Y496312D01*
X88956D01*
Y495097D01*
X82735D01*
X75039Y502793D01*
Y517537D01*
X75413Y517618D01*
X77655D01*
X77914Y517515D01*
X78539Y517098D01*
X79455Y516916D01*
X80349D01*
X80398Y516883D01*
X82430Y516479D01*
X84281D01*
X88956Y511804D01*
Y506264D01*
X114004D01*
Y507479D01*
X146956D01*
Y494764D01*
X172004D01*
Y507479D01*
X183524D01*
X183524Y507479D01*
X185556Y507883D01*
X187278Y509034D01*
X187530Y509286D01*
X188681Y511008D01*
X189085Y513040D01*
X188681Y515072D01*
X187530Y516794D01*
X185808Y517945D01*
X183776Y518349D01*
X182509Y518097D01*
X172004D01*
Y530812D01*
X164789D01*
Y546030D01*
X165994Y547235D01*
X177506D01*
Y547020D01*
X190554D01*
Y558068D01*
D02*
G37*
G36*
Y543068D02*
X177506D01*
Y532020D01*
X183834D01*
X184347Y531918D01*
X184347Y531918D01*
X196402D01*
X197238Y531359D01*
X199270Y530955D01*
X201302Y531359D01*
X203024Y532510D01*
X203178Y532740D01*
X203794D01*
Y533662D01*
X204175Y534232D01*
X204579Y536264D01*
X204175Y538296D01*
X203794Y538866D01*
Y539788D01*
X203178D01*
X203024Y540018D01*
X202061Y540981D01*
X200339Y542132D01*
X198307Y542536D01*
X198307Y542536D01*
X190554D01*
Y543068D01*
D02*
G37*
G36*
X519620Y568432D02*
X511620D01*
X509465Y568004D01*
X507637Y566783D01*
X506417Y564955D01*
X505988Y562800D01*
Y554800D01*
X506417Y552645D01*
X507637Y550817D01*
X509465Y549596D01*
X510311Y549428D01*
Y539750D01*
X510311Y539750D01*
X510715Y537718D01*
X511866Y535996D01*
X518216Y529646D01*
X519938Y528495D01*
X521970Y528091D01*
X524002Y528495D01*
X525724Y529646D01*
X526875Y531368D01*
X527279Y533400D01*
X526875Y535432D01*
X525724Y537154D01*
X520929Y541949D01*
Y549428D01*
X521775Y549596D01*
X523603Y550817D01*
X524823Y552645D01*
X525252Y554800D01*
Y562800D01*
X524823Y564955D01*
X523603Y566783D01*
X521775Y568004D01*
X519620Y568432D01*
D02*
G37*
%LPD*%
D17*
X447040Y246260D02*
D03*
Y231260D02*
D03*
X421640Y246260D02*
D03*
Y231260D02*
D03*
X396240Y246260D02*
D03*
Y231260D02*
D03*
X370840Y246260D02*
D03*
Y231260D02*
D03*
X345440Y246260D02*
D03*
Y231260D02*
D03*
X320040Y246260D02*
D03*
Y231260D02*
D03*
X294640Y246260D02*
D03*
Y231260D02*
D03*
X269240Y246260D02*
D03*
Y231260D02*
D03*
X243840Y246260D02*
D03*
Y231260D02*
D03*
X218440Y246260D02*
D03*
Y231260D02*
D03*
X184030Y552544D02*
D03*
X369570Y463550D02*
D03*
Y478550D02*
D03*
X184030Y537544D02*
D03*
D18*
X443198Y407230D02*
D03*
Y417230D02*
D03*
X331198Y357230D02*
D03*
X443198Y412230D02*
D03*
X331198Y362230D02*
D03*
X443198Y402230D02*
D03*
Y397230D02*
D03*
Y392230D02*
D03*
Y387230D02*
D03*
Y382230D02*
D03*
Y377230D02*
D03*
Y372230D02*
D03*
Y367230D02*
D03*
Y362230D02*
D03*
Y357230D02*
D03*
Y352230D02*
D03*
Y347230D02*
D03*
Y342230D02*
D03*
X331198D02*
D03*
Y347230D02*
D03*
Y352230D02*
D03*
Y367230D02*
D03*
Y372230D02*
D03*
Y377230D02*
D03*
Y382230D02*
D03*
Y387230D02*
D03*
Y392230D02*
D03*
Y397230D02*
D03*
Y402230D02*
D03*
Y407230D02*
D03*
Y412230D02*
D03*
Y417230D02*
D03*
D19*
X548760Y434340D02*
D03*
Y408940D02*
D03*
Y383540D02*
D03*
Y358140D02*
D03*
Y332740D02*
D03*
Y307340D02*
D03*
Y281940D02*
D03*
Y256540D02*
D03*
Y231140D02*
D03*
Y205740D02*
D03*
X77230Y430530D02*
D03*
Y405130D02*
D03*
Y354330D02*
D03*
Y379730D02*
D03*
Y328930D02*
D03*
Y278130D02*
D03*
Y303530D02*
D03*
Y252730D02*
D03*
Y201930D02*
D03*
Y227330D02*
D03*
X563760Y408940D02*
D03*
X285756Y411734D02*
D03*
X270756D02*
D03*
X62230Y430530D02*
D03*
Y328930D02*
D03*
Y201930D02*
D03*
Y405130D02*
D03*
Y227330D02*
D03*
Y303530D02*
D03*
Y354330D02*
D03*
Y252730D02*
D03*
Y278130D02*
D03*
Y379730D02*
D03*
X563760Y434340D02*
D03*
Y383540D02*
D03*
Y358140D02*
D03*
Y332740D02*
D03*
Y307340D02*
D03*
Y281940D02*
D03*
Y256540D02*
D03*
Y231140D02*
D03*
Y205740D02*
D03*
D20*
X424698Y323730D02*
D03*
X359698D02*
D03*
X349698Y435730D02*
D03*
X354698D02*
D03*
X419698Y323730D02*
D03*
X354698D02*
D03*
X424698Y435730D02*
D03*
X359698D02*
D03*
X364698D02*
D03*
X369698D02*
D03*
X374698D02*
D03*
X379698D02*
D03*
X384698D02*
D03*
X389698D02*
D03*
X394698D02*
D03*
X399698D02*
D03*
X404698D02*
D03*
X409698D02*
D03*
X414698D02*
D03*
X419698D02*
D03*
X414698Y323730D02*
D03*
X409698D02*
D03*
X404698D02*
D03*
X399698D02*
D03*
X394698D02*
D03*
X389698D02*
D03*
X384698D02*
D03*
X379698D02*
D03*
X374698D02*
D03*
X369698D02*
D03*
X364698D02*
D03*
X349698D02*
D03*
D21*
X159480Y512788D02*
D03*
D22*
X82430Y521788D02*
D03*
X70492Y535788D02*
D03*
X82430D02*
D03*
X58554D02*
D03*
Y521788D02*
D03*
X70492D02*
D03*
D23*
X101480Y512788D02*
D03*
Y535788D02*
D03*
Y489788D02*
D03*
D24*
X279756Y400050D02*
D03*
X279756Y355600D02*
D03*
X288756D02*
D03*
X270756Y400050D02*
D03*
D25*
X288756Y389960D02*
D03*
X270756Y366960D02*
D03*
Y389960D02*
D03*
X288756Y366960D02*
D03*
D26*
X199270Y527264D02*
D03*
Y536264D02*
D03*
D37*
X30360Y518534D02*
D03*
D38*
Y538534D02*
D03*
D41*
X348300Y509270D02*
D03*
D42*
X388300D02*
D03*
X368300D02*
D03*
D43*
X156082Y344890D02*
D03*
Y389890D02*
D03*
X221082D02*
D03*
D45*
Y344890D02*
D03*
D50*
X296511Y283134D02*
X345966D01*
X365075Y302242D01*
X317390Y278613D02*
X347839D01*
X369596Y300369D01*
Y300844D01*
X369698Y300946D01*
X365075Y302242D02*
Y308297D01*
X369698Y300946D02*
Y323730D01*
X346558Y270358D02*
X374698Y298498D01*
Y323730D01*
X338734Y266430D02*
X342663Y270358D01*
X342900Y287655D02*
X349698Y294453D01*
X275632Y287655D02*
X342900D01*
X341027Y292176D02*
X345176Y296324D01*
Y326390D01*
X342663Y270358D02*
X346558D01*
X349698Y294453D02*
Y323730D01*
X254753Y292176D02*
X341027D01*
X462986Y407793D02*
X463550D01*
X462424Y407230D02*
X462986Y407793D01*
X443198Y407230D02*
X462424D01*
X349699Y453483D02*
X349860Y453644D01*
X349699Y435731D02*
Y453483D01*
X463815Y417230D02*
X463906Y417322D01*
X443199Y417230D02*
X463815D01*
X443198Y417230D02*
X443199Y417230D01*
X359698Y323730D02*
X359698Y323730D01*
X424698Y306796D02*
Y323730D01*
X423520Y305618D02*
X424698Y306796D01*
X423520Y305054D02*
Y305618D01*
X359698Y304732D02*
Y323730D01*
X359512Y304546D02*
X359698Y304732D01*
X349698Y435730D02*
X349699Y435731D01*
X321720Y357707D02*
X322197Y357230D01*
X331198D01*
X315956Y357707D02*
X321720D01*
X313970Y359694D02*
X315956Y357707D01*
X427374Y412230D02*
X443198D01*
X424084Y408940D02*
X427374Y412230D01*
X354699Y425334D02*
Y435729D01*
Y425334D02*
X364234Y415798D01*
X354698Y435730D02*
X354699Y435729D01*
X423520Y408940D02*
X424084D01*
X364234Y415798D02*
X364338D01*
X355860Y367030D02*
X356210D01*
X355702Y345892D02*
Y346456D01*
X351060Y362230D02*
X355860Y367030D01*
X418948Y345130D02*
Y345694D01*
Y345130D02*
X419698Y344380D01*
Y323730D02*
Y344380D01*
X354698Y344888D02*
X355702Y345892D01*
X354698Y323730D02*
Y344888D01*
X279756Y399800D02*
Y400050D01*
X297392Y396857D02*
X297790Y397256D01*
X294654Y396857D02*
X297392D01*
X288756Y390960D02*
X294654Y396857D01*
X288756Y389960D02*
Y390960D01*
X331198Y362230D02*
X351060D01*
X284755Y386959D02*
X288756Y390960D01*
X284755Y381959D02*
Y386959D01*
X280917Y398799D02*
X288756Y390960D01*
X279756Y399800D02*
X280757Y398799D01*
X280917D01*
X270756Y367960D02*
X284755Y381959D01*
X270756Y367960D02*
X274757Y363959D01*
X267310Y363514D02*
X270756Y366960D01*
X274757Y360849D02*
Y363959D01*
X268890Y355600D02*
X279756D01*
X267874Y354584D02*
X268890Y355600D01*
X267310Y354584D02*
X267874D01*
X267310D02*
Y363514D01*
X435353Y444500D02*
X435610D01*
X424699Y445283D02*
X426455Y447040D01*
X424699Y435731D02*
Y445283D01*
X426455Y447040D02*
X432813D01*
X424698Y435730D02*
X424699Y435731D01*
X432813Y447040D02*
X435353Y444500D01*
X443198Y402230D02*
X542195D01*
X493319Y451561D02*
X519430Y425450D01*
X424582Y451561D02*
X493319D01*
X419699Y446677D02*
X424582Y451561D01*
X419699Y435731D02*
Y446677D01*
X75683Y238277D02*
X168515D01*
X253919Y310893D02*
X284318D01*
X240847Y317003D02*
Y344980D01*
X252047Y315415D02*
X264123D01*
X275544Y345306D02*
X294015D01*
X236326Y318876D02*
Y391222D01*
X204470Y287020D02*
X236326Y318876D01*
X95486Y214020D02*
X150652D01*
X76470Y262890D02*
X186734D01*
X186690Y243664D02*
X253919Y310893D01*
X168515Y238277D02*
X275544Y345306D01*
X77740Y287020D02*
X204470D01*
X186690Y218440D02*
Y243664D01*
X150652Y214020D02*
X252047Y315415D01*
X186734Y262890D02*
X240847Y317003D01*
X231805Y323245D02*
Y393095D01*
X76470Y313690D02*
X222250D01*
X231805Y323245D01*
X75683Y390677D02*
X124021D01*
X120650Y380912D02*
X192569Y452831D01*
X120650Y370840D02*
Y380912D01*
X124021Y390677D02*
X194394Y461050D01*
X189230Y462280D02*
Y478790D01*
X196432Y455785D02*
X196995D01*
X192569Y452831D02*
X193478D01*
X127000Y351790D02*
Y380868D01*
X194442Y448310D02*
X208280D01*
X194394Y461050D02*
Y465691D01*
X143027Y416077D02*
X189230Y462280D01*
X193478Y452831D02*
X196432Y455785D01*
X194394Y465691D02*
X194793Y466090D01*
X75683Y416077D02*
X143027D01*
X127000Y380868D02*
X194442Y448310D01*
X299370Y472047D02*
X315004Y487680D01*
X249538Y467525D02*
X301243D01*
X304989Y458483D02*
X310234Y463728D01*
X312106Y459207D02*
X352164D01*
X251411Y463004D02*
X303116D01*
X310684Y470573D01*
X253284Y458483D02*
X304989D01*
X315004Y487680D02*
X323850D01*
X301243Y467525D02*
X312508Y478790D01*
X245793Y476568D02*
X297498D01*
X310684Y470573D02*
X375822D01*
X310234Y463728D02*
X354037D01*
X297498Y476568D02*
X321310Y500380D01*
X247665Y472047D02*
X299370D01*
X312508Y478790D02*
X334010D01*
X306861Y453962D02*
X312106Y459207D01*
X255156Y453962D02*
X306861D01*
X241665Y472440D02*
X245793Y476568D01*
X214507Y468507D02*
X214905Y468108D01*
X218440Y472440D02*
X241665D01*
X241656Y446855D02*
X253284Y458483D01*
X216378Y468108D02*
X216567Y467919D01*
X243538D02*
X247665Y472047D01*
X241753Y459740D02*
X249538Y467525D01*
X216567Y467919D02*
X243538D01*
X241797Y453390D02*
X251411Y463004D01*
X209550Y481330D02*
X218440Y472440D01*
X214905Y468108D02*
X216378D01*
X248218Y403114D02*
Y447024D01*
X241656Y402946D02*
Y446855D01*
X354037Y463728D02*
X364698Y453066D01*
X252739Y401242D02*
Y445151D01*
X224790Y459740D02*
X241753D01*
X232410Y453390D02*
X241797D01*
X257029Y449440D02*
X314383D01*
X344721Y419103D01*
X248218Y447024D02*
X255156Y453962D01*
X252739Y445151D02*
X257029Y449440D01*
X374698Y455319D02*
X377593Y458214D01*
Y468802D01*
X374698Y435730D02*
Y455319D01*
X461242Y293094D02*
X478790Y275546D01*
X456721Y291221D02*
Y344103D01*
X468630Y210820D02*
Y272918D01*
X461493Y241783D02*
Y273662D01*
X456721Y291221D02*
X473151Y274791D01*
X461242Y293094D02*
Y345976D01*
X486813Y273917D02*
X556737D01*
X446864Y288290D02*
X461493Y273662D01*
X473151Y236779D02*
Y274791D01*
X450700Y290849D02*
Y342229D01*
X478790Y261620D02*
Y275546D01*
X466090Y294640D02*
Y351716D01*
Y294640D02*
X486813Y273917D01*
X450700Y290849D02*
X468630Y272918D01*
X432417Y288290D02*
X446864D01*
X500632Y347980D02*
X554600D01*
X443199Y392229D02*
X456382D01*
X443198Y392230D02*
X443199Y392229D01*
X456382D02*
X500632Y347980D01*
X476610Y365608D02*
X476961Y365257D01*
X454988Y387229D02*
X476610Y365608D01*
X443199Y387229D02*
X454988D01*
X458253Y396753D02*
X480356Y374650D01*
X555870D01*
X452676Y396753D02*
X458253D01*
X443198Y387230D02*
X443199Y387229D01*
X476961Y337109D02*
Y365257D01*
X443199Y382229D02*
X453595D01*
X472440Y363384D01*
Y311150D02*
Y363384D01*
X443198Y397230D02*
X452199D01*
X452676Y396753D01*
X558190Y400917D02*
X561259Y403986D01*
X542195Y402230D02*
X543508Y400917D01*
X558190D01*
X561259Y403986D02*
Y406439D01*
X563760Y408940D01*
X476961Y337109D02*
X490220Y323850D01*
X555870D01*
X485140Y298450D02*
X555870D01*
X472440Y311150D02*
X485140Y298450D01*
X499182Y241228D02*
X549448D01*
X478790Y261620D02*
X499182Y241228D01*
X488950Y220980D02*
X554600D01*
X473151Y236779D02*
X488950Y220980D01*
X549448Y241228D02*
X563760Y255540D01*
X556737Y273917D02*
X563760Y280940D01*
X460576Y357230D02*
X466090Y351716D01*
X461010Y346208D02*
Y350402D01*
Y346208D02*
X461242Y345976D01*
X443198Y347230D02*
X443199Y347229D01*
X459182Y352230D02*
X461010Y350402D01*
X453595Y347229D02*
X456721Y344103D01*
X443199Y347229D02*
X453595D01*
X468630Y210820D02*
X481733Y197717D01*
X556737D01*
X563760Y204740D01*
X115087Y339877D02*
X127000Y351790D01*
X115087Y365277D02*
X120650Y370840D01*
X73930Y214630D02*
X94876D01*
X62230Y226330D02*
X73930Y214630D01*
X94876D02*
X95486Y214020D01*
X264123Y315415D02*
X289494Y340785D01*
X155677Y187427D02*
X186690Y218440D01*
X75683Y365277D02*
X115087D01*
X75683Y339877D02*
X115087D01*
X62230Y429530D02*
X75683Y416077D01*
X62230Y404130D02*
X75683Y390677D01*
X62230Y378730D02*
X75683Y365277D01*
X62230Y353330D02*
X75683Y339877D01*
X62230Y327930D02*
X76470Y313690D01*
X62230Y302530D02*
X77740Y287020D01*
X62230Y277130D02*
X76470Y262890D01*
X62230Y251730D02*
X75683Y238277D01*
X62230Y200930D02*
X75683Y187477D01*
X113817D01*
X114300Y187960D01*
X563760Y433340D02*
Y434340D01*
X555870Y425450D02*
X563760Y433340D01*
X519430Y425450D02*
X555870D01*
X563760Y382540D02*
Y383540D01*
X555870Y374650D02*
X563760Y382540D01*
Y357140D02*
Y358140D01*
X554600Y347980D02*
X563760Y357140D01*
Y331740D02*
Y332740D01*
X555870Y323850D02*
X563760Y331740D01*
Y306340D02*
Y307340D01*
X555870Y298450D02*
X563760Y306340D01*
Y280940D02*
Y281940D01*
Y255540D02*
Y256540D01*
Y230140D02*
Y231140D01*
X554600Y220980D02*
X563760Y230140D01*
Y204740D02*
Y205740D01*
X421640Y231260D02*
X421640Y231260D01*
X397240D02*
X399741Y233761D01*
X404263Y238642D02*
Y246783D01*
X399741Y233761D02*
Y234121D01*
X404263Y238642D01*
Y246783D02*
X410693Y253213D01*
Y282160D01*
X424141Y233761D02*
X426136D01*
X429663Y237288D02*
Y246392D01*
X421640Y231260D02*
X424141Y233761D01*
X426136D02*
X429663Y237288D01*
Y246392D02*
X436093Y252823D01*
Y271960D01*
X383540Y242960D02*
Y250190D01*
X371840Y231260D02*
X383540Y242960D01*
X354330Y239150D02*
Y246380D01*
X346440Y231260D02*
X354330Y239150D01*
X303530Y243840D02*
X306042Y246352D01*
X303530Y239150D02*
Y243840D01*
X306042Y246352D02*
X306042D01*
X313334Y253644D01*
X328930Y239150D02*
Y245110D01*
X321040Y231260D02*
X328930Y239150D01*
X295640Y231260D02*
X303530Y239150D01*
X278130D02*
Y243840D01*
X270240Y231260D02*
X278130Y239150D01*
X254000Y240420D02*
Y243840D01*
X244840Y231260D02*
X254000Y240420D01*
X219440Y231260D02*
X226695Y238515D01*
Y243205D01*
X447040Y231260D02*
X449541Y233761D01*
X453471D01*
X461493Y241783D01*
X419698Y435730D02*
X419699Y435731D01*
X408940Y469027D02*
Y500380D01*
X389699Y449785D02*
X408940Y469027D01*
X389699Y435731D02*
Y449785D01*
X389698Y435730D02*
X389699Y435731D01*
X401320Y467801D02*
Y487680D01*
X384698Y451179D02*
X401320Y467801D01*
X384698Y435730D02*
Y451179D01*
X386080Y458955D02*
Y467360D01*
X379698Y452573D02*
X386080Y458955D01*
X379698Y435730D02*
Y452573D01*
X375822Y470573D02*
X377593Y468802D01*
X231805Y393095D02*
X241656Y402946D01*
X245368Y379830D02*
Y393870D01*
X236326Y391222D02*
X248218Y403114D01*
X245368Y393870D02*
X252739Y401242D01*
X243531Y377994D02*
X245368Y379830D01*
X243531Y347665D02*
Y377994D01*
X368300Y479820D02*
X369570Y478550D01*
X443198Y382230D02*
X443199Y382229D01*
X443198Y357230D02*
X460576D01*
X443198Y352230D02*
X459182D01*
X450698Y342230D02*
X450700Y342229D01*
X443198Y342230D02*
X450698D01*
X369570Y463550D02*
X369698Y463422D01*
Y435730D02*
Y463422D01*
X270420Y349827D02*
X292142D01*
X265006Y349021D02*
X269614D01*
X270420Y349827D01*
X261747Y352280D02*
Y358722D01*
X262234Y359208D01*
X261747Y352280D02*
X265006Y349021D01*
X262234Y382208D02*
X264740Y379701D01*
X262234Y382208D02*
Y416486D01*
X265504Y419757D02*
X278733D01*
X262234Y374712D02*
X264740Y377219D01*
Y379701D01*
X278733Y419757D02*
X285756Y412734D01*
X262234Y416486D02*
X265504Y419757D01*
X285756Y411734D02*
Y412734D01*
X299060Y368716D02*
Y377595D01*
X301800Y380335D02*
Y392376D01*
X297304Y366960D02*
X299060Y368716D01*
X292142Y349827D02*
X303886Y361572D01*
X288756Y366960D02*
X297304D01*
X303886Y376027D02*
X306321Y378462D01*
X299060Y377595D02*
X301800Y380335D01*
X303886Y361572D02*
Y376027D01*
X306321Y378462D02*
Y389531D01*
X309020Y392230D01*
X331198D01*
X262234Y359208D02*
Y374712D01*
X312014Y381000D02*
X318244Y387229D01*
X331198D01*
X331198Y387230D01*
X306680Y411226D02*
Y436118D01*
X310676Y407230D02*
X331198D01*
X306680Y411226D02*
X310676Y407230D01*
X300330Y410972D02*
Y435819D01*
X309072Y402230D02*
X331198D01*
X300330Y410972D02*
X309072Y402230D01*
X260062Y430118D02*
X267541Y437597D01*
X298552D01*
X300330Y435819D01*
X331198Y402230D02*
X331198Y402230D01*
X331198Y407230D02*
X331198Y407230D01*
X300680Y442118D02*
X306680Y436118D01*
X260062Y442118D02*
X300680D01*
X301800Y392376D02*
X306654Y397230D01*
X331198D01*
X364698Y435730D02*
Y453066D01*
X240847Y344980D02*
X243531Y347665D01*
X352164Y459207D02*
X359698Y451673D01*
Y435730D02*
Y451673D01*
X307332Y352230D02*
X331198D01*
X284318Y310893D02*
X320654Y347229D01*
X289494Y340785D02*
X295887D01*
X307332Y352230D01*
X294015Y345306D02*
X308407Y359699D01*
X320654Y347229D02*
X331198D01*
X237134Y253644D02*
Y274557D01*
X254753Y292176D01*
X344721Y385357D02*
Y419103D01*
X341595Y382230D02*
X344721Y385357D01*
X331199Y382230D02*
X341595D01*
X331198Y382230D02*
X331199Y382230D01*
X308407Y364835D02*
X320802Y377229D01*
X331198D01*
X308407Y359699D02*
Y364835D01*
X331198Y377229D02*
X331198Y377230D01*
X114833Y187427D02*
X155677D01*
X114300Y187960D02*
X114833Y187427D01*
X313334Y253644D02*
Y274557D01*
X317390Y278613D01*
X399698Y293155D02*
X410693Y282160D01*
X399698Y293155D02*
Y323730D01*
X261217Y273241D02*
X275632Y287655D01*
X261217Y251057D02*
Y273241D01*
X254000Y243840D02*
X261217Y251057D01*
X331198Y347229D02*
X331198Y347230D01*
X404698Y303355D02*
Y323730D01*
Y303355D02*
X436093Y271960D01*
X409699Y311009D02*
X432417Y288290D01*
X409699Y311009D02*
Y323730D01*
X409698Y323730D02*
X409699Y323730D01*
X338734Y254914D02*
Y266430D01*
X328930Y245110D02*
X338734Y254914D01*
X287320Y273944D02*
X296511Y283134D01*
X278130Y243840D02*
X287320Y253030D01*
Y273944D01*
X364698Y308674D02*
X365075Y308297D01*
X364698Y308674D02*
Y323730D01*
X383540Y250190D02*
X389119Y255769D01*
Y274142D01*
X394698Y279721D01*
Y323730D01*
X338699Y332866D02*
Y342229D01*
X338698Y342230D02*
X338699Y342229D01*
X331198Y342230D02*
X338698D01*
X338699Y332866D02*
X345176Y326390D01*
X226695Y243205D02*
X237134Y253644D01*
X364134Y256184D02*
Y274557D01*
X379698Y290121D01*
Y323730D01*
X354330Y246380D02*
X364134Y256184D01*
D51*
X444500Y459740D02*
Y519803D01*
X481846Y557148D01*
X488568D02*
X490220Y558800D01*
X481846Y557148D02*
X488568D01*
X525780Y434340D02*
X548760D01*
X519430Y440690D02*
X525780Y434340D01*
X519430Y415290D02*
X525780Y408940D01*
X515620Y539750D02*
X521970Y533400D01*
X515620Y539750D02*
Y558800D01*
X525780Y358140D02*
X548760D01*
X525780Y408940D02*
X548760D01*
X525780Y383540D02*
X548760D01*
X525780Y332740D02*
X548760D01*
X519430Y389890D02*
X525780Y383540D01*
X519430Y364490D02*
X525780Y358140D01*
X519430Y339090D02*
X525780Y332740D01*
Y307340D02*
X548760D01*
X525780Y281940D02*
X548760D01*
X525780Y256540D02*
X548760D01*
X519430Y262890D02*
X525780Y256540D01*
X519430Y313690D02*
X525780Y307340D01*
X519430Y288290D02*
X525780Y281940D01*
X548443Y229823D02*
X548760Y230140D01*
Y231140D01*
X538513Y229823D02*
X548443D01*
X536609Y227919D02*
X538513Y229823D01*
X529001Y227919D02*
X536609D01*
X522397Y234523D02*
X529001Y227919D01*
X519430Y212090D02*
X525780Y205740D01*
X548760D01*
X447040Y271780D02*
X448310Y273050D01*
X396240Y246260D02*
Y271780D01*
X447040Y246260D02*
Y271780D01*
X421640Y246260D02*
Y271780D01*
X370840Y246260D02*
Y271780D01*
X348300Y486090D02*
X354330Y480060D01*
X348300Y486090D02*
Y509270D01*
X163795Y552544D02*
X184030D01*
X183524Y512788D02*
X183776Y513040D01*
X159480Y512788D02*
X183524D01*
X159480Y548229D02*
X163795Y552544D01*
X95480Y512788D02*
X101480D01*
X159480D02*
Y548229D01*
X101480Y512788D02*
X159480D01*
X82430Y521788D02*
X86480D01*
X95480Y512788D01*
X77230Y430530D02*
X109220D01*
X104817Y401320D02*
X113030D01*
X109220Y430530D02*
X113030Y426720D01*
X101007Y405130D02*
X104817Y401320D01*
X109220Y379730D02*
X113030Y375920D01*
X77230Y405130D02*
X101007D01*
X77230Y379730D02*
X109220D01*
X77230Y354330D02*
X107357D01*
X320040Y246260D02*
Y271780D01*
X269240Y246260D02*
Y271780D01*
X294640Y246260D02*
Y271780D01*
X243840Y246260D02*
Y271780D01*
X345440Y246260D02*
Y263652D01*
X218440Y246260D02*
Y265931D01*
X111167Y325120D02*
X113030D01*
X111167Y350520D02*
X113030D01*
X107357Y328930D02*
X111167Y325120D01*
X109220Y303530D02*
X113030Y299720D01*
X107357Y354330D02*
X111167Y350520D01*
X77230Y328930D02*
X107357D01*
X77230Y303530D02*
X109220D01*
Y252730D02*
X113030Y248920D01*
X109220Y278130D02*
X113030Y274320D01*
X109220Y227330D02*
X113030Y223520D01*
X109220Y201930D02*
X113030Y198120D01*
X77230Y201930D02*
X109220D01*
X77230Y278130D02*
X109220D01*
X77230Y252730D02*
X109220D01*
X77230Y227330D02*
X109220D01*
X420370Y539750D02*
X439420Y558800D01*
X420370Y533400D02*
Y539750D01*
X199270Y472787D02*
X234950Y437107D01*
Y435610D02*
Y437107D01*
X108797Y543105D02*
X116324Y550632D01*
X108797Y537105D02*
Y543105D01*
X70492Y535788D02*
X82430D01*
X107480D02*
X108797Y537105D01*
X48501Y537332D02*
X50045Y535788D01*
X58554D01*
X30360Y538534D02*
X31562Y537332D01*
X48501D01*
X58554Y535788D02*
X70492D01*
X199270Y472787D02*
Y527264D01*
X82430Y535788D02*
X107480D01*
X431800Y525780D02*
X464820Y558800D01*
X431800Y459740D02*
Y525780D01*
X27940Y430530D02*
X62230D01*
X27940Y405130D02*
X62230D01*
X27940Y379730D02*
X62230D01*
X27940Y354330D02*
X62230D01*
X27940Y328930D02*
X62230D01*
X27940Y303530D02*
X62230D01*
X27940Y278130D02*
X62230D01*
X27940Y252730D02*
X62230D01*
X27940Y227330D02*
X62230D01*
X27940Y201930D02*
X62230D01*
X563760Y434340D02*
X593090D01*
X563760Y408940D02*
X593090D01*
X563760Y383540D02*
X593090D01*
X563760Y358140D02*
X593090D01*
X563760Y332740D02*
X593090D01*
X563760Y307340D02*
X593090D01*
X563760Y281940D02*
X593090D01*
X563760Y256540D02*
X593090D01*
X563760Y231140D02*
X593090D01*
X563760Y205740D02*
X593090D01*
X218440Y199390D02*
Y231260D01*
X243840Y199390D02*
Y231260D01*
X269240Y199390D02*
Y231260D01*
X294640Y199390D02*
Y231260D01*
X320040Y199390D02*
Y231260D01*
X345440Y199390D02*
Y231260D01*
X370840Y199390D02*
Y231260D01*
X396240Y199390D02*
Y231260D01*
X421640Y199390D02*
Y231260D01*
X447040Y199390D02*
Y231260D01*
X184030Y537544D02*
X184347Y537227D01*
X198307D01*
X199270Y536264D01*
X30360Y518534D02*
X55300D01*
X58554Y521788D01*
X70492D01*
X69730Y521026D02*
X70492Y521788D01*
X69730Y500594D02*
Y521026D01*
X80536Y489788D02*
X101480D01*
X69730Y500594D02*
X80536Y489788D01*
D52*
X368300Y479820D02*
Y509270D01*
D53*
X270756Y400050D02*
Y411734D01*
Y389960D02*
Y400050D01*
X288756Y355600D02*
Y366960D01*
D54*
X490220Y558800D02*
D03*
X464820D02*
D03*
X439420D02*
D03*
D55*
X515620D02*
D03*
D56*
X260062Y430118D02*
D03*
Y442118D02*
D03*
D57*
X370840Y199390D02*
D03*
X27940Y328930D02*
D03*
Y201930D02*
D03*
Y252730D02*
D03*
Y303530D02*
D03*
Y405130D02*
D03*
Y227330D02*
D03*
Y354330D02*
D03*
Y278130D02*
D03*
Y379730D02*
D03*
X421640Y199390D02*
D03*
X396240D02*
D03*
X345440D02*
D03*
X320040D02*
D03*
X294640D02*
D03*
X269240D02*
D03*
X243840D02*
D03*
X218440D02*
D03*
X593090Y231140D02*
D03*
Y256540D02*
D03*
Y281940D02*
D03*
Y307340D02*
D03*
Y332740D02*
D03*
Y358140D02*
D03*
Y383540D02*
D03*
Y408940D02*
D03*
Y434340D02*
D03*
D58*
X27940Y430530D02*
D03*
X593090Y205740D02*
D03*
D59*
X447040Y199390D02*
D03*
D60*
X533717Y265747D02*
D03*
X463550Y407793D02*
D03*
X444500Y459740D02*
D03*
X521970Y533400D02*
D03*
X519430Y415290D02*
D03*
Y440690D02*
D03*
X463906Y417322D02*
D03*
Y435102D02*
D03*
X519430Y364490D02*
D03*
Y389890D02*
D03*
Y339090D02*
D03*
X463906Y424688D02*
D03*
X519430Y288290D02*
D03*
Y313690D02*
D03*
Y262890D02*
D03*
X448310Y273050D02*
D03*
X522397Y234523D02*
D03*
X519430Y212090D02*
D03*
X423520Y305054D02*
D03*
X359512Y304546D02*
D03*
X422910Y273050D02*
D03*
X372110D02*
D03*
X397510D02*
D03*
X354330Y480060D02*
D03*
X349860Y453644D02*
D03*
X183776Y513040D02*
D03*
X340716Y453644D02*
D03*
X313970Y359694D02*
D03*
X113030Y426720D02*
D03*
Y401320D02*
D03*
Y375920D02*
D03*
X321310Y273050D02*
D03*
X312014Y346456D02*
D03*
X270510Y273050D02*
D03*
X295910D02*
D03*
X245110D02*
D03*
X345440Y263652D02*
D03*
X218440Y265931D02*
D03*
X113030Y248920D02*
D03*
Y198120D02*
D03*
Y223520D02*
D03*
Y350520D02*
D03*
Y325120D02*
D03*
Y299720D02*
D03*
Y274320D02*
D03*
X533400Y443230D02*
D03*
Y417830D02*
D03*
Y367030D02*
D03*
Y392430D02*
D03*
X423520Y408940D02*
D03*
X420370Y533400D02*
D03*
X384810Y480060D02*
D03*
X364338Y415798D02*
D03*
X356210Y367030D02*
D03*
X533400Y290830D02*
D03*
Y341630D02*
D03*
Y316230D02*
D03*
X455930Y262890D02*
D03*
X430530D02*
D03*
X533400Y214630D02*
D03*
Y235666D02*
D03*
X418948Y345694D02*
D03*
X355702Y346456D02*
D03*
X405130Y262890D02*
D03*
X379730D02*
D03*
X354330D02*
D03*
X297790Y397256D02*
D03*
X234950Y435610D02*
D03*
X116720Y550632D02*
D03*
X97790Y421640D02*
D03*
Y396240D02*
D03*
Y370840D02*
D03*
X303530Y262890D02*
D03*
X328930D02*
D03*
X278130D02*
D03*
X267310Y354584D02*
D03*
X227330Y262890D02*
D03*
X252730D02*
D03*
X97790Y193040D02*
D03*
Y345440D02*
D03*
Y320040D02*
D03*
Y294640D02*
D03*
Y269240D02*
D03*
Y243840D02*
D03*
Y219583D02*
D03*
X431800Y459740D02*
D03*
X435610Y444500D02*
D03*
X196995Y455785D02*
D03*
X194793Y466090D02*
D03*
X214507Y468507D02*
D03*
X224790Y459740D02*
D03*
X208280Y448310D02*
D03*
X189230Y478790D02*
D03*
X209550Y481330D02*
D03*
X321310Y500380D02*
D03*
X408940D02*
D03*
X323850Y487680D02*
D03*
X401320D02*
D03*
X334010Y478790D02*
D03*
X386080Y467360D02*
D03*
X232410Y453390D02*
D03*
X312014Y381000D02*
D03*
M02*
