G04*
G04 #@! TF.GenerationSoftware,Altium Limited,Altium Designer,25.7.1 (20)*
G04*
G04 Layer_Color=255*
%FSLAX44Y44*%
%MOMM*%
G71*
G04*
G04 #@! TF.SameCoordinates,711889C3-5294-40D1-B7F6-5CF0684BB26A*
G04*
G04*
G04 #@! TF.FilePolarity,Positive*
G04*
G01*
G75*
%ADD17R,1.0000X0.8000*%
%ADD19R,0.8000X1.0000*%
G04:AMPARAMS|DCode=22|XSize=0.76mm|YSize=0.6604mm|CornerRadius=0.0825mm|HoleSize=0mm|Usage=FLASHONLY|Rotation=0.000|XOffset=0mm|YOffset=0mm|HoleType=Round|Shape=RoundedRectangle|*
%AMROUNDEDRECTD22*
21,1,0.7600,0.4953,0,0,0.0*
21,1,0.5949,0.6604,0,0,0.0*
1,1,0.1651,0.2975,-0.2477*
1,1,0.1651,-0.2975,-0.2477*
1,1,0.1651,-0.2975,0.2477*
1,1,0.1651,0.2975,0.2477*
%
%ADD22ROUNDEDRECTD22*%
%ADD37R,1.3900X1.3900*%
%ADD38C,1.3900*%
%ADD41R,1.3000X1.3000*%
%ADD42C,1.3000*%
%ADD43C,1.5400*%
%ADD45R,1.5400X1.5400*%
%ADD54C,1.6000*%
G04:AMPARAMS|DCode=55|XSize=1.6mm|YSize=1.6mm|CornerRadius=0.4mm|HoleSize=0mm|Usage=FLASHONLY|Rotation=180.000|XOffset=0mm|YOffset=0mm|HoleType=Round|Shape=RoundedRectangle|*
%AMROUNDEDRECTD55*
21,1,1.6000,0.8000,0,0,180.0*
21,1,0.8000,1.6000,0,0,180.0*
1,1,0.8000,-0.4000,0.4000*
1,1,0.8000,0.4000,0.4000*
1,1,0.8000,0.4000,-0.4000*
1,1,0.8000,-0.4000,-0.4000*
%
%ADD55ROUNDEDRECTD55*%
%ADD56C,0.8600*%
%ADD57C,1.4000*%
%ADD58R,1.4000X1.4000*%
%ADD59R,1.4000X1.4000*%
G04:AMPARAMS|DCode=69|XSize=0.76mm|YSize=0.6604mm|CornerRadius=0.0825mm|HoleSize=0mm|Usage=FLASHONLY|Rotation=90.000|XOffset=0mm|YOffset=0mm|HoleType=Round|Shape=RoundedRectangle|*
%AMROUNDEDRECTD69*
21,1,0.7600,0.4953,0,0,90.0*
21,1,0.5949,0.6604,0,0,90.0*
1,1,0.1651,0.2477,0.2975*
1,1,0.1651,0.2477,-0.2975*
1,1,0.1651,-0.2477,-0.2975*
1,1,0.1651,-0.2477,0.2975*
%
%ADD69ROUNDEDRECTD69*%
G04:AMPARAMS|DCode=70|XSize=0.55mm|YSize=0.5mm|CornerRadius=0.0625mm|HoleSize=0mm|Usage=FLASHONLY|Rotation=180.000|XOffset=0mm|YOffset=0mm|HoleType=Round|Shape=RoundedRectangle|*
%AMROUNDEDRECTD70*
21,1,0.5500,0.3750,0,0,180.0*
21,1,0.4250,0.5000,0,0,180.0*
1,1,0.1250,-0.2125,0.1875*
1,1,0.1250,0.2125,0.1875*
1,1,0.1250,0.2125,-0.1875*
1,1,0.1250,-0.2125,-0.1875*
%
%ADD70ROUNDEDRECTD70*%
D17*
X447040Y246260D02*
D03*
X421640D02*
D03*
X396240Y246260D02*
D03*
X370840D02*
D03*
X345440D02*
D03*
X320040D02*
D03*
X294640D02*
D03*
X218440D02*
D03*
X243840D02*
D03*
X269240D02*
D03*
X421640Y231260D02*
D03*
X370840Y231260D02*
D03*
X218440D02*
D03*
X243840D02*
D03*
X269240D02*
D03*
X294640D02*
D03*
X320040D02*
D03*
X345440D02*
D03*
X396240D02*
D03*
X447040Y231260D02*
D03*
D19*
X548760Y434340D02*
D03*
Y408940D02*
D03*
Y383540D02*
D03*
Y358140D02*
D03*
Y332740D02*
D03*
Y307340D02*
D03*
Y281940D02*
D03*
Y256540D02*
D03*
Y231140D02*
D03*
Y205740D02*
D03*
X77230Y430530D02*
D03*
Y405130D02*
D03*
Y379730D02*
D03*
Y354330D02*
D03*
Y328930D02*
D03*
Y278130D02*
D03*
Y303530D02*
D03*
Y227330D02*
D03*
Y252730D02*
D03*
Y201930D02*
D03*
X62230Y430530D02*
D03*
Y227330D02*
D03*
Y252730D02*
D03*
Y303530D02*
D03*
Y278130D02*
D03*
Y379730D02*
D03*
Y405130D02*
D03*
Y354330D02*
D03*
Y328930D02*
D03*
Y201930D02*
D03*
X563760Y434340D02*
D03*
Y408940D02*
D03*
Y383540D02*
D03*
Y358140D02*
D03*
Y332740D02*
D03*
Y307340D02*
D03*
Y281940D02*
D03*
Y256540D02*
D03*
Y231140D02*
D03*
Y205740D02*
D03*
D22*
X422758Y316850D02*
D03*
X357988Y316200D02*
D03*
X351638Y443260D02*
D03*
X340716D02*
D03*
Y429260D02*
D03*
X351638D02*
D03*
X422758Y330850D02*
D03*
X357988Y330200D02*
D03*
D37*
X30360Y518534D02*
D03*
D38*
Y538534D02*
D03*
D41*
X348300Y509270D02*
D03*
D42*
X388300D02*
D03*
X368300D02*
D03*
D43*
X156082Y344890D02*
D03*
Y389890D02*
D03*
X221082D02*
D03*
D45*
Y344890D02*
D03*
D54*
X490220Y558800D02*
D03*
X464820D02*
D03*
X439420D02*
D03*
D55*
X515620D02*
D03*
D56*
X260062Y430118D02*
D03*
Y442118D02*
D03*
D57*
X370840Y199390D02*
D03*
X27940Y328930D02*
D03*
Y201930D02*
D03*
Y252730D02*
D03*
Y303530D02*
D03*
Y405130D02*
D03*
Y227330D02*
D03*
Y354330D02*
D03*
Y278130D02*
D03*
Y379730D02*
D03*
X421640Y199390D02*
D03*
X396240D02*
D03*
X345440D02*
D03*
X320040D02*
D03*
X294640D02*
D03*
X269240D02*
D03*
X243840D02*
D03*
X218440D02*
D03*
X593090Y231140D02*
D03*
Y256540D02*
D03*
Y281940D02*
D03*
Y307340D02*
D03*
Y332740D02*
D03*
Y358140D02*
D03*
Y383540D02*
D03*
Y408940D02*
D03*
Y434340D02*
D03*
D58*
X27940Y430530D02*
D03*
X593090Y205740D02*
D03*
D59*
X447040Y199390D02*
D03*
D69*
X450586Y424688D02*
D03*
Y435356D02*
D03*
Y414020D02*
D03*
X324064Y358648D02*
D03*
Y346456D02*
D03*
X436586Y435356D02*
D03*
Y424688D02*
D03*
Y414020D02*
D03*
X338064Y384302D02*
D03*
Y358648D02*
D03*
Y346456D02*
D03*
X324064Y384302D02*
D03*
D70*
X251308Y450778D02*
D03*
X251308Y421118D02*
D03*
Y430118D02*
D03*
X251308Y441778D02*
D03*
M02*
