G04*
G04 #@! TF.GenerationSoftware,Altium Limited,Altium Designer,25.7.1 (20)*
G04*
G04 Layer_Color=32768*
%FSLAX44Y44*%
%MOMM*%
G71*
G04*
G04 #@! TF.SameCoordinates,711889C3-5294-40D1-B7F6-5CF0684BB26A*
G04*
G04*
G04 #@! TF.FilePolarity,Positive*
G04*
G01*
G75*
%ADD12C,0.2000*%
%ADD73C,0.1000*%
%ADD74C,0.0500*%
D12*
X9660Y507534D02*
Y549534D01*
X51060D01*
Y507534D02*
Y549534D01*
X9660Y507534D02*
X51060D01*
X147382Y399840D02*
X229782D01*
X147382Y334940D02*
Y399840D01*
Y334940D02*
X229782D01*
Y399840D01*
X336300Y497270D02*
Y521270D01*
Y497270D02*
X400300D01*
Y521270D01*
X336300D02*
X400300D01*
D73*
X447040Y234260D02*
Y243260D01*
X442540Y238760D02*
X451540D01*
X421640Y234260D02*
Y243260D01*
X417140Y238760D02*
X426140D01*
X396240Y234260D02*
Y243260D01*
X391740Y238760D02*
X400740D01*
X370840Y234260D02*
Y243260D01*
X366340Y238760D02*
X375340D01*
X345440Y234260D02*
Y243260D01*
X340940Y238760D02*
X349940D01*
X320040Y234260D02*
Y243260D01*
X315540Y238760D02*
X324540D01*
X294640Y234260D02*
Y243260D01*
X290140Y238760D02*
X299140D01*
X269240Y234260D02*
Y243260D01*
X264740Y238760D02*
X273740D01*
X243840Y234260D02*
Y243260D01*
X239340Y238760D02*
X248340D01*
X218440Y234260D02*
Y243260D01*
X213940Y238760D02*
X222940D01*
X551760Y408940D02*
X560760D01*
X556260Y404440D02*
Y413440D01*
X369570Y466550D02*
Y475550D01*
X365070Y471050D02*
X374070D01*
X273756Y411734D02*
X282756D01*
X278256Y407234D02*
Y416234D01*
X387198Y374730D02*
Y384730D01*
X382198Y379730D02*
X392198D01*
X65230Y430530D02*
X74230D01*
X69730Y426030D02*
Y435030D01*
X65230Y328930D02*
X74230D01*
X69730Y324430D02*
Y333430D01*
X65230Y201930D02*
X74230D01*
X69730Y197430D02*
Y206430D01*
X65230Y405130D02*
X74230D01*
X69730Y400630D02*
Y409630D01*
X65230Y227330D02*
X74230D01*
X69730Y222830D02*
Y231830D01*
X65230Y303530D02*
X74230D01*
X69730Y299030D02*
Y308030D01*
X65230Y354330D02*
X74230D01*
X69730Y349830D02*
Y358830D01*
X65230Y252730D02*
X74230D01*
X69730Y248230D02*
Y257230D01*
X65230Y278130D02*
X74230D01*
X69730Y273630D02*
Y282630D01*
X65230Y379730D02*
X74230D01*
X69730Y375230D02*
Y384230D01*
X551760Y434340D02*
X560760D01*
X556260Y429840D02*
Y438840D01*
X551760Y383540D02*
X560760D01*
X556260Y379040D02*
Y388040D01*
X551760Y358140D02*
X560760D01*
X556260Y353640D02*
Y362640D01*
X551760Y332740D02*
X560760D01*
X556260Y328240D02*
Y337240D01*
X551760Y307340D02*
X560760D01*
X556260Y302840D02*
Y311840D01*
X551760Y281940D02*
X560760D01*
X556260Y277440D02*
Y286440D01*
X551760Y256540D02*
X560760D01*
X556260Y252040D02*
Y261040D01*
X551760Y231140D02*
X560760D01*
X556260Y226640D02*
Y235640D01*
X551760Y205740D02*
X560760D01*
X556260Y201240D02*
Y210240D01*
X332740Y194390D02*
Y204390D01*
X327740Y199390D02*
X337740D01*
X198020Y531764D02*
X200520D01*
X199270Y530514D02*
Y533014D01*
X22940Y316230D02*
X32940D01*
X27940Y311230D02*
Y321230D01*
X588090Y320040D02*
X598090D01*
X593090Y315040D02*
Y325040D01*
X184030Y540544D02*
Y549544D01*
X179530Y545044D02*
X188530D01*
D74*
X273062Y436118D02*
G03*
X273062Y436118I-13000J0D01*
G01*
X437040Y255260D02*
X457040D01*
X437040Y222260D02*
X457040D01*
Y255260D01*
X437040Y222260D02*
Y255260D01*
X411640D02*
X431640D01*
X411640Y222260D02*
X431640D01*
Y255260D01*
X411640Y222260D02*
Y255260D01*
X386240Y255260D02*
X406240D01*
X386240Y222260D02*
X406240D01*
Y255260D01*
X386240Y222260D02*
Y255260D01*
X360840D02*
X380840D01*
X360840Y222260D02*
X380840D01*
Y255260D01*
X360840Y222260D02*
Y255260D01*
X335440D02*
X355440D01*
X335440Y222260D02*
X355440D01*
Y255260D01*
X335440Y222260D02*
Y255260D01*
X310040D02*
X330040D01*
X310040Y222260D02*
X330040D01*
Y255260D01*
X310040Y222260D02*
Y255260D01*
X284640D02*
X304640D01*
X284640Y222260D02*
X304640D01*
Y255260D01*
X284640Y222260D02*
Y255260D01*
X259240D02*
X279240D01*
X259240Y222260D02*
X279240D01*
Y255260D01*
X259240Y222260D02*
Y255260D01*
X233840D02*
X253840D01*
X233840Y222260D02*
X253840D01*
Y255260D01*
X233840Y222260D02*
Y255260D01*
X208440D02*
X228440D01*
X208440Y222260D02*
X228440D01*
Y255260D01*
X208440Y222260D02*
Y255260D01*
X531820Y543350D02*
Y574250D01*
X423220D02*
X531820D01*
X423220Y543350D02*
Y574250D01*
Y543350D02*
X531820D01*
X539760Y398940D02*
Y418940D01*
X572760Y398940D02*
Y418940D01*
X539760D02*
X572760D01*
X539760Y398940D02*
X572760D01*
X296756Y357960D02*
Y398960D01*
X262756D02*
X296756D01*
X262756Y357960D02*
Y398960D01*
Y357960D02*
X296756D01*
X359570Y454550D02*
X379570D01*
X359570Y487550D02*
X379570D01*
X359570Y454550D02*
Y487550D01*
X379570Y454550D02*
Y487550D01*
X294756Y401734D02*
Y421734D01*
X261756Y401734D02*
Y421734D01*
Y401734D02*
X294756D01*
X261756Y421734D02*
X294756D01*
X275256Y351100D02*
Y360100D01*
X293256Y351100D02*
Y360100D01*
X275256D02*
X293256D01*
X275256Y351100D02*
X293256D01*
X281506Y355600D02*
X287006D01*
X284256Y352850D02*
Y358350D01*
X284256Y395550D02*
Y404550D01*
X266256Y395550D02*
Y404550D01*
Y395550D02*
X284256D01*
X266256Y404550D02*
X284256D01*
X272506Y400050D02*
X278006D01*
X275256Y397300D02*
Y402800D01*
X315698Y308230D02*
X458698D01*
X315698Y451230D02*
X458698D01*
Y308230D02*
Y451230D01*
X315698Y308230D02*
Y451230D01*
X86230Y420530D02*
Y440530D01*
X53230Y420530D02*
Y440530D01*
Y420530D02*
X86230D01*
X53230Y440530D02*
X86230D01*
Y318930D02*
Y338930D01*
X53230Y318930D02*
Y338930D01*
Y318930D02*
X86230D01*
X53230Y338930D02*
X86230D01*
Y191930D02*
Y211930D01*
X53230Y191930D02*
Y211930D01*
Y191930D02*
X86230D01*
X53230Y211930D02*
X86230D01*
Y395130D02*
Y415130D01*
X53230Y395130D02*
Y415130D01*
Y395130D02*
X86230D01*
X53230Y415130D02*
X86230D01*
Y217330D02*
Y237330D01*
X53230Y217330D02*
Y237330D01*
Y217330D02*
X86230D01*
X53230Y237330D02*
X86230D01*
Y293530D02*
Y313530D01*
X53230Y293530D02*
Y313530D01*
Y293530D02*
X86230D01*
X53230Y313530D02*
X86230D01*
Y344330D02*
Y364330D01*
X53230Y344330D02*
Y364330D01*
Y344330D02*
X86230D01*
X53230Y364330D02*
X86230D01*
Y242730D02*
Y262730D01*
X53230Y242730D02*
Y262730D01*
Y242730D02*
X86230D01*
X53230Y262730D02*
X86230D01*
Y268130D02*
Y288130D01*
X53230Y268130D02*
Y288130D01*
Y268130D02*
X86230D01*
X53230Y288130D02*
X86230D01*
Y369730D02*
Y389730D01*
X53230Y369730D02*
Y389730D01*
Y369730D02*
X86230D01*
X53230Y389730D02*
X86230D01*
X539760Y424340D02*
Y444340D01*
X572760Y424340D02*
Y444340D01*
X539760D02*
X572760D01*
X539760Y424340D02*
X572760D01*
X539760Y373540D02*
Y393540D01*
X572760Y373540D02*
Y393540D01*
X539760D02*
X572760D01*
X539760Y373540D02*
X572760D01*
X539760Y348140D02*
Y368140D01*
X572760Y348140D02*
Y368140D01*
X539760D02*
X572760D01*
X539760Y348140D02*
X572760D01*
X539760Y322740D02*
Y342740D01*
X572760Y322740D02*
Y342740D01*
X539760D02*
X572760D01*
X539760Y322740D02*
X572760D01*
X539760Y297340D02*
Y317340D01*
X572760Y297340D02*
Y317340D01*
X539760D02*
X572760D01*
X539760Y297340D02*
X572760D01*
X539760Y271940D02*
Y291940D01*
X572760Y271940D02*
Y291940D01*
X539760D02*
X572760D01*
X539760Y271940D02*
X572760D01*
X539760Y246540D02*
Y266540D01*
X572760Y246540D02*
Y266540D01*
X539760D02*
X572760D01*
X539760Y246540D02*
X572760D01*
X539760Y221140D02*
Y241140D01*
X572760Y221140D02*
Y241140D01*
X539760D02*
X572760D01*
X539760Y221140D02*
X572760D01*
X539760Y195740D02*
Y215740D01*
X572760Y195740D02*
Y215740D01*
X539760D02*
X572760D01*
X539760Y195740D02*
X572760D01*
X204740Y180590D02*
X460740D01*
X204740Y218190D02*
X460740D01*
Y180590D02*
Y218190D01*
X204740Y180590D02*
Y218190D01*
X195270Y524264D02*
X203270D01*
X195270D02*
Y539264D01*
X203270D01*
Y524264D02*
Y539264D01*
X46740Y188230D02*
Y444230D01*
X9140Y188230D02*
Y444230D01*
X46740D01*
X9140Y188230D02*
X46740D01*
X574290Y192040D02*
Y448040D01*
X611890Y192040D02*
Y448040D01*
X574290Y192040D02*
X611890D01*
X574290Y448040D02*
X611890D01*
X174030Y561544D02*
X194030D01*
X174030Y528544D02*
X194030D01*
Y561544D01*
X174030Y528544D02*
Y561544D01*
X53804Y528788D02*
X63304D01*
X58554Y524038D02*
Y533538D01*
X52554Y516788D02*
Y540788D01*
X64554Y516788D02*
Y540788D01*
X52554Y516788D02*
X64554D01*
X52554Y540788D02*
X64554D01*
X77680Y528788D02*
X87180D01*
X82430Y524038D02*
Y533538D01*
X76430Y516788D02*
Y540788D01*
X88430Y516788D02*
Y540788D01*
X76430Y516788D02*
X88430D01*
X76430Y540788D02*
X88430D01*
X65742Y528788D02*
X75242D01*
X70492Y524038D02*
Y533538D01*
X64492Y516788D02*
Y540788D01*
X76492Y516788D02*
Y540788D01*
X64492Y516788D02*
X76492D01*
X64492Y540788D02*
X76492D01*
M02*
