G04*
G04 #@! TF.GenerationSoftware,Altium Limited,Altium Designer,25.7.1 (20)*
G04*
G04 Layer_Color=8388736*
%FSLAX44Y44*%
%MOMM*%
G71*
G04*
G04 #@! TF.SameCoordinates,711889C3-5294-40D1-B7F6-5CF0684BB26A*
G04*
G04*
G04 #@! TF.FilePolarity,Negative*
G04*
G01*
G75*
%ADD27R,1.2032X1.0032*%
%ADD28O,2.3032X0.5032*%
%ADD29R,1.0032X1.2032*%
%ADD30O,0.5032X2.3032*%
%ADD31R,2.4032X3.5032*%
G04:AMPARAMS|DCode=32|XSize=0.9632mm|YSize=0.8636mm|CornerRadius=0.1842mm|HoleSize=0mm|Usage=FLASHONLY|Rotation=0.000|XOffset=0mm|YOffset=0mm|HoleType=Round|Shape=RoundedRectangle|*
%AMROUNDEDRECTD32*
21,1,0.9632,0.4953,0,0,0.0*
21,1,0.5949,0.8636,0,0,0.0*
1,1,0.3683,0.2975,-0.2477*
1,1,0.3683,-0.2975,-0.2477*
1,1,0.3683,-0.2975,0.2477*
1,1,0.3683,0.2975,0.2477*
%
%ADD32ROUNDEDRECTD32*%
%ADD33R,2.4032X1.2032*%
G04:AMPARAMS|DCode=34|XSize=0.7532mm|YSize=0.7032mm|CornerRadius=0.1641mm|HoleSize=0mm|Usage=FLASHONLY|Rotation=270.000|XOffset=0mm|YOffset=0mm|HoleType=Round|Shape=RoundedRectangle|*
%AMROUNDEDRECTD34*
21,1,0.7532,0.3750,0,0,270.0*
21,1,0.4250,0.7032,0,0,270.0*
1,1,0.3282,-0.1875,-0.2125*
1,1,0.3282,-0.1875,0.2125*
1,1,0.3282,0.1875,0.2125*
1,1,0.3282,0.1875,-0.2125*
%
%ADD34ROUNDEDRECTD34*%
%ADD35R,1.3032X1.5032*%
%ADD36R,0.8032X0.6032*%
%ADD37R,1.3900X1.3900*%
%ADD38C,1.3900*%
%ADD39C,1.8032*%
G04:AMPARAMS|DCode=40|XSize=1.8032mm|YSize=1.8032mm|CornerRadius=0.5016mm|HoleSize=0mm|Usage=FLASHONLY|Rotation=180.000|XOffset=0mm|YOffset=0mm|HoleType=Round|Shape=RoundedRectangle|*
%AMROUNDEDRECTD40*
21,1,1.8032,0.8000,0,0,180.0*
21,1,0.8000,1.8032,0,0,180.0*
1,1,1.0032,-0.4000,0.4000*
1,1,1.0032,0.4000,0.4000*
1,1,1.0032,0.4000,-0.4000*
1,1,1.0032,-0.4000,-0.4000*
%
%ADD40ROUNDEDRECTD40*%
%ADD41R,1.3000X1.3000*%
%ADD42C,1.3000*%
%ADD43C,1.5400*%
%ADD44C,1.0632*%
%ADD45R,1.5400X1.5400*%
%ADD46C,1.6032*%
%ADD47R,1.6032X1.6032*%
%ADD48R,1.6032X1.6032*%
%ADD49C,0.7112*%
D27*
X447040Y246260D02*
D03*
Y231260D02*
D03*
X421640Y246260D02*
D03*
Y231260D02*
D03*
X396240Y246260D02*
D03*
Y231260D02*
D03*
X370840Y246260D02*
D03*
Y231260D02*
D03*
X345440Y246260D02*
D03*
Y231260D02*
D03*
X320040Y246260D02*
D03*
Y231260D02*
D03*
X294640Y246260D02*
D03*
Y231260D02*
D03*
X269240Y246260D02*
D03*
Y231260D02*
D03*
X243840Y246260D02*
D03*
Y231260D02*
D03*
X218440Y246260D02*
D03*
Y231260D02*
D03*
X184030Y552544D02*
D03*
X369570Y463550D02*
D03*
Y478550D02*
D03*
X184030Y537544D02*
D03*
D28*
X443198Y407230D02*
D03*
Y417230D02*
D03*
X331198Y357230D02*
D03*
X443198Y412230D02*
D03*
X331198Y362230D02*
D03*
X443198Y402230D02*
D03*
Y397230D02*
D03*
Y392230D02*
D03*
Y387230D02*
D03*
Y382230D02*
D03*
Y377230D02*
D03*
Y372230D02*
D03*
Y367230D02*
D03*
Y362230D02*
D03*
Y357230D02*
D03*
Y352230D02*
D03*
Y347230D02*
D03*
Y342230D02*
D03*
X331198D02*
D03*
Y347230D02*
D03*
Y352230D02*
D03*
Y367230D02*
D03*
Y372230D02*
D03*
Y377230D02*
D03*
Y382230D02*
D03*
Y387230D02*
D03*
Y392230D02*
D03*
Y397230D02*
D03*
Y402230D02*
D03*
Y407230D02*
D03*
Y412230D02*
D03*
Y417230D02*
D03*
D29*
X548760Y434340D02*
D03*
Y408940D02*
D03*
Y383540D02*
D03*
Y358140D02*
D03*
Y332740D02*
D03*
Y307340D02*
D03*
Y281940D02*
D03*
Y256540D02*
D03*
Y231140D02*
D03*
Y205740D02*
D03*
X77230Y430530D02*
D03*
Y405130D02*
D03*
Y354330D02*
D03*
Y379730D02*
D03*
Y328930D02*
D03*
Y278130D02*
D03*
Y303530D02*
D03*
Y252730D02*
D03*
Y201930D02*
D03*
Y227330D02*
D03*
X563760Y408940D02*
D03*
X285756Y411734D02*
D03*
X270756D02*
D03*
X62230Y430530D02*
D03*
Y328930D02*
D03*
Y201930D02*
D03*
Y405130D02*
D03*
Y227330D02*
D03*
Y303530D02*
D03*
Y354330D02*
D03*
Y252730D02*
D03*
Y278130D02*
D03*
Y379730D02*
D03*
X563760Y434340D02*
D03*
Y383540D02*
D03*
Y358140D02*
D03*
Y332740D02*
D03*
Y307340D02*
D03*
Y281940D02*
D03*
Y256540D02*
D03*
Y231140D02*
D03*
Y205740D02*
D03*
D30*
X424698Y323730D02*
D03*
X359698D02*
D03*
X349698Y435730D02*
D03*
X354698D02*
D03*
X419698Y323730D02*
D03*
X354698D02*
D03*
X424698Y435730D02*
D03*
X359698D02*
D03*
X364698D02*
D03*
X369698D02*
D03*
X374698D02*
D03*
X379698D02*
D03*
X384698D02*
D03*
X389698D02*
D03*
X394698D02*
D03*
X399698D02*
D03*
X404698D02*
D03*
X409698D02*
D03*
X414698D02*
D03*
X419698D02*
D03*
X414698Y323730D02*
D03*
X409698D02*
D03*
X404698D02*
D03*
X399698D02*
D03*
X394698D02*
D03*
X389698D02*
D03*
X384698D02*
D03*
X379698D02*
D03*
X374698D02*
D03*
X369698D02*
D03*
X364698D02*
D03*
X349698D02*
D03*
D31*
X159480Y512788D02*
D03*
D32*
X82430Y521788D02*
D03*
X70492Y535788D02*
D03*
X82430D02*
D03*
X58554D02*
D03*
Y521788D02*
D03*
X70492D02*
D03*
D33*
X101480Y512788D02*
D03*
Y535788D02*
D03*
Y489788D02*
D03*
D34*
X279756Y400050D02*
D03*
X279756Y355600D02*
D03*
X288756D02*
D03*
X270756Y400050D02*
D03*
D35*
X288756Y389960D02*
D03*
X270756Y366960D02*
D03*
Y389960D02*
D03*
X288756Y366960D02*
D03*
D36*
X199270Y527264D02*
D03*
Y536264D02*
D03*
D37*
X30360Y518534D02*
D03*
D38*
Y538534D02*
D03*
D39*
X490220Y558800D02*
D03*
X464820D02*
D03*
X439420D02*
D03*
D40*
X515620D02*
D03*
D41*
X348300Y509270D02*
D03*
D42*
X388300D02*
D03*
X368300D02*
D03*
D43*
X156082Y344890D02*
D03*
Y389890D02*
D03*
X221082D02*
D03*
D44*
X260062Y430118D02*
D03*
Y442118D02*
D03*
D45*
X221082Y344890D02*
D03*
D46*
X370840Y199390D02*
D03*
X27940Y328930D02*
D03*
Y201930D02*
D03*
Y252730D02*
D03*
Y303530D02*
D03*
Y405130D02*
D03*
Y227330D02*
D03*
Y354330D02*
D03*
Y278130D02*
D03*
Y379730D02*
D03*
X421640Y199390D02*
D03*
X396240D02*
D03*
X345440D02*
D03*
X320040D02*
D03*
X294640D02*
D03*
X269240D02*
D03*
X243840D02*
D03*
X218440D02*
D03*
X593090Y231140D02*
D03*
Y256540D02*
D03*
Y281940D02*
D03*
Y307340D02*
D03*
Y332740D02*
D03*
Y358140D02*
D03*
Y383540D02*
D03*
Y408940D02*
D03*
Y434340D02*
D03*
D47*
X27940Y430530D02*
D03*
X593090Y205740D02*
D03*
D48*
X447040Y199390D02*
D03*
D49*
X533717Y265747D02*
D03*
X463550Y407793D02*
D03*
X444500Y459740D02*
D03*
X521970Y533400D02*
D03*
X519430Y415290D02*
D03*
Y440690D02*
D03*
X463906Y417322D02*
D03*
Y435102D02*
D03*
X519430Y364490D02*
D03*
Y389890D02*
D03*
Y339090D02*
D03*
X463906Y424688D02*
D03*
X519430Y288290D02*
D03*
Y313690D02*
D03*
Y262890D02*
D03*
X448310Y273050D02*
D03*
X522397Y234523D02*
D03*
X519430Y212090D02*
D03*
X423520Y305054D02*
D03*
X359512Y304546D02*
D03*
X422910Y273050D02*
D03*
X372110D02*
D03*
X397510D02*
D03*
X354330Y480060D02*
D03*
X349860Y453644D02*
D03*
X183776Y513040D02*
D03*
X340716Y453644D02*
D03*
X313970Y359694D02*
D03*
X113030Y426720D02*
D03*
Y401320D02*
D03*
Y375920D02*
D03*
X321310Y273050D02*
D03*
X312014Y346456D02*
D03*
X270510Y273050D02*
D03*
X295910D02*
D03*
X245110D02*
D03*
X345440Y263652D02*
D03*
X218440Y265931D02*
D03*
X113030Y248920D02*
D03*
Y198120D02*
D03*
Y223520D02*
D03*
Y350520D02*
D03*
Y325120D02*
D03*
Y299720D02*
D03*
Y274320D02*
D03*
X533400Y443230D02*
D03*
Y417830D02*
D03*
Y367030D02*
D03*
Y392430D02*
D03*
X423520Y408940D02*
D03*
X420370Y533400D02*
D03*
X384810Y480060D02*
D03*
X364338Y415798D02*
D03*
X356210Y367030D02*
D03*
X533400Y290830D02*
D03*
Y341630D02*
D03*
Y316230D02*
D03*
X455930Y262890D02*
D03*
X430530D02*
D03*
X533400Y214630D02*
D03*
Y235666D02*
D03*
X418948Y345694D02*
D03*
X355702Y346456D02*
D03*
X405130Y262890D02*
D03*
X379730D02*
D03*
X354330D02*
D03*
X297790Y397256D02*
D03*
X234950Y435610D02*
D03*
X116720Y550632D02*
D03*
X97790Y421640D02*
D03*
Y396240D02*
D03*
Y370840D02*
D03*
X303530Y262890D02*
D03*
X328930D02*
D03*
X278130D02*
D03*
X267310Y354584D02*
D03*
X227330Y262890D02*
D03*
X252730D02*
D03*
X97790Y193040D02*
D03*
Y345440D02*
D03*
Y320040D02*
D03*
Y294640D02*
D03*
Y269240D02*
D03*
Y243840D02*
D03*
Y219583D02*
D03*
X431800Y459740D02*
D03*
X435610Y444500D02*
D03*
X196995Y455785D02*
D03*
X194793Y466090D02*
D03*
X214507Y468507D02*
D03*
X224790Y459740D02*
D03*
X208280Y448310D02*
D03*
X189230Y478790D02*
D03*
X209550Y481330D02*
D03*
X321310Y500380D02*
D03*
X408940D02*
D03*
X323850Y487680D02*
D03*
X401320D02*
D03*
X334010Y478790D02*
D03*
X386080Y467360D02*
D03*
X232410Y453390D02*
D03*
X312014Y381000D02*
D03*
M02*
