G04*
G04 #@! TF.GenerationSoftware,Altium Limited,Altium Designer,25.7.1 (20)*
G04*
G04 Layer_Color=0*
%FSLAX44Y44*%
%MOMM*%
G71*
G04*
G04 #@! TF.SameCoordinates,711889C3-5294-40D1-B7F6-5CF0684BB26A*
G04*
G04*
G04 #@! TF.FilePolarity,Positive*
G04*
G01*
G75*
%ADD73C,0.1000*%
%ADD74C,0.0500*%
D73*
X65230Y430530D02*
X74230D01*
X69730Y426030D02*
Y435030D01*
X421640Y234260D02*
Y243260D01*
X417140Y238760D02*
X426140D01*
X370840Y234260D02*
Y243260D01*
X366340Y238760D02*
X375340D01*
X65230Y227330D02*
X74230D01*
X69730Y222830D02*
Y231830D01*
X65230Y252730D02*
X74230D01*
X69730Y248230D02*
Y257230D01*
X65230Y303530D02*
X74230D01*
X69730Y299030D02*
Y308030D01*
X65230Y278130D02*
X74230D01*
X69730Y273630D02*
Y282630D01*
X65230Y379730D02*
X74230D01*
X69730Y375230D02*
Y384230D01*
X65230Y405130D02*
X74230D01*
X69730Y400630D02*
Y409630D01*
X65230Y354330D02*
X74230D01*
X69730Y349830D02*
Y358830D01*
X65230Y328930D02*
X74230D01*
X69730Y324430D02*
Y333430D01*
X65230Y201930D02*
X74230D01*
X69730Y197430D02*
Y206430D01*
X551760Y434340D02*
X560760D01*
X556260Y429840D02*
Y438840D01*
X551760Y408940D02*
X560760D01*
X556260Y404440D02*
Y413440D01*
X551760Y383540D02*
X560760D01*
X556260Y379040D02*
Y388040D01*
X551760Y358140D02*
X560760D01*
X556260Y353640D02*
Y362640D01*
X551760Y332740D02*
X560760D01*
X556260Y328240D02*
Y337240D01*
X551760Y307340D02*
X560760D01*
X556260Y302840D02*
Y311840D01*
X551760Y281940D02*
X560760D01*
X556260Y277440D02*
Y286440D01*
X551760Y256540D02*
X560760D01*
X556260Y252040D02*
Y261040D01*
X551760Y231140D02*
X560760D01*
X556260Y226640D02*
Y235640D01*
X551760Y205740D02*
X560760D01*
X556260Y201240D02*
Y210240D01*
X218440Y234260D02*
Y243260D01*
X213940Y238760D02*
X222940D01*
X243840Y234260D02*
Y243260D01*
X239340Y238760D02*
X248340D01*
X269240Y234260D02*
Y243260D01*
X264740Y238760D02*
X273740D01*
X294640Y234260D02*
Y243260D01*
X290140Y238760D02*
X299140D01*
X320040Y234260D02*
Y243260D01*
X315540Y238760D02*
X324540D01*
X345440Y234260D02*
Y243260D01*
X340940Y238760D02*
X349940D01*
X396240Y234260D02*
Y243260D01*
X391740Y238760D02*
X400740D01*
X447040Y234260D02*
Y243260D01*
X442540Y238760D02*
X451540D01*
D74*
X246808Y416618D02*
X255808D01*
X246808Y434618D02*
X255808D01*
Y416618D02*
Y434618D01*
X246808Y416618D02*
Y434618D01*
X251308Y422868D02*
Y428368D01*
X248558Y425618D02*
X254058D01*
X246808Y455278D02*
X255808D01*
X246808Y437278D02*
X255808D01*
X246808D02*
Y455278D01*
X255808Y437278D02*
Y455278D01*
X251308Y443528D02*
Y449028D01*
X248558Y446278D02*
X254058D01*
X319064Y378302D02*
Y390302D01*
X343064Y378302D02*
Y390302D01*
X319064Y378302D02*
X343064D01*
X319064Y390302D02*
X343064D01*
X326314Y384302D02*
X335814D01*
X331064Y379552D02*
Y389052D01*
X319064Y352648D02*
Y364648D01*
X343064Y352648D02*
Y364648D01*
X319064Y352648D02*
X343064D01*
X319064Y364648D02*
X343064D01*
X326314Y358648D02*
X335814D01*
X331064Y353898D02*
Y363398D01*
X319064Y340456D02*
Y352456D01*
X343064Y340456D02*
Y352456D01*
X319064Y340456D02*
X343064D01*
X319064Y352456D02*
X343064D01*
X326314Y346456D02*
X335814D01*
X331064Y341706D02*
Y351206D01*
X455586Y429356D02*
Y441356D01*
X431586Y429356D02*
Y441356D01*
X455586D01*
X431586Y429356D02*
X455586D01*
X438836Y435356D02*
X448336D01*
X443586Y430606D02*
Y440106D01*
X455586Y418688D02*
Y430688D01*
X431586Y418688D02*
Y430688D01*
X455586D01*
X431586Y418688D02*
X455586D01*
X438836Y424688D02*
X448336D01*
X443586Y419938D02*
Y429438D01*
X345638Y448260D02*
X357638D01*
X345638Y424260D02*
X357638D01*
X345638D02*
Y448260D01*
X357638Y424260D02*
Y448260D01*
X351638Y431510D02*
Y441010D01*
X346888Y436260D02*
X356388D01*
X334716Y448260D02*
X346716D01*
X334716Y424260D02*
X346716D01*
X334716D02*
Y448260D01*
X346716Y424260D02*
Y448260D01*
X340716Y431510D02*
Y441010D01*
X335966Y436260D02*
X345466D01*
X351988Y311200D02*
X363988D01*
X351988Y335200D02*
X363988D01*
Y311200D02*
Y335200D01*
X351988Y311200D02*
Y335200D01*
X357988Y318450D02*
Y327950D01*
X353238Y323200D02*
X362738D01*
X416758Y311850D02*
X428758D01*
X416758Y335850D02*
X428758D01*
Y311850D02*
Y335850D01*
X416758Y311850D02*
Y335850D01*
X422758Y319100D02*
Y328600D01*
X418008Y323850D02*
X427508D01*
X455586Y408020D02*
Y420020D01*
X431586Y408020D02*
Y420020D01*
X455586D01*
X431586Y408020D02*
X455586D01*
X438836Y414020D02*
X448336D01*
X443586Y409270D02*
Y418770D01*
X53230Y420530D02*
Y440530D01*
X86230Y420530D02*
Y440530D01*
X53230Y420530D02*
X86230D01*
X53230Y440530D02*
X86230D01*
X411640Y222260D02*
X431640D01*
X411640Y255260D02*
X431640D01*
Y222260D02*
Y255260D01*
X411640Y222260D02*
Y255260D01*
X360840Y222260D02*
X380840D01*
X360840Y255260D02*
X380840D01*
Y222260D02*
Y255260D01*
X360840Y222260D02*
Y255260D01*
X53230Y217330D02*
Y237330D01*
X86230Y217330D02*
Y237330D01*
X53230Y217330D02*
X86230D01*
X53230Y237330D02*
X86230D01*
X53230Y242730D02*
Y262730D01*
X86230Y242730D02*
Y262730D01*
X53230Y242730D02*
X86230D01*
X53230Y262730D02*
X86230D01*
X53230Y293530D02*
Y313530D01*
X86230Y293530D02*
Y313530D01*
X53230Y293530D02*
X86230D01*
X53230Y313530D02*
X86230D01*
X53230Y268130D02*
Y288130D01*
X86230Y268130D02*
Y288130D01*
X53230Y268130D02*
X86230D01*
X53230Y288130D02*
X86230D01*
X53230Y369730D02*
Y389730D01*
X86230Y369730D02*
Y389730D01*
X53230Y369730D02*
X86230D01*
X53230Y389730D02*
X86230D01*
X53230Y395130D02*
Y415130D01*
X86230Y395130D02*
Y415130D01*
X53230Y395130D02*
X86230D01*
X53230Y415130D02*
X86230D01*
X53230Y344330D02*
Y364330D01*
X86230Y344330D02*
Y364330D01*
X53230Y344330D02*
X86230D01*
X53230Y364330D02*
X86230D01*
X53230Y318930D02*
Y338930D01*
X86230Y318930D02*
Y338930D01*
X53230Y318930D02*
X86230D01*
X53230Y338930D02*
X86230D01*
X53230Y191930D02*
Y211930D01*
X86230Y191930D02*
Y211930D01*
X53230Y191930D02*
X86230D01*
X53230Y211930D02*
X86230D01*
X572760Y424340D02*
Y444340D01*
X539760Y424340D02*
Y444340D01*
X572760D01*
X539760Y424340D02*
X572760D01*
Y398940D02*
Y418940D01*
X539760Y398940D02*
Y418940D01*
X572760D01*
X539760Y398940D02*
X572760D01*
Y373540D02*
Y393540D01*
X539760Y373540D02*
Y393540D01*
X572760D01*
X539760Y373540D02*
X572760D01*
Y348140D02*
Y368140D01*
X539760Y348140D02*
Y368140D01*
X572760D01*
X539760Y348140D02*
X572760D01*
Y322740D02*
Y342740D01*
X539760Y322740D02*
Y342740D01*
X572760D01*
X539760Y322740D02*
X572760D01*
Y297340D02*
Y317340D01*
X539760Y297340D02*
Y317340D01*
X572760D01*
X539760Y297340D02*
X572760D01*
Y271940D02*
Y291940D01*
X539760Y271940D02*
Y291940D01*
X572760D01*
X539760Y271940D02*
X572760D01*
Y246540D02*
Y266540D01*
X539760Y246540D02*
Y266540D01*
X572760D01*
X539760Y246540D02*
X572760D01*
Y221140D02*
Y241140D01*
X539760Y221140D02*
Y241140D01*
X572760D01*
X539760Y221140D02*
X572760D01*
Y195740D02*
Y215740D01*
X539760Y195740D02*
Y215740D01*
X572760D01*
X539760Y195740D02*
X572760D01*
X208440Y222260D02*
X228440D01*
X208440Y255260D02*
X228440D01*
Y222260D02*
Y255260D01*
X208440Y222260D02*
Y255260D01*
X233840Y222260D02*
X253840D01*
X233840Y255260D02*
X253840D01*
Y222260D02*
Y255260D01*
X233840Y222260D02*
Y255260D01*
X259240Y222260D02*
X279240D01*
X259240Y255260D02*
X279240D01*
Y222260D02*
Y255260D01*
X259240Y222260D02*
Y255260D01*
X284640Y222260D02*
X304640D01*
X284640Y255260D02*
X304640D01*
Y222260D02*
Y255260D01*
X284640Y222260D02*
Y255260D01*
X310040Y222260D02*
X330040D01*
X310040Y255260D02*
X330040D01*
Y222260D02*
Y255260D01*
X310040Y222260D02*
Y255260D01*
X335440Y222260D02*
X355440D01*
X335440Y255260D02*
X355440D01*
Y222260D02*
Y255260D01*
X335440Y222260D02*
Y255260D01*
X386240Y222260D02*
X406240D01*
X386240Y255260D02*
X406240D01*
Y222260D02*
Y255260D01*
X386240Y222260D02*
Y255260D01*
X437040Y222260D02*
X457040D01*
X437040Y255260D02*
X457040D01*
Y222260D02*
Y255260D01*
X437040Y222260D02*
Y255260D01*
M02*
