G04*
G04 #@! TF.GenerationSoftware,Altium Limited,Altium Designer,25.7.1 (20)*
G04*
G04 Layer_Color=32896*
%FSLAX44Y44*%
%MOMM*%
G71*
G04*
G04 #@! TF.SameCoordinates,711889C3-5294-40D1-B7F6-5CF0684BB26A*
G04*
G04*
G04 #@! TF.FilePolarity,Positive*
G04*
G01*
G75*
G36*
X253820Y419751D02*
X253366D01*
Y421628D01*
X253205Y421495D01*
X253034Y421368D01*
X252868Y421257D01*
X252707Y421152D01*
X252635Y421107D01*
X252569Y421069D01*
X252508Y421030D01*
X252458Y421002D01*
X252414Y420980D01*
X252386Y420964D01*
X252364Y420952D01*
X252358Y420947D01*
X252137Y420836D01*
X251915Y420737D01*
X251705Y420653D01*
X251611Y420620D01*
X251516Y420587D01*
X251433Y420554D01*
X251356Y420532D01*
X251290Y420509D01*
X251234Y420493D01*
X251184Y420476D01*
X251151Y420465D01*
X251129Y420460D01*
X251123D01*
X250896Y420404D01*
X250786Y420382D01*
X250686Y420366D01*
X250592Y420349D01*
X250498Y420332D01*
X250420Y420321D01*
X250343Y420310D01*
X250276Y420305D01*
X250215Y420299D01*
X250160Y420294D01*
X250116D01*
X250082Y420288D01*
X250060D01*
X250044D01*
X250038D01*
Y420770D01*
X250249Y420786D01*
X250442Y420814D01*
X250620Y420842D01*
X250702Y420858D01*
X250780Y420875D01*
X250847Y420886D01*
X250907Y420903D01*
X250963Y420914D01*
X251007Y420925D01*
X251040Y420936D01*
X251068Y420941D01*
X251085Y420947D01*
X251090D01*
X251345Y421030D01*
X251583Y421119D01*
X251699Y421163D01*
X251810Y421207D01*
X251910Y421257D01*
X252009Y421301D01*
X252098Y421340D01*
X252175Y421379D01*
X252242Y421412D01*
X252303Y421440D01*
X252353Y421468D01*
X252386Y421484D01*
X252408Y421495D01*
X252414Y421501D01*
X252530Y421567D01*
X252646Y421634D01*
X252751Y421700D01*
X252851Y421767D01*
X252940Y421827D01*
X253028Y421888D01*
X253106Y421949D01*
X253172Y421999D01*
X253239Y422049D01*
X253294Y422093D01*
X253338Y422137D01*
X253377Y422171D01*
X253410Y422193D01*
X253432Y422215D01*
X253443Y422226D01*
X253449Y422232D01*
X253820D01*
Y419751D01*
D02*
G37*
G36*
X253886Y418206D02*
X253792Y418151D01*
X253704Y418090D01*
X253615Y418018D01*
X253538Y417951D01*
X253471Y417885D01*
X253416Y417835D01*
X253399Y417813D01*
X253382Y417796D01*
X253377Y417791D01*
X253372Y417785D01*
X253277Y417669D01*
X253189Y417553D01*
X253111Y417442D01*
X253050Y417331D01*
X252995Y417237D01*
X252973Y417198D01*
X252956Y417165D01*
X252940Y417137D01*
X252934Y417115D01*
X252923Y417104D01*
Y417099D01*
X252469D01*
X252502Y417182D01*
X252541Y417265D01*
X252580Y417348D01*
X252618Y417425D01*
X252652Y417492D01*
X252679Y417547D01*
X252701Y417580D01*
X252707Y417586D01*
Y417591D01*
X252768Y417691D01*
X252829Y417780D01*
X252884Y417857D01*
X252934Y417918D01*
X252973Y417974D01*
X253006Y418007D01*
X253028Y418034D01*
X253034Y418040D01*
X250038D01*
Y418511D01*
X253886D01*
Y418206D01*
D02*
G37*
G36*
X251378Y415797D02*
X251290Y415775D01*
X251206Y415747D01*
X251129Y415720D01*
X251057Y415692D01*
X250991Y415659D01*
X250935Y415626D01*
X250880Y415587D01*
X250830Y415554D01*
X250786Y415526D01*
X250752Y415493D01*
X250719Y415465D01*
X250691Y415443D01*
X250675Y415421D01*
X250658Y415404D01*
X250653Y415399D01*
X250647Y415393D01*
X250603Y415338D01*
X250570Y415277D01*
X250509Y415155D01*
X250464Y415039D01*
X250437Y414922D01*
X250415Y414823D01*
X250409Y414784D01*
Y414745D01*
X250403Y414712D01*
Y414673D01*
X250409Y414546D01*
X250431Y414424D01*
X250459Y414313D01*
X250492Y414214D01*
X250525Y414136D01*
X250542Y414103D01*
X250553Y414075D01*
X250564Y414053D01*
X250575Y414036D01*
X250581Y414025D01*
Y414020D01*
X250658Y413915D01*
X250741Y413826D01*
X250835Y413749D01*
X250924Y413688D01*
X251001Y413638D01*
X251068Y413605D01*
X251096Y413594D01*
X251112Y413582D01*
X251123Y413577D01*
X251129D01*
X251273Y413533D01*
X251417Y413499D01*
X251561Y413472D01*
X251694Y413455D01*
X251755Y413450D01*
X251810Y413444D01*
X251860D01*
X251899Y413438D01*
X251932D01*
X251959D01*
X251976D01*
X251982D01*
X252126Y413444D01*
X252258Y413455D01*
X252380Y413477D01*
X252491Y413499D01*
X252585Y413516D01*
X252624Y413527D01*
X252657Y413538D01*
X252685Y413544D01*
X252701Y413549D01*
X252712Y413555D01*
X252718D01*
X252845Y413610D01*
X252962Y413671D01*
X253056Y413737D01*
X253139Y413810D01*
X253205Y413870D01*
X253250Y413920D01*
X253277Y413959D01*
X253288Y413965D01*
Y413970D01*
X253360Y414086D01*
X253416Y414214D01*
X253454Y414336D01*
X253477Y414452D01*
X253493Y414557D01*
X253499Y414601D01*
Y414640D01*
X253504Y414668D01*
Y414712D01*
X253499Y414851D01*
X253477Y414978D01*
X253443Y415083D01*
X253410Y415177D01*
X253372Y415249D01*
X253344Y415305D01*
X253322Y415338D01*
X253311Y415349D01*
X253228Y415437D01*
X253133Y415521D01*
X253034Y415587D01*
X252934Y415642D01*
X252845Y415687D01*
X252801Y415703D01*
X252768Y415714D01*
X252740Y415725D01*
X252718Y415737D01*
X252707Y415742D01*
X252701D01*
X252818Y416240D01*
X252917Y416207D01*
X253006Y416174D01*
X253089Y416130D01*
X253172Y416091D01*
X253244Y416046D01*
X253311Y415997D01*
X253377Y415952D01*
X253432Y415908D01*
X253477Y415864D01*
X253521Y415825D01*
X253560Y415786D01*
X253587Y415759D01*
X253615Y415731D01*
X253632Y415709D01*
X253637Y415698D01*
X253643Y415692D01*
X253693Y415615D01*
X253742Y415537D01*
X253781Y415460D01*
X253814Y415377D01*
X253864Y415210D01*
X253897Y415061D01*
X253914Y414989D01*
X253920Y414928D01*
X253925Y414867D01*
X253931Y414817D01*
X253936Y414779D01*
Y414723D01*
X253925Y414540D01*
X253897Y414363D01*
X253864Y414208D01*
X253842Y414136D01*
X253820Y414070D01*
X253798Y414009D01*
X253776Y413954D01*
X253759Y413909D01*
X253742Y413865D01*
X253726Y413837D01*
X253715Y413815D01*
X253709Y413798D01*
X253704Y413793D01*
X253610Y413643D01*
X253499Y413516D01*
X253388Y413405D01*
X253277Y413311D01*
X253178Y413239D01*
X253133Y413212D01*
X253095Y413189D01*
X253067Y413167D01*
X253045Y413156D01*
X253028Y413151D01*
X253023Y413145D01*
X252851Y413068D01*
X252674Y413012D01*
X252497Y412973D01*
X252336Y412946D01*
X252264Y412935D01*
X252192Y412929D01*
X252137Y412924D01*
X252081D01*
X252043Y412918D01*
X252009D01*
X251987D01*
X251982D01*
X251782Y412929D01*
X251588Y412951D01*
X251417Y412979D01*
X251334Y413001D01*
X251262Y413018D01*
X251195Y413034D01*
X251134Y413056D01*
X251079Y413073D01*
X251035Y413084D01*
X251001Y413101D01*
X250974Y413106D01*
X250957Y413117D01*
X250952D01*
X250786Y413200D01*
X250636Y413295D01*
X250509Y413394D01*
X250459Y413444D01*
X250409Y413488D01*
X250365Y413533D01*
X250326Y413577D01*
X250293Y413616D01*
X250271Y413649D01*
X250249Y413671D01*
X250232Y413693D01*
X250226Y413704D01*
X250221Y413710D01*
X250177Y413787D01*
X250138Y413865D01*
X250077Y414031D01*
X250033Y414197D01*
X250005Y414358D01*
X249994Y414435D01*
X249983Y414502D01*
X249977Y414563D01*
Y414612D01*
X249972Y414657D01*
Y414718D01*
X249977Y414828D01*
X249988Y414934D01*
X249999Y415033D01*
X250021Y415127D01*
X250049Y415216D01*
X250077Y415299D01*
X250105Y415377D01*
X250138Y415448D01*
X250165Y415509D01*
X250193Y415570D01*
X250221Y415615D01*
X250249Y415659D01*
X250271Y415687D01*
X250282Y415714D01*
X250293Y415725D01*
X250298Y415731D01*
X250365Y415808D01*
X250431Y415875D01*
X250509Y415936D01*
X250586Y415997D01*
X250741Y416096D01*
X250896Y416174D01*
X250968Y416207D01*
X251035Y416235D01*
X251096Y416257D01*
X251145Y416274D01*
X251190Y416290D01*
X251223Y416301D01*
X251245Y416307D01*
X251251D01*
X251378Y415797D01*
D02*
G37*
G36*
X250834Y458967D02*
X251028Y458945D01*
X251199Y458917D01*
X251282Y458895D01*
X251354Y458878D01*
X251421Y458862D01*
X251482Y458840D01*
X251537Y458823D01*
X251581Y458812D01*
X251615Y458795D01*
X251642Y458790D01*
X251659Y458779D01*
X251664D01*
X251831Y458696D01*
X251980Y458601D01*
X252107Y458502D01*
X252157Y458452D01*
X252207Y458408D01*
X252251Y458363D01*
X252290Y458319D01*
X252323Y458280D01*
X252346Y458247D01*
X252368Y458225D01*
X252384Y458203D01*
X252390Y458192D01*
X252395Y458186D01*
X252440Y458109D01*
X252478Y458031D01*
X252539Y457865D01*
X252584Y457699D01*
X252611Y457538D01*
X252622Y457461D01*
X252633Y457394D01*
X252639Y457333D01*
Y457284D01*
X252645Y457239D01*
Y457178D01*
X252639Y457068D01*
X252628Y456963D01*
X252617Y456863D01*
X252595Y456769D01*
X252567Y456680D01*
X252539Y456597D01*
X252512Y456520D01*
X252478Y456447D01*
X252451Y456387D01*
X252423Y456326D01*
X252395Y456281D01*
X252368Y456237D01*
X252346Y456209D01*
X252334Y456182D01*
X252323Y456171D01*
X252318Y456165D01*
X252251Y456088D01*
X252185Y456021D01*
X252107Y455960D01*
X252030Y455899D01*
X251875Y455800D01*
X251720Y455722D01*
X251648Y455689D01*
X251581Y455661D01*
X251520Y455639D01*
X251471Y455622D01*
X251426Y455606D01*
X251393Y455595D01*
X251371Y455589D01*
X251365D01*
X251238Y456099D01*
X251327Y456121D01*
X251410Y456148D01*
X251487Y456176D01*
X251559Y456204D01*
X251626Y456237D01*
X251681Y456270D01*
X251736Y456309D01*
X251786Y456342D01*
X251831Y456370D01*
X251864Y456403D01*
X251897Y456431D01*
X251925Y456453D01*
X251941Y456475D01*
X251958Y456492D01*
X251963Y456497D01*
X251969Y456503D01*
X252013Y456558D01*
X252047Y456619D01*
X252107Y456741D01*
X252152Y456857D01*
X252179Y456973D01*
X252201Y457073D01*
X252207Y457112D01*
Y457151D01*
X252213Y457184D01*
Y457223D01*
X252207Y457350D01*
X252185Y457472D01*
X252157Y457583D01*
X252124Y457682D01*
X252091Y457760D01*
X252074Y457793D01*
X252063Y457821D01*
X252052Y457843D01*
X252041Y457859D01*
X252035Y457871D01*
Y457876D01*
X251958Y457981D01*
X251875Y458070D01*
X251781Y458147D01*
X251692Y458208D01*
X251615Y458258D01*
X251548Y458291D01*
X251520Y458302D01*
X251504Y458313D01*
X251493Y458319D01*
X251487D01*
X251343Y458363D01*
X251199Y458397D01*
X251055Y458424D01*
X250922Y458441D01*
X250861Y458446D01*
X250806Y458452D01*
X250756D01*
X250718Y458457D01*
X250684D01*
X250657D01*
X250640D01*
X250634D01*
X250490Y458452D01*
X250358Y458441D01*
X250236Y458419D01*
X250125Y458397D01*
X250031Y458380D01*
X249992Y458369D01*
X249959Y458358D01*
X249931Y458352D01*
X249915Y458347D01*
X249904Y458341D01*
X249898D01*
X249771Y458286D01*
X249654Y458225D01*
X249560Y458158D01*
X249477Y458087D01*
X249411Y458026D01*
X249366Y457976D01*
X249339Y457937D01*
X249328Y457932D01*
Y457926D01*
X249256Y457810D01*
X249200Y457682D01*
X249162Y457561D01*
X249139Y457444D01*
X249123Y457339D01*
X249117Y457295D01*
Y457256D01*
X249112Y457228D01*
Y457184D01*
X249117Y457046D01*
X249139Y456918D01*
X249173Y456813D01*
X249206Y456719D01*
X249245Y456647D01*
X249272Y456591D01*
X249294Y456558D01*
X249305Y456547D01*
X249389Y456459D01*
X249483Y456376D01*
X249582Y456309D01*
X249682Y456254D01*
X249771Y456209D01*
X249815Y456193D01*
X249848Y456182D01*
X249876Y456171D01*
X249898Y456160D01*
X249909Y456154D01*
X249915D01*
X249798Y455656D01*
X249699Y455689D01*
X249610Y455722D01*
X249527Y455766D01*
X249444Y455805D01*
X249372Y455849D01*
X249305Y455899D01*
X249239Y455944D01*
X249184Y455988D01*
X249139Y456032D01*
X249095Y456071D01*
X249056Y456110D01*
X249029Y456137D01*
X249001Y456165D01*
X248984Y456187D01*
X248979Y456198D01*
X248973Y456204D01*
X248923Y456281D01*
X248874Y456359D01*
X248835Y456436D01*
X248802Y456520D01*
X248752Y456686D01*
X248719Y456835D01*
X248702Y456907D01*
X248696Y456968D01*
X248691Y457029D01*
X248685Y457079D01*
X248680Y457118D01*
Y457173D01*
X248691Y457356D01*
X248719Y457533D01*
X248752Y457688D01*
X248774Y457760D01*
X248796Y457826D01*
X248818Y457887D01*
X248840Y457943D01*
X248857Y457987D01*
X248874Y458031D01*
X248890Y458059D01*
X248901Y458081D01*
X248907Y458098D01*
X248912Y458103D01*
X249007Y458253D01*
X249117Y458380D01*
X249228Y458491D01*
X249339Y458585D01*
X249438Y458657D01*
X249483Y458685D01*
X249522Y458707D01*
X249549Y458729D01*
X249571Y458740D01*
X249588Y458745D01*
X249594Y458751D01*
X249765Y458829D01*
X249942Y458884D01*
X250119Y458923D01*
X250280Y458950D01*
X250352Y458961D01*
X250424Y458967D01*
X250479Y458973D01*
X250535D01*
X250574Y458978D01*
X250607D01*
X250629D01*
X250634D01*
X250834Y458967D01*
D02*
G37*
G36*
X250114Y454714D02*
X250075Y454631D01*
X250037Y454548D01*
X249998Y454471D01*
X249965Y454404D01*
X249937Y454349D01*
X249915Y454316D01*
X249909Y454310D01*
Y454305D01*
X249848Y454205D01*
X249787Y454116D01*
X249732Y454039D01*
X249682Y453978D01*
X249643Y453923D01*
X249610Y453889D01*
X249588Y453862D01*
X249582Y453856D01*
X252578D01*
Y453385D01*
X248730D01*
Y453690D01*
X248824Y453745D01*
X248912Y453806D01*
X249001Y453878D01*
X249079Y453945D01*
X249145Y454011D01*
X249200Y454061D01*
X249217Y454083D01*
X249234Y454100D01*
X249239Y454105D01*
X249245Y454111D01*
X249339Y454227D01*
X249427Y454343D01*
X249505Y454454D01*
X249566Y454565D01*
X249621Y454659D01*
X249643Y454698D01*
X249660Y454731D01*
X249676Y454759D01*
X249682Y454781D01*
X249693Y454792D01*
Y454797D01*
X250147D01*
X250114Y454714D01*
D02*
G37*
G36*
X250967Y452195D02*
X251133Y452184D01*
X251288Y452167D01*
X251432Y452140D01*
X251559Y452112D01*
X251675Y452084D01*
X251781Y452051D01*
X251875Y452012D01*
X251952Y451979D01*
X252024Y451946D01*
X252080Y451918D01*
X252129Y451885D01*
X252168Y451863D01*
X252190Y451846D01*
X252207Y451835D01*
X252213Y451829D01*
X252290Y451758D01*
X252356Y451680D01*
X252412Y451602D01*
X252462Y451525D01*
X252506Y451442D01*
X252539Y451364D01*
X252567Y451287D01*
X252589Y451209D01*
X252606Y451143D01*
X252622Y451076D01*
X252633Y451021D01*
X252639Y450971D01*
Y450927D01*
X252645Y450899D01*
Y450872D01*
X252639Y450744D01*
X252617Y450628D01*
X252595Y450523D01*
X252561Y450429D01*
X252534Y450357D01*
X252506Y450301D01*
X252500Y450279D01*
X252489Y450262D01*
X252484Y450257D01*
Y450251D01*
X252418Y450157D01*
X252340Y450069D01*
X252262Y449997D01*
X252185Y449936D01*
X252113Y449886D01*
X252057Y449853D01*
X252035Y449842D01*
X252019Y449831D01*
X252013Y449825D01*
X252008D01*
X251891Y449770D01*
X251770Y449731D01*
X251659Y449703D01*
X251554Y449687D01*
X251465Y449670D01*
X251432D01*
X251399Y449664D01*
X251371D01*
X251354D01*
X251343D01*
X251338D01*
X251238Y449670D01*
X251144Y449681D01*
X251050Y449698D01*
X250967Y449714D01*
X250889Y449742D01*
X250812Y449770D01*
X250745Y449797D01*
X250684Y449831D01*
X250629Y449864D01*
X250579Y449892D01*
X250540Y449919D01*
X250502Y449947D01*
X250474Y449963D01*
X250457Y449980D01*
X250446Y449991D01*
X250441Y449997D01*
X250380Y450058D01*
X250324Y450124D01*
X250280Y450196D01*
X250241Y450262D01*
X250203Y450329D01*
X250175Y450395D01*
X250136Y450523D01*
X250119Y450578D01*
X250108Y450633D01*
X250103Y450678D01*
X250097Y450722D01*
X250092Y450755D01*
Y450800D01*
X250097Y450899D01*
X250114Y450993D01*
X250131Y451082D01*
X250153Y451160D01*
X250180Y451226D01*
X250197Y451276D01*
X250214Y451309D01*
X250219Y451315D01*
Y451320D01*
X250275Y451409D01*
X250336Y451486D01*
X250396Y451558D01*
X250463Y451614D01*
X250518Y451663D01*
X250562Y451702D01*
X250596Y451724D01*
X250601Y451730D01*
X250502D01*
X250402Y451724D01*
X250313Y451719D01*
X250225Y451708D01*
X250147Y451702D01*
X250075Y451691D01*
X250009Y451680D01*
X249948Y451663D01*
X249893Y451652D01*
X249848Y451641D01*
X249809Y451630D01*
X249776Y451625D01*
X249754Y451614D01*
X249737Y451608D01*
X249726Y451602D01*
X249721D01*
X249610Y451547D01*
X249510Y451492D01*
X249433Y451431D01*
X249366Y451375D01*
X249311Y451326D01*
X249272Y451287D01*
X249250Y451259D01*
X249245Y451248D01*
X249200Y451182D01*
X249173Y451115D01*
X249151Y451049D01*
X249134Y450982D01*
X249123Y450932D01*
X249117Y450888D01*
Y450849D01*
X249128Y450750D01*
X249151Y450656D01*
X249184Y450578D01*
X249217Y450506D01*
X249256Y450451D01*
X249289Y450412D01*
X249311Y450390D01*
X249322Y450379D01*
X249372Y450340D01*
X249433Y450301D01*
X249499Y450268D01*
X249566Y450246D01*
X249627Y450224D01*
X249676Y450207D01*
X249710Y450201D01*
X249715Y450196D01*
X249721D01*
X249682Y449725D01*
X249527Y449759D01*
X249389Y449808D01*
X249267Y449864D01*
X249167Y449925D01*
X249090Y449986D01*
X249056Y450008D01*
X249029Y450035D01*
X249012Y450052D01*
X248995Y450069D01*
X248990Y450074D01*
X248984Y450080D01*
X248940Y450135D01*
X248901Y450196D01*
X248835Y450318D01*
X248791Y450440D01*
X248763Y450556D01*
X248741Y450661D01*
X248735Y450705D01*
Y450744D01*
X248730Y450777D01*
Y450822D01*
X248735Y450932D01*
X248746Y451038D01*
X248768Y451137D01*
X248796Y451231D01*
X248835Y451315D01*
X248868Y451398D01*
X248912Y451470D01*
X248951Y451536D01*
X248990Y451591D01*
X249034Y451647D01*
X249067Y451691D01*
X249101Y451724D01*
X249134Y451752D01*
X249156Y451774D01*
X249167Y451785D01*
X249173Y451791D01*
X249272Y451863D01*
X249389Y451924D01*
X249510Y451979D01*
X249638Y452029D01*
X249771Y452068D01*
X249904Y452101D01*
X250042Y452128D01*
X250169Y452151D01*
X250297Y452167D01*
X250413Y452178D01*
X250518Y452189D01*
X250607Y452195D01*
X250684D01*
X250740Y452201D01*
X250762D01*
X250778D01*
X250784D01*
X250790D01*
X250967Y452195D01*
D02*
G37*
G36*
X320274Y385633D02*
X320380Y385622D01*
X320479Y385611D01*
X320573Y385589D01*
X320662Y385561D01*
X320745Y385533D01*
X320823Y385506D01*
X320895Y385472D01*
X320956Y385445D01*
X321016Y385417D01*
X321061Y385389D01*
X321105Y385362D01*
X321133Y385339D01*
X321160Y385328D01*
X321171Y385317D01*
X321177Y385312D01*
X321255Y385245D01*
X321321Y385179D01*
X321382Y385101D01*
X321443Y385024D01*
X321542Y384869D01*
X321620Y384714D01*
X321653Y384642D01*
X321681Y384575D01*
X321703Y384514D01*
X321720Y384465D01*
X321736Y384420D01*
X321747Y384387D01*
X321753Y384365D01*
Y384359D01*
X321243Y384232D01*
X321221Y384321D01*
X321194Y384404D01*
X321166Y384481D01*
X321138Y384553D01*
X321105Y384620D01*
X321072Y384675D01*
X321033Y384730D01*
X321000Y384780D01*
X320972Y384824D01*
X320939Y384858D01*
X320911Y384891D01*
X320889Y384919D01*
X320867Y384935D01*
X320850Y384952D01*
X320845Y384957D01*
X320839Y384963D01*
X320784Y385007D01*
X320723Y385040D01*
X320601Y385101D01*
X320485Y385146D01*
X320368Y385173D01*
X320269Y385196D01*
X320230Y385201D01*
X320191D01*
X320158Y385206D01*
X320119D01*
X319992Y385201D01*
X319870Y385179D01*
X319759Y385151D01*
X319660Y385118D01*
X319582Y385085D01*
X319549Y385068D01*
X319521Y385057D01*
X319499Y385046D01*
X319483Y385035D01*
X319471Y385029D01*
X319466D01*
X319361Y384952D01*
X319272Y384869D01*
X319195Y384775D01*
X319134Y384686D01*
X319084Y384608D01*
X319051Y384542D01*
X319040Y384514D01*
X319028Y384498D01*
X319023Y384487D01*
Y384481D01*
X318979Y384337D01*
X318946Y384193D01*
X318918Y384049D01*
X318901Y383916D01*
X318896Y383856D01*
X318890Y383800D01*
Y383750D01*
X318885Y383712D01*
Y383678D01*
Y383651D01*
Y383634D01*
Y383628D01*
X318890Y383484D01*
X318901Y383352D01*
X318923Y383230D01*
X318946Y383119D01*
X318962Y383025D01*
X318973Y382986D01*
X318984Y382953D01*
X318990Y382925D01*
X318995Y382909D01*
X319001Y382897D01*
Y382892D01*
X319056Y382765D01*
X319117Y382648D01*
X319184Y382554D01*
X319256Y382471D01*
X319317Y382405D01*
X319366Y382360D01*
X319405Y382333D01*
X319411Y382322D01*
X319416D01*
X319532Y382250D01*
X319660Y382194D01*
X319782Y382155D01*
X319898Y382133D01*
X320003Y382117D01*
X320047Y382111D01*
X320086D01*
X320114Y382106D01*
X320158D01*
X320297Y382111D01*
X320424Y382133D01*
X320529Y382167D01*
X320623Y382200D01*
X320695Y382239D01*
X320751Y382266D01*
X320784Y382288D01*
X320795Y382299D01*
X320883Y382383D01*
X320966Y382477D01*
X321033Y382576D01*
X321088Y382676D01*
X321133Y382765D01*
X321149Y382809D01*
X321160Y382842D01*
X321171Y382870D01*
X321183Y382892D01*
X321188Y382903D01*
Y382909D01*
X321686Y382792D01*
X321653Y382693D01*
X321620Y382604D01*
X321576Y382521D01*
X321537Y382438D01*
X321493Y382366D01*
X321443Y382299D01*
X321398Y382233D01*
X321354Y382178D01*
X321310Y382133D01*
X321271Y382089D01*
X321232Y382050D01*
X321205Y382023D01*
X321177Y381995D01*
X321155Y381978D01*
X321144Y381973D01*
X321138Y381967D01*
X321061Y381917D01*
X320983Y381868D01*
X320906Y381829D01*
X320823Y381796D01*
X320657Y381746D01*
X320507Y381713D01*
X320435Y381696D01*
X320374Y381690D01*
X320313Y381685D01*
X320263Y381679D01*
X320225Y381674D01*
X320169D01*
X319986Y381685D01*
X319809Y381713D01*
X319654Y381746D01*
X319582Y381768D01*
X319516Y381790D01*
X319455Y381812D01*
X319400Y381834D01*
X319355Y381851D01*
X319311Y381868D01*
X319283Y381884D01*
X319261Y381895D01*
X319244Y381901D01*
X319239Y381906D01*
X319089Y382001D01*
X318962Y382111D01*
X318851Y382222D01*
X318757Y382333D01*
X318685Y382432D01*
X318657Y382477D01*
X318635Y382515D01*
X318613Y382543D01*
X318602Y382565D01*
X318597Y382582D01*
X318591Y382587D01*
X318514Y382759D01*
X318458Y382936D01*
X318419Y383114D01*
X318392Y383274D01*
X318381Y383346D01*
X318375Y383418D01*
X318370Y383473D01*
Y383529D01*
X318364Y383568D01*
Y383601D01*
Y383623D01*
Y383628D01*
X318375Y383828D01*
X318397Y384022D01*
X318425Y384193D01*
X318447Y384276D01*
X318464Y384348D01*
X318480Y384415D01*
X318503Y384476D01*
X318519Y384531D01*
X318530Y384575D01*
X318547Y384608D01*
X318552Y384636D01*
X318563Y384653D01*
Y384658D01*
X318647Y384824D01*
X318741Y384974D01*
X318840Y385101D01*
X318890Y385151D01*
X318934Y385201D01*
X318979Y385245D01*
X319023Y385284D01*
X319062Y385317D01*
X319095Y385339D01*
X319117Y385362D01*
X319139Y385378D01*
X319150Y385384D01*
X319156Y385389D01*
X319233Y385434D01*
X319311Y385472D01*
X319477Y385533D01*
X319643Y385578D01*
X319804Y385605D01*
X319881Y385616D01*
X319948Y385627D01*
X320009Y385633D01*
X320058D01*
X320103Y385638D01*
X320164D01*
X320274Y385633D01*
D02*
G37*
G36*
X326487D02*
X326581Y385622D01*
X326675Y385605D01*
X326764Y385583D01*
X326847Y385555D01*
X326919Y385528D01*
X326991Y385494D01*
X327052Y385461D01*
X327113Y385434D01*
X327163Y385400D01*
X327207Y385373D01*
X327240Y385345D01*
X327268Y385323D01*
X327290Y385306D01*
X327301Y385295D01*
X327307Y385290D01*
X327373Y385223D01*
X327429Y385151D01*
X327478Y385079D01*
X327523Y385007D01*
X327556Y384941D01*
X327589Y384869D01*
X327633Y384736D01*
X327644Y384675D01*
X327655Y384620D01*
X327667Y384570D01*
X327672Y384525D01*
X327678Y384492D01*
Y384465D01*
Y384448D01*
Y384442D01*
X327672Y384310D01*
X327650Y384188D01*
X327617Y384082D01*
X327584Y383994D01*
X327550Y383922D01*
X327517Y383867D01*
X327495Y383833D01*
X327489Y383822D01*
X327412Y383739D01*
X327329Y383667D01*
X327240Y383612D01*
X327152Y383568D01*
X327074Y383534D01*
X327013Y383512D01*
X326991Y383507D01*
X326974Y383501D01*
X326963Y383496D01*
X326958D01*
X327052Y383446D01*
X327129Y383396D01*
X327196Y383340D01*
X327251Y383291D01*
X327296Y383246D01*
X327329Y383208D01*
X327345Y383186D01*
X327351Y383174D01*
X327395Y383097D01*
X327429Y383019D01*
X327456Y382942D01*
X327473Y382870D01*
X327484Y382809D01*
X327489Y382765D01*
Y382731D01*
Y382720D01*
X327484Y382626D01*
X327467Y382532D01*
X327445Y382449D01*
X327417Y382377D01*
X327390Y382316D01*
X327368Y382266D01*
X327351Y382239D01*
X327345Y382228D01*
X327290Y382145D01*
X327224Y382072D01*
X327157Y382012D01*
X327091Y381956D01*
X327035Y381917D01*
X326986Y381884D01*
X326952Y381868D01*
X326947Y381862D01*
X326941D01*
X326842Y381818D01*
X326742Y381785D01*
X326642Y381757D01*
X326554Y381740D01*
X326482Y381729D01*
X326421Y381724D01*
X326282D01*
X326205Y381735D01*
X326055Y381762D01*
X325928Y381807D01*
X325817Y381851D01*
X325767Y381879D01*
X325728Y381901D01*
X325690Y381923D01*
X325662Y381945D01*
X325640Y381962D01*
X325623Y381973D01*
X325612Y381978D01*
X325607Y381984D01*
X325502Y382089D01*
X325419Y382205D01*
X325352Y382327D01*
X325297Y382449D01*
X325263Y382554D01*
X325247Y382598D01*
X325236Y382637D01*
X325230Y382671D01*
X325225Y382693D01*
X325219Y382709D01*
Y382715D01*
X325690Y382798D01*
X325712Y382676D01*
X325745Y382571D01*
X325784Y382482D01*
X325823Y382410D01*
X325861Y382355D01*
X325895Y382316D01*
X325917Y382288D01*
X325922Y382283D01*
X325994Y382228D01*
X326072Y382183D01*
X326144Y382155D01*
X326216Y382133D01*
X326282Y382122D01*
X326332Y382111D01*
X326376D01*
X326476Y382117D01*
X326565Y382139D01*
X326642Y382167D01*
X326709Y382194D01*
X326758Y382228D01*
X326797Y382255D01*
X326825Y382277D01*
X326830Y382283D01*
X326891Y382349D01*
X326936Y382421D01*
X326963Y382493D01*
X326986Y382560D01*
X326997Y382621D01*
X327008Y382665D01*
Y382698D01*
Y382704D01*
Y382709D01*
Y382770D01*
X326997Y382826D01*
X326969Y382920D01*
X326930Y383003D01*
X326886Y383075D01*
X326842Y383125D01*
X326803Y383163D01*
X326775Y383186D01*
X326769Y383191D01*
X326764D01*
X326670Y383241D01*
X326581Y383280D01*
X326487Y383307D01*
X326404Y383324D01*
X326332Y383335D01*
X326271Y383346D01*
X326199D01*
X326177Y383340D01*
X326149D01*
X326094Y383756D01*
X326166Y383739D01*
X326232Y383728D01*
X326288Y383717D01*
X326338Y383712D01*
X326376Y383706D01*
X326426D01*
X326543Y383717D01*
X326648Y383739D01*
X326742Y383772D01*
X326819Y383811D01*
X326880Y383850D01*
X326925Y383883D01*
X326952Y383905D01*
X326963Y383916D01*
X327035Y383999D01*
X327091Y384088D01*
X327129Y384177D01*
X327152Y384265D01*
X327168Y384337D01*
X327174Y384398D01*
X327179Y384420D01*
Y384437D01*
Y384448D01*
Y384454D01*
X327168Y384575D01*
X327141Y384686D01*
X327107Y384780D01*
X327063Y384863D01*
X327019Y384930D01*
X326986Y384980D01*
X326958Y385013D01*
X326947Y385024D01*
X326858Y385101D01*
X326764Y385157D01*
X326670Y385196D01*
X326581Y385223D01*
X326504Y385240D01*
X326443Y385245D01*
X326421Y385251D01*
X326387D01*
X326288Y385245D01*
X326194Y385223D01*
X326111Y385196D01*
X326044Y385162D01*
X325989Y385135D01*
X325945Y385107D01*
X325922Y385085D01*
X325911Y385079D01*
X325845Y385002D01*
X325789Y384913D01*
X325740Y384819D01*
X325701Y384719D01*
X325673Y384636D01*
X325662Y384598D01*
X325657Y384564D01*
X325651Y384537D01*
X325645Y384514D01*
X325640Y384503D01*
Y384498D01*
X325169Y384559D01*
X325180Y384647D01*
X325197Y384730D01*
X325247Y384885D01*
X325308Y385018D01*
X325341Y385074D01*
X325374Y385129D01*
X325407Y385179D01*
X325441Y385218D01*
X325468Y385256D01*
X325496Y385284D01*
X325513Y385306D01*
X325529Y385323D01*
X325540Y385334D01*
X325546Y385339D01*
X325612Y385389D01*
X325679Y385439D01*
X325745Y385478D01*
X325817Y385511D01*
X325956Y385566D01*
X326088Y385600D01*
X326149Y385611D01*
X326205Y385622D01*
X326255Y385627D01*
X326299Y385633D01*
X326332Y385638D01*
X326382D01*
X326487Y385633D01*
D02*
G37*
G36*
X323957Y381724D02*
X323652D01*
X323597Y381818D01*
X323536Y381906D01*
X323464Y381995D01*
X323397Y382072D01*
X323331Y382139D01*
X323281Y382194D01*
X323259Y382211D01*
X323242Y382228D01*
X323237Y382233D01*
X323231Y382239D01*
X323115Y382333D01*
X322999Y382421D01*
X322888Y382499D01*
X322777Y382560D01*
X322683Y382615D01*
X322644Y382637D01*
X322611Y382654D01*
X322583Y382671D01*
X322561Y382676D01*
X322550Y382687D01*
X322545D01*
Y383141D01*
X322628Y383108D01*
X322711Y383069D01*
X322794Y383030D01*
X322871Y382992D01*
X322938Y382958D01*
X322993Y382931D01*
X323026Y382909D01*
X323032Y382903D01*
X323037D01*
X323137Y382842D01*
X323226Y382781D01*
X323303Y382726D01*
X323364Y382676D01*
X323419Y382637D01*
X323453Y382604D01*
X323480Y382582D01*
X323486Y382576D01*
Y385572D01*
X323957D01*
Y381724D01*
D02*
G37*
G36*
X320274Y359979D02*
X320380Y359968D01*
X320479Y359957D01*
X320573Y359935D01*
X320662Y359907D01*
X320745Y359879D01*
X320823Y359852D01*
X320895Y359818D01*
X320956Y359791D01*
X321016Y359763D01*
X321061Y359735D01*
X321105Y359708D01*
X321133Y359685D01*
X321160Y359674D01*
X321171Y359663D01*
X321177Y359658D01*
X321255Y359591D01*
X321321Y359525D01*
X321382Y359447D01*
X321443Y359370D01*
X321542Y359215D01*
X321620Y359060D01*
X321653Y358988D01*
X321681Y358921D01*
X321703Y358860D01*
X321720Y358811D01*
X321736Y358766D01*
X321747Y358733D01*
X321753Y358711D01*
Y358705D01*
X321243Y358578D01*
X321221Y358667D01*
X321194Y358750D01*
X321166Y358827D01*
X321138Y358899D01*
X321105Y358966D01*
X321072Y359021D01*
X321033Y359076D01*
X321000Y359126D01*
X320972Y359170D01*
X320939Y359204D01*
X320911Y359237D01*
X320889Y359265D01*
X320867Y359281D01*
X320850Y359298D01*
X320845Y359303D01*
X320839Y359309D01*
X320784Y359353D01*
X320723Y359386D01*
X320601Y359447D01*
X320485Y359492D01*
X320368Y359519D01*
X320269Y359542D01*
X320230Y359547D01*
X320191D01*
X320158Y359552D01*
X320119D01*
X319992Y359547D01*
X319870Y359525D01*
X319759Y359497D01*
X319660Y359464D01*
X319582Y359431D01*
X319549Y359414D01*
X319521Y359403D01*
X319499Y359392D01*
X319483Y359381D01*
X319471Y359375D01*
X319466D01*
X319361Y359298D01*
X319272Y359215D01*
X319195Y359121D01*
X319134Y359032D01*
X319084Y358955D01*
X319051Y358888D01*
X319040Y358860D01*
X319028Y358844D01*
X319023Y358833D01*
Y358827D01*
X318979Y358683D01*
X318946Y358539D01*
X318918Y358395D01*
X318901Y358262D01*
X318896Y358201D01*
X318890Y358146D01*
Y358096D01*
X318885Y358058D01*
Y358024D01*
Y357997D01*
Y357980D01*
Y357974D01*
X318890Y357831D01*
X318901Y357698D01*
X318923Y357576D01*
X318946Y357465D01*
X318962Y357371D01*
X318973Y357332D01*
X318984Y357299D01*
X318990Y357271D01*
X318995Y357255D01*
X319001Y357243D01*
Y357238D01*
X319056Y357111D01*
X319117Y356994D01*
X319184Y356900D01*
X319256Y356817D01*
X319317Y356751D01*
X319366Y356706D01*
X319405Y356679D01*
X319411Y356668D01*
X319416D01*
X319532Y356596D01*
X319660Y356540D01*
X319782Y356502D01*
X319898Y356479D01*
X320003Y356463D01*
X320047Y356457D01*
X320086D01*
X320114Y356452D01*
X320158D01*
X320297Y356457D01*
X320424Y356479D01*
X320529Y356513D01*
X320623Y356546D01*
X320695Y356585D01*
X320751Y356612D01*
X320784Y356634D01*
X320795Y356646D01*
X320883Y356729D01*
X320966Y356823D01*
X321033Y356922D01*
X321088Y357022D01*
X321133Y357111D01*
X321149Y357155D01*
X321160Y357188D01*
X321171Y357216D01*
X321183Y357238D01*
X321188Y357249D01*
Y357255D01*
X321686Y357138D01*
X321653Y357039D01*
X321620Y356950D01*
X321576Y356867D01*
X321537Y356784D01*
X321493Y356712D01*
X321443Y356646D01*
X321398Y356579D01*
X321354Y356524D01*
X321310Y356479D01*
X321271Y356435D01*
X321232Y356396D01*
X321205Y356369D01*
X321177Y356341D01*
X321155Y356324D01*
X321144Y356319D01*
X321138Y356313D01*
X321061Y356263D01*
X320983Y356214D01*
X320906Y356175D01*
X320823Y356142D01*
X320657Y356092D01*
X320507Y356059D01*
X320435Y356042D01*
X320374Y356036D01*
X320313Y356031D01*
X320263Y356025D01*
X320225Y356020D01*
X320169D01*
X319986Y356031D01*
X319809Y356059D01*
X319654Y356092D01*
X319582Y356114D01*
X319516Y356136D01*
X319455Y356158D01*
X319400Y356180D01*
X319355Y356197D01*
X319311Y356214D01*
X319283Y356230D01*
X319261Y356241D01*
X319244Y356247D01*
X319239Y356252D01*
X319089Y356347D01*
X318962Y356457D01*
X318851Y356568D01*
X318757Y356679D01*
X318685Y356778D01*
X318657Y356823D01*
X318635Y356861D01*
X318613Y356889D01*
X318602Y356911D01*
X318597Y356928D01*
X318591Y356933D01*
X318514Y357105D01*
X318458Y357282D01*
X318419Y357459D01*
X318392Y357620D01*
X318381Y357692D01*
X318375Y357764D01*
X318370Y357819D01*
Y357875D01*
X318364Y357914D01*
Y357947D01*
Y357969D01*
Y357974D01*
X318375Y358174D01*
X318397Y358368D01*
X318425Y358539D01*
X318447Y358622D01*
X318464Y358694D01*
X318480Y358761D01*
X318503Y358822D01*
X318519Y358877D01*
X318530Y358921D01*
X318547Y358955D01*
X318552Y358982D01*
X318563Y358999D01*
Y359004D01*
X318647Y359170D01*
X318741Y359320D01*
X318840Y359447D01*
X318890Y359497D01*
X318934Y359547D01*
X318979Y359591D01*
X319023Y359630D01*
X319062Y359663D01*
X319095Y359685D01*
X319117Y359708D01*
X319139Y359724D01*
X319150Y359730D01*
X319156Y359735D01*
X319233Y359780D01*
X319311Y359818D01*
X319477Y359879D01*
X319643Y359924D01*
X319804Y359951D01*
X319881Y359962D01*
X319948Y359973D01*
X320009Y359979D01*
X320058D01*
X320103Y359984D01*
X320164D01*
X320274Y359979D01*
D02*
G37*
G36*
X323957Y356070D02*
X323652D01*
X323597Y356164D01*
X323536Y356252D01*
X323464Y356341D01*
X323397Y356418D01*
X323331Y356485D01*
X323281Y356540D01*
X323259Y356557D01*
X323242Y356573D01*
X323237Y356579D01*
X323231Y356585D01*
X323115Y356679D01*
X322999Y356767D01*
X322888Y356845D01*
X322777Y356906D01*
X322683Y356961D01*
X322644Y356983D01*
X322611Y357000D01*
X322583Y357016D01*
X322561Y357022D01*
X322550Y357033D01*
X322545D01*
Y357487D01*
X322628Y357454D01*
X322711Y357415D01*
X322794Y357376D01*
X322871Y357338D01*
X322938Y357304D01*
X322993Y357277D01*
X323026Y357255D01*
X323032Y357249D01*
X323037D01*
X323137Y357188D01*
X323226Y357127D01*
X323303Y357072D01*
X323364Y357022D01*
X323419Y356983D01*
X323453Y356950D01*
X323480Y356928D01*
X323486Y356922D01*
Y359918D01*
X323957D01*
Y356070D01*
D02*
G37*
G36*
X327639Y359464D02*
X325751D01*
X325817Y359370D01*
X325850Y359331D01*
X325878Y359292D01*
X325906Y359259D01*
X325928Y359237D01*
X325945Y359220D01*
X325950Y359215D01*
X325978Y359187D01*
X326011Y359159D01*
X326088Y359087D01*
X326177Y359004D01*
X326271Y358921D01*
X326360Y358849D01*
X326399Y358816D01*
X326432Y358783D01*
X326459Y358761D01*
X326482Y358744D01*
X326493Y358733D01*
X326498Y358727D01*
X326587Y358650D01*
X326675Y358578D01*
X326753Y358506D01*
X326825Y358445D01*
X326891Y358384D01*
X326947Y358329D01*
X327002Y358279D01*
X327046Y358235D01*
X327091Y358190D01*
X327124Y358157D01*
X327152Y358130D01*
X327179Y358102D01*
X327207Y358069D01*
X327218Y358058D01*
X327296Y357963D01*
X327362Y357880D01*
X327417Y357797D01*
X327462Y357731D01*
X327495Y357670D01*
X327517Y357626D01*
X327528Y357598D01*
X327534Y357587D01*
X327567Y357504D01*
X327589Y357421D01*
X327611Y357343D01*
X327622Y357277D01*
X327628Y357216D01*
X327633Y357172D01*
Y357144D01*
Y357133D01*
X327628Y357050D01*
X327617Y356972D01*
X327606Y356895D01*
X327584Y356828D01*
X327528Y356695D01*
X327473Y356590D01*
X327439Y356540D01*
X327412Y356502D01*
X327384Y356463D01*
X327356Y356435D01*
X327334Y356413D01*
X327323Y356391D01*
X327312Y356385D01*
X327307Y356380D01*
X327246Y356324D01*
X327179Y356274D01*
X327107Y356236D01*
X327035Y356203D01*
X326891Y356147D01*
X326747Y356108D01*
X326687Y356097D01*
X326626Y356086D01*
X326570Y356081D01*
X326526Y356075D01*
X326487Y356070D01*
X326432D01*
X326332Y356075D01*
X326238Y356081D01*
X326149Y356097D01*
X326066Y356114D01*
X325989Y356136D01*
X325917Y356158D01*
X325850Y356186D01*
X325789Y356214D01*
X325734Y356241D01*
X325690Y356269D01*
X325651Y356291D01*
X325618Y356313D01*
X325590Y356330D01*
X325574Y356347D01*
X325562Y356352D01*
X325557Y356358D01*
X325502Y356413D01*
X325452Y356474D01*
X325402Y356540D01*
X325363Y356607D01*
X325297Y356740D01*
X325252Y356872D01*
X325236Y356933D01*
X325219Y356994D01*
X325208Y357044D01*
X325197Y357089D01*
X325191Y357127D01*
Y357155D01*
X325186Y357172D01*
Y357177D01*
X325668Y357227D01*
X325679Y357100D01*
X325701Y356989D01*
X325734Y356889D01*
X325773Y356812D01*
X325806Y356745D01*
X325839Y356701D01*
X325861Y356673D01*
X325872Y356662D01*
X325956Y356596D01*
X326044Y356546D01*
X326138Y356507D01*
X326221Y356485D01*
X326299Y356468D01*
X326365Y356463D01*
X326387Y356457D01*
X326421D01*
X326537Y356463D01*
X326642Y356485D01*
X326731Y356518D01*
X326808Y356551D01*
X326869Y356590D01*
X326908Y356618D01*
X326936Y356640D01*
X326947Y356651D01*
X327013Y356729D01*
X327063Y356806D01*
X327102Y356884D01*
X327124Y356961D01*
X327141Y357022D01*
X327146Y357077D01*
X327152Y357111D01*
Y357116D01*
Y357122D01*
X327141Y357221D01*
X327118Y357327D01*
X327080Y357421D01*
X327041Y357509D01*
X326997Y357581D01*
X326958Y357642D01*
X326947Y357664D01*
X326936Y357681D01*
X326925Y357687D01*
Y357692D01*
X326880Y357753D01*
X326825Y357814D01*
X326764Y357880D01*
X326698Y357947D01*
X326559Y358080D01*
X326421Y358213D01*
X326349Y358274D01*
X326288Y358329D01*
X326227Y358379D01*
X326177Y358423D01*
X326138Y358456D01*
X326105Y358484D01*
X326083Y358501D01*
X326077Y358506D01*
X325939Y358622D01*
X325812Y358733D01*
X325706Y358833D01*
X325623Y358916D01*
X325551Y358988D01*
X325502Y359038D01*
X325474Y359071D01*
X325463Y359076D01*
Y359082D01*
X325385Y359176D01*
X325324Y359265D01*
X325269Y359353D01*
X325225Y359431D01*
X325191Y359497D01*
X325169Y359547D01*
X325158Y359580D01*
X325153Y359586D01*
Y359591D01*
X325131Y359652D01*
X325119Y359708D01*
X325108Y359763D01*
X325103Y359813D01*
X325097Y359857D01*
Y359890D01*
Y359912D01*
Y359918D01*
X327639D01*
Y359464D01*
D02*
G37*
G36*
X320274Y347787D02*
X320380Y347776D01*
X320479Y347765D01*
X320573Y347743D01*
X320662Y347715D01*
X320745Y347687D01*
X320823Y347660D01*
X320895Y347626D01*
X320956Y347599D01*
X321016Y347571D01*
X321061Y347543D01*
X321105Y347516D01*
X321133Y347493D01*
X321160Y347482D01*
X321171Y347471D01*
X321177Y347466D01*
X321255Y347399D01*
X321321Y347333D01*
X321382Y347255D01*
X321443Y347178D01*
X321542Y347023D01*
X321620Y346868D01*
X321653Y346796D01*
X321681Y346729D01*
X321703Y346668D01*
X321720Y346619D01*
X321736Y346574D01*
X321747Y346541D01*
X321753Y346519D01*
Y346513D01*
X321243Y346386D01*
X321221Y346475D01*
X321194Y346558D01*
X321166Y346635D01*
X321138Y346707D01*
X321105Y346774D01*
X321072Y346829D01*
X321033Y346884D01*
X321000Y346934D01*
X320972Y346978D01*
X320939Y347012D01*
X320911Y347045D01*
X320889Y347073D01*
X320867Y347089D01*
X320850Y347106D01*
X320845Y347111D01*
X320839Y347117D01*
X320784Y347161D01*
X320723Y347194D01*
X320601Y347255D01*
X320485Y347300D01*
X320368Y347327D01*
X320269Y347350D01*
X320230Y347355D01*
X320191D01*
X320158Y347360D01*
X320119D01*
X319992Y347355D01*
X319870Y347333D01*
X319759Y347305D01*
X319660Y347272D01*
X319582Y347239D01*
X319549Y347222D01*
X319521Y347211D01*
X319499Y347200D01*
X319483Y347189D01*
X319471Y347183D01*
X319466D01*
X319361Y347106D01*
X319272Y347023D01*
X319195Y346929D01*
X319134Y346840D01*
X319084Y346763D01*
X319051Y346696D01*
X319040Y346668D01*
X319028Y346652D01*
X319023Y346641D01*
Y346635D01*
X318979Y346491D01*
X318946Y346347D01*
X318918Y346203D01*
X318901Y346070D01*
X318896Y346009D01*
X318890Y345954D01*
Y345904D01*
X318885Y345866D01*
Y345832D01*
Y345805D01*
Y345788D01*
Y345782D01*
X318890Y345639D01*
X318901Y345506D01*
X318923Y345384D01*
X318946Y345273D01*
X318962Y345179D01*
X318973Y345140D01*
X318984Y345107D01*
X318990Y345079D01*
X318995Y345063D01*
X319001Y345051D01*
Y345046D01*
X319056Y344919D01*
X319117Y344802D01*
X319184Y344708D01*
X319256Y344625D01*
X319317Y344559D01*
X319366Y344514D01*
X319405Y344487D01*
X319411Y344476D01*
X319416D01*
X319532Y344404D01*
X319660Y344348D01*
X319782Y344310D01*
X319898Y344287D01*
X320003Y344271D01*
X320047Y344265D01*
X320086D01*
X320114Y344260D01*
X320158D01*
X320297Y344265D01*
X320424Y344287D01*
X320529Y344321D01*
X320623Y344354D01*
X320695Y344393D01*
X320751Y344420D01*
X320784Y344442D01*
X320795Y344454D01*
X320883Y344537D01*
X320966Y344631D01*
X321033Y344730D01*
X321088Y344830D01*
X321133Y344919D01*
X321149Y344963D01*
X321160Y344996D01*
X321171Y345024D01*
X321183Y345046D01*
X321188Y345057D01*
Y345063D01*
X321686Y344946D01*
X321653Y344847D01*
X321620Y344758D01*
X321576Y344675D01*
X321537Y344592D01*
X321493Y344520D01*
X321443Y344454D01*
X321398Y344387D01*
X321354Y344332D01*
X321310Y344287D01*
X321271Y344243D01*
X321232Y344204D01*
X321205Y344177D01*
X321177Y344149D01*
X321155Y344132D01*
X321144Y344127D01*
X321138Y344121D01*
X321061Y344071D01*
X320983Y344022D01*
X320906Y343983D01*
X320823Y343950D01*
X320657Y343900D01*
X320507Y343867D01*
X320435Y343850D01*
X320374Y343844D01*
X320313Y343839D01*
X320263Y343833D01*
X320225Y343828D01*
X320169D01*
X319986Y343839D01*
X319809Y343867D01*
X319654Y343900D01*
X319582Y343922D01*
X319516Y343944D01*
X319455Y343966D01*
X319400Y343988D01*
X319355Y344005D01*
X319311Y344022D01*
X319283Y344038D01*
X319261Y344049D01*
X319244Y344055D01*
X319239Y344060D01*
X319089Y344155D01*
X318962Y344265D01*
X318851Y344376D01*
X318757Y344487D01*
X318685Y344586D01*
X318657Y344631D01*
X318635Y344669D01*
X318613Y344697D01*
X318602Y344719D01*
X318597Y344736D01*
X318591Y344741D01*
X318514Y344913D01*
X318458Y345090D01*
X318419Y345267D01*
X318392Y345428D01*
X318381Y345500D01*
X318375Y345572D01*
X318370Y345627D01*
Y345683D01*
X318364Y345722D01*
Y345755D01*
Y345777D01*
Y345782D01*
X318375Y345982D01*
X318397Y346176D01*
X318425Y346347D01*
X318447Y346430D01*
X318464Y346502D01*
X318480Y346569D01*
X318503Y346630D01*
X318519Y346685D01*
X318530Y346729D01*
X318547Y346763D01*
X318552Y346790D01*
X318563Y346807D01*
Y346812D01*
X318647Y346978D01*
X318741Y347128D01*
X318840Y347255D01*
X318890Y347305D01*
X318934Y347355D01*
X318979Y347399D01*
X319023Y347438D01*
X319062Y347471D01*
X319095Y347493D01*
X319117Y347516D01*
X319139Y347532D01*
X319150Y347538D01*
X319156Y347543D01*
X319233Y347588D01*
X319311Y347626D01*
X319477Y347687D01*
X319643Y347732D01*
X319804Y347759D01*
X319881Y347770D01*
X319948Y347781D01*
X320009Y347787D01*
X320058D01*
X320103Y347792D01*
X320164D01*
X320274Y347787D01*
D02*
G37*
G36*
X326936Y343878D02*
X326631D01*
X326576Y343972D01*
X326515Y344060D01*
X326443Y344149D01*
X326376Y344226D01*
X326310Y344293D01*
X326260Y344348D01*
X326238Y344365D01*
X326221Y344381D01*
X326216Y344387D01*
X326210Y344393D01*
X326094Y344487D01*
X325978Y344575D01*
X325867Y344653D01*
X325756Y344714D01*
X325662Y344769D01*
X325623Y344791D01*
X325590Y344808D01*
X325562Y344824D01*
X325540Y344830D01*
X325529Y344841D01*
X325524D01*
Y345295D01*
X325607Y345262D01*
X325690Y345223D01*
X325773Y345184D01*
X325850Y345146D01*
X325917Y345112D01*
X325972Y345085D01*
X326005Y345063D01*
X326011Y345057D01*
X326017D01*
X326116Y344996D01*
X326205Y344935D01*
X326282Y344880D01*
X326343Y344830D01*
X326399Y344791D01*
X326432Y344758D01*
X326459Y344736D01*
X326465Y344730D01*
Y347726D01*
X326936D01*
Y343878D01*
D02*
G37*
G36*
X323957D02*
X323652D01*
X323597Y343972D01*
X323536Y344060D01*
X323464Y344149D01*
X323397Y344226D01*
X323331Y344293D01*
X323281Y344348D01*
X323259Y344365D01*
X323242Y344381D01*
X323237Y344387D01*
X323231Y344393D01*
X323115Y344487D01*
X322999Y344575D01*
X322888Y344653D01*
X322777Y344714D01*
X322683Y344769D01*
X322644Y344791D01*
X322611Y344808D01*
X322583Y344824D01*
X322561Y344830D01*
X322550Y344841D01*
X322545D01*
Y345295D01*
X322628Y345262D01*
X322711Y345223D01*
X322794Y345184D01*
X322871Y345146D01*
X322938Y345112D01*
X322993Y345085D01*
X323026Y345063D01*
X323032Y345057D01*
X323037D01*
X323137Y344996D01*
X323226Y344935D01*
X323303Y344880D01*
X323364Y344830D01*
X323419Y344791D01*
X323453Y344758D01*
X323480Y344736D01*
X323486Y344730D01*
Y347726D01*
X323957D01*
Y343878D01*
D02*
G37*
G36*
X451053Y437840D02*
X451114Y437752D01*
X451186Y437663D01*
X451253Y437585D01*
X451319Y437519D01*
X451369Y437464D01*
X451391Y437447D01*
X451408Y437430D01*
X451413Y437425D01*
X451419Y437419D01*
X451535Y437325D01*
X451651Y437237D01*
X451762Y437159D01*
X451873Y437098D01*
X451967Y437043D01*
X452006Y437021D01*
X452039Y437004D01*
X452067Y436987D01*
X452089Y436982D01*
X452100Y436971D01*
X452105D01*
Y436517D01*
X452022Y436550D01*
X451939Y436589D01*
X451856Y436628D01*
X451779Y436666D01*
X451712Y436699D01*
X451657Y436727D01*
X451624Y436749D01*
X451618Y436755D01*
X451613D01*
X451513Y436816D01*
X451424Y436877D01*
X451347Y436932D01*
X451286Y436982D01*
X451231Y437021D01*
X451197Y437054D01*
X451170Y437076D01*
X451164Y437082D01*
Y434086D01*
X450694D01*
Y437934D01*
X450998D01*
X451053Y437840D01*
D02*
G37*
G36*
X454664Y437973D02*
X454841Y437945D01*
X454996Y437912D01*
X455068Y437890D01*
X455134Y437868D01*
X455195Y437846D01*
X455251Y437824D01*
X455295Y437807D01*
X455339Y437790D01*
X455367Y437774D01*
X455389Y437763D01*
X455406Y437757D01*
X455411Y437752D01*
X455561Y437658D01*
X455688Y437547D01*
X455799Y437436D01*
X455893Y437325D01*
X455965Y437226D01*
X455993Y437181D01*
X456015Y437142D01*
X456037Y437115D01*
X456048Y437093D01*
X456054Y437076D01*
X456059Y437071D01*
X456137Y436899D01*
X456192Y436722D01*
X456231Y436544D01*
X456258Y436384D01*
X456269Y436312D01*
X456275Y436240D01*
X456281Y436185D01*
Y436129D01*
X456286Y436090D01*
Y436057D01*
Y436035D01*
Y436030D01*
X456275Y435830D01*
X456253Y435636D01*
X456225Y435465D01*
X456203Y435382D01*
X456186Y435310D01*
X456170Y435243D01*
X456148Y435182D01*
X456131Y435127D01*
X456120Y435083D01*
X456103Y435049D01*
X456098Y435022D01*
X456087Y435005D01*
Y435000D01*
X456004Y434833D01*
X455910Y434684D01*
X455810Y434557D01*
X455760Y434507D01*
X455716Y434457D01*
X455671Y434413D01*
X455627Y434374D01*
X455588Y434341D01*
X455555Y434319D01*
X455533Y434296D01*
X455511Y434280D01*
X455500Y434274D01*
X455494Y434269D01*
X455417Y434224D01*
X455339Y434186D01*
X455173Y434125D01*
X455007Y434080D01*
X454846Y434053D01*
X454769Y434042D01*
X454702Y434031D01*
X454641Y434025D01*
X454592D01*
X454547Y434020D01*
X454487D01*
X454376Y434025D01*
X454271Y434036D01*
X454171Y434047D01*
X454077Y434069D01*
X453988Y434097D01*
X453905Y434125D01*
X453828Y434152D01*
X453756Y434186D01*
X453695Y434213D01*
X453634Y434241D01*
X453589Y434269D01*
X453545Y434296D01*
X453517Y434319D01*
X453490Y434330D01*
X453479Y434341D01*
X453473Y434346D01*
X453396Y434413D01*
X453329Y434479D01*
X453268Y434557D01*
X453207Y434634D01*
X453108Y434789D01*
X453030Y434944D01*
X452997Y435016D01*
X452969Y435083D01*
X452947Y435144D01*
X452930Y435193D01*
X452914Y435238D01*
X452903Y435271D01*
X452897Y435293D01*
Y435299D01*
X453407Y435426D01*
X453429Y435337D01*
X453456Y435254D01*
X453484Y435177D01*
X453512Y435105D01*
X453545Y435038D01*
X453578Y434983D01*
X453617Y434928D01*
X453650Y434878D01*
X453678Y434833D01*
X453711Y434800D01*
X453739Y434767D01*
X453761Y434739D01*
X453783Y434723D01*
X453800Y434706D01*
X453805Y434701D01*
X453811Y434695D01*
X453866Y434651D01*
X453927Y434618D01*
X454049Y434557D01*
X454165Y434512D01*
X454282Y434485D01*
X454381Y434463D01*
X454420Y434457D01*
X454459D01*
X454492Y434451D01*
X454531D01*
X454658Y434457D01*
X454780Y434479D01*
X454891Y434507D01*
X454990Y434540D01*
X455068Y434573D01*
X455101Y434590D01*
X455129Y434601D01*
X455151Y434612D01*
X455168Y434623D01*
X455179Y434629D01*
X455184D01*
X455289Y434706D01*
X455378Y434789D01*
X455456Y434883D01*
X455516Y434972D01*
X455566Y435049D01*
X455599Y435116D01*
X455611Y435144D01*
X455622Y435160D01*
X455627Y435171D01*
Y435177D01*
X455671Y435321D01*
X455705Y435465D01*
X455732Y435609D01*
X455749Y435742D01*
X455755Y435802D01*
X455760Y435858D01*
Y435908D01*
X455766Y435947D01*
Y435980D01*
Y436007D01*
Y436024D01*
Y436030D01*
X455760Y436174D01*
X455749Y436306D01*
X455727Y436428D01*
X455705Y436539D01*
X455688Y436633D01*
X455677Y436672D01*
X455666Y436705D01*
X455660Y436733D01*
X455655Y436749D01*
X455649Y436760D01*
Y436766D01*
X455594Y436893D01*
X455533Y437010D01*
X455467Y437104D01*
X455395Y437187D01*
X455334Y437253D01*
X455284Y437298D01*
X455245Y437325D01*
X455239Y437336D01*
X455234D01*
X455118Y437408D01*
X454990Y437464D01*
X454869Y437502D01*
X454752Y437525D01*
X454647Y437541D01*
X454603Y437547D01*
X454564D01*
X454536Y437552D01*
X454492D01*
X454354Y437547D01*
X454226Y437525D01*
X454121Y437491D01*
X454027Y437458D01*
X453955Y437419D01*
X453899Y437392D01*
X453866Y437369D01*
X453855Y437359D01*
X453767Y437275D01*
X453684Y437181D01*
X453617Y437082D01*
X453562Y436982D01*
X453517Y436893D01*
X453501Y436849D01*
X453490Y436816D01*
X453479Y436788D01*
X453468Y436766D01*
X453462Y436755D01*
Y436749D01*
X452964Y436866D01*
X452997Y436965D01*
X453030Y437054D01*
X453074Y437137D01*
X453113Y437220D01*
X453158Y437292D01*
X453207Y437359D01*
X453252Y437425D01*
X453296Y437480D01*
X453340Y437525D01*
X453379Y437569D01*
X453418Y437608D01*
X453446Y437635D01*
X453473Y437663D01*
X453495Y437680D01*
X453506Y437685D01*
X453512Y437691D01*
X453589Y437741D01*
X453667Y437790D01*
X453745Y437829D01*
X453828Y437862D01*
X453994Y437912D01*
X454143Y437945D01*
X454215Y437962D01*
X454276Y437968D01*
X454337Y437973D01*
X454387Y437979D01*
X454426Y437984D01*
X454481D01*
X454664Y437973D01*
D02*
G37*
G36*
X448385Y437923D02*
X448523Y437901D01*
X448639Y437862D01*
X448739Y437824D01*
X448822Y437779D01*
X448855Y437763D01*
X448883Y437741D01*
X448905Y437729D01*
X448922Y437718D01*
X448927Y437707D01*
X448933D01*
X449032Y437619D01*
X449115Y437514D01*
X449187Y437408D01*
X449243Y437309D01*
X449287Y437215D01*
X449309Y437176D01*
X449320Y437137D01*
X449331Y437109D01*
X449342Y437087D01*
X449348Y437076D01*
Y437071D01*
X449370Y436987D01*
X449392Y436904D01*
X449426Y436722D01*
X449453Y436539D01*
X449470Y436367D01*
X449475Y436284D01*
X449481Y436212D01*
Y436146D01*
X449486Y436085D01*
Y436041D01*
Y436002D01*
Y435980D01*
Y435974D01*
X449481Y435780D01*
X449470Y435598D01*
X449453Y435432D01*
X449426Y435276D01*
X449398Y435132D01*
X449365Y435005D01*
X449331Y434889D01*
X449298Y434789D01*
X449265Y434701D01*
X449226Y434623D01*
X449198Y434557D01*
X449171Y434507D01*
X449143Y434463D01*
X449127Y434435D01*
X449115Y434418D01*
X449110Y434413D01*
X449049Y434346D01*
X448983Y434285D01*
X448910Y434230D01*
X448839Y434186D01*
X448767Y434147D01*
X448695Y434114D01*
X448623Y434091D01*
X448556Y434069D01*
X448490Y434053D01*
X448429Y434042D01*
X448373Y434031D01*
X448329Y434025D01*
X448290Y434020D01*
X448235D01*
X448086Y434031D01*
X447947Y434053D01*
X447831Y434091D01*
X447731Y434130D01*
X447648Y434169D01*
X447620Y434191D01*
X447593Y434208D01*
X447570Y434219D01*
X447554Y434230D01*
X447548Y434241D01*
X447543D01*
X447443Y434335D01*
X447360Y434435D01*
X447288Y434546D01*
X447233Y434645D01*
X447188Y434739D01*
X447166Y434778D01*
X447155Y434817D01*
X447144Y434845D01*
X447133Y434867D01*
X447127Y434878D01*
Y434883D01*
X447100Y434966D01*
X447078Y435049D01*
X447044Y435227D01*
X447017Y435409D01*
X447000Y435587D01*
X446995Y435664D01*
X446989Y435736D01*
Y435802D01*
X446984Y435863D01*
Y435908D01*
Y435947D01*
Y435969D01*
Y435974D01*
Y436079D01*
X446989Y436179D01*
Y436268D01*
X446995Y436356D01*
X447006Y436434D01*
X447011Y436511D01*
X447017Y436578D01*
X447028Y436639D01*
X447033Y436694D01*
X447044Y436744D01*
X447050Y436783D01*
X447056Y436816D01*
X447061Y436843D01*
X447067Y436860D01*
X447072Y436871D01*
Y436877D01*
X447105Y436998D01*
X447144Y437109D01*
X447188Y437203D01*
X447222Y437286D01*
X447260Y437359D01*
X447283Y437408D01*
X447305Y437436D01*
X447310Y437447D01*
X447371Y437530D01*
X447432Y437602D01*
X447499Y437663D01*
X447559Y437718D01*
X447615Y437757D01*
X447659Y437785D01*
X447687Y437801D01*
X447692Y437807D01*
X447698D01*
X447786Y437851D01*
X447881Y437879D01*
X447969Y437901D01*
X448052Y437918D01*
X448124Y437929D01*
X448185Y437934D01*
X448235D01*
X448385Y437923D01*
D02*
G37*
G36*
X451358Y427261D02*
X451446Y427250D01*
X451535Y427233D01*
X451613Y427211D01*
X451762Y427150D01*
X451829Y427122D01*
X451884Y427089D01*
X451939Y427050D01*
X451984Y427023D01*
X452028Y426990D01*
X452061Y426962D01*
X452089Y426940D01*
X452105Y426923D01*
X452117Y426912D01*
X452122Y426906D01*
X452183Y426840D01*
X452233Y426762D01*
X452283Y426690D01*
X452321Y426613D01*
X452355Y426530D01*
X452382Y426452D01*
X452421Y426308D01*
X452438Y426236D01*
X452449Y426175D01*
X452454Y426115D01*
X452460Y426065D01*
X452465Y426026D01*
Y425998D01*
Y425976D01*
Y425971D01*
X452460Y425865D01*
X452449Y425771D01*
X452438Y425677D01*
X452416Y425589D01*
X452388Y425511D01*
X452360Y425434D01*
X452332Y425367D01*
X452299Y425306D01*
X452272Y425251D01*
X452244Y425201D01*
X452216Y425162D01*
X452188Y425123D01*
X452166Y425096D01*
X452155Y425079D01*
X452144Y425068D01*
X452139Y425062D01*
X452078Y425002D01*
X452011Y424952D01*
X451945Y424902D01*
X451873Y424863D01*
X451806Y424830D01*
X451740Y424802D01*
X451613Y424763D01*
X451557Y424747D01*
X451502Y424736D01*
X451458Y424730D01*
X451413Y424725D01*
X451380Y424719D01*
X451336D01*
X451231Y424725D01*
X451131Y424741D01*
X451042Y424763D01*
X450959Y424791D01*
X450898Y424813D01*
X450849Y424836D01*
X450815Y424852D01*
X450804Y424858D01*
X450716Y424913D01*
X450638Y424974D01*
X450572Y425035D01*
X450516Y425090D01*
X450477Y425146D01*
X450444Y425184D01*
X450422Y425212D01*
X450417Y425223D01*
Y425179D01*
Y425151D01*
Y425135D01*
Y425129D01*
X450422Y425018D01*
X450428Y424913D01*
X450439Y424819D01*
X450450Y424730D01*
X450466Y424658D01*
X450477Y424603D01*
X450483Y424581D01*
Y424564D01*
X450489Y424559D01*
Y424553D01*
X450516Y424453D01*
X450544Y424365D01*
X450572Y424287D01*
X450599Y424221D01*
X450621Y424171D01*
X450644Y424132D01*
X450655Y424105D01*
X450660Y424099D01*
X450705Y424038D01*
X450749Y423988D01*
X450793Y423944D01*
X450838Y423905D01*
X450871Y423872D01*
X450904Y423850D01*
X450926Y423839D01*
X450932Y423833D01*
X450993Y423800D01*
X451059Y423778D01*
X451120Y423761D01*
X451181Y423750D01*
X451231Y423745D01*
X451269Y423739D01*
X451308D01*
X451397Y423745D01*
X451480Y423761D01*
X451552Y423783D01*
X451613Y423811D01*
X451657Y423833D01*
X451696Y423855D01*
X451718Y423872D01*
X451723Y423878D01*
X451779Y423938D01*
X451823Y424011D01*
X451862Y424088D01*
X451889Y424165D01*
X451912Y424232D01*
X451928Y424293D01*
X451934Y424315D01*
Y424326D01*
X451939Y424337D01*
Y424343D01*
X452393Y424304D01*
X452360Y424143D01*
X452316Y424005D01*
X452261Y423883D01*
X452205Y423783D01*
X452150Y423706D01*
X452122Y423673D01*
X452100Y423645D01*
X452083Y423628D01*
X452067Y423612D01*
X452061Y423606D01*
X452056Y423601D01*
X452000Y423556D01*
X451939Y423518D01*
X451818Y423457D01*
X451696Y423412D01*
X451579Y423385D01*
X451474Y423363D01*
X451430Y423357D01*
X451391D01*
X451363Y423352D01*
X451319D01*
X451164Y423363D01*
X451026Y423385D01*
X450898Y423424D01*
X450793Y423468D01*
X450749Y423484D01*
X450705Y423507D01*
X450671Y423529D01*
X450638Y423545D01*
X450616Y423556D01*
X450599Y423568D01*
X450588Y423579D01*
X450583D01*
X450472Y423673D01*
X450372Y423778D01*
X450295Y423889D01*
X450228Y423994D01*
X450173Y424088D01*
X450151Y424132D01*
X450134Y424165D01*
X450123Y424199D01*
X450112Y424221D01*
X450107Y424232D01*
Y424238D01*
X450079Y424320D01*
X450051Y424415D01*
X450012Y424603D01*
X449985Y424802D01*
X449968Y424991D01*
X449957Y425074D01*
X449952Y425157D01*
Y425229D01*
X449946Y425289D01*
Y425339D01*
Y425378D01*
Y425406D01*
Y425411D01*
Y425539D01*
X449952Y425661D01*
X449963Y425771D01*
X449974Y425877D01*
X449985Y425971D01*
X449996Y426059D01*
X450012Y426142D01*
X450029Y426214D01*
X450046Y426275D01*
X450057Y426330D01*
X450073Y426380D01*
X450084Y426419D01*
X450095Y426447D01*
X450107Y426469D01*
X450112Y426480D01*
Y426486D01*
X450178Y426618D01*
X450251Y426735D01*
X450334Y426834D01*
X450406Y426917D01*
X450477Y426978D01*
X450533Y427023D01*
X450555Y427039D01*
X450572Y427050D01*
X450577Y427062D01*
X450583D01*
X450699Y427128D01*
X450815Y427178D01*
X450932Y427216D01*
X451037Y427239D01*
X451131Y427255D01*
X451170Y427261D01*
X451197D01*
X451225Y427266D01*
X451264D01*
X451358Y427261D01*
D02*
G37*
G36*
X454664Y427305D02*
X454841Y427277D01*
X454996Y427244D01*
X455068Y427222D01*
X455134Y427200D01*
X455195Y427178D01*
X455251Y427156D01*
X455295Y427139D01*
X455339Y427122D01*
X455367Y427106D01*
X455389Y427095D01*
X455406Y427089D01*
X455411Y427084D01*
X455561Y426990D01*
X455688Y426879D01*
X455799Y426768D01*
X455893Y426657D01*
X455965Y426558D01*
X455993Y426513D01*
X456015Y426474D01*
X456037Y426447D01*
X456048Y426425D01*
X456054Y426408D01*
X456059Y426403D01*
X456137Y426231D01*
X456192Y426054D01*
X456231Y425877D01*
X456258Y425716D01*
X456269Y425644D01*
X456275Y425572D01*
X456281Y425517D01*
Y425461D01*
X456286Y425422D01*
Y425389D01*
Y425367D01*
Y425362D01*
X456275Y425162D01*
X456253Y424968D01*
X456225Y424797D01*
X456203Y424714D01*
X456186Y424642D01*
X456170Y424575D01*
X456148Y424514D01*
X456131Y424459D01*
X456120Y424415D01*
X456103Y424381D01*
X456098Y424354D01*
X456087Y424337D01*
Y424332D01*
X456004Y424165D01*
X455910Y424016D01*
X455810Y423889D01*
X455760Y423839D01*
X455716Y423789D01*
X455671Y423745D01*
X455627Y423706D01*
X455588Y423673D01*
X455555Y423651D01*
X455533Y423628D01*
X455511Y423612D01*
X455500Y423606D01*
X455494Y423601D01*
X455417Y423556D01*
X455339Y423518D01*
X455173Y423457D01*
X455007Y423412D01*
X454846Y423385D01*
X454769Y423374D01*
X454702Y423363D01*
X454641Y423357D01*
X454592D01*
X454547Y423352D01*
X454487D01*
X454376Y423357D01*
X454271Y423368D01*
X454171Y423379D01*
X454077Y423401D01*
X453988Y423429D01*
X453905Y423457D01*
X453828Y423484D01*
X453756Y423518D01*
X453695Y423545D01*
X453634Y423573D01*
X453589Y423601D01*
X453545Y423628D01*
X453517Y423651D01*
X453490Y423662D01*
X453479Y423673D01*
X453473Y423678D01*
X453396Y423745D01*
X453329Y423811D01*
X453268Y423889D01*
X453207Y423966D01*
X453108Y424121D01*
X453030Y424276D01*
X452997Y424348D01*
X452969Y424415D01*
X452947Y424476D01*
X452930Y424525D01*
X452914Y424570D01*
X452903Y424603D01*
X452897Y424625D01*
Y424631D01*
X453407Y424758D01*
X453429Y424669D01*
X453456Y424586D01*
X453484Y424509D01*
X453512Y424437D01*
X453545Y424370D01*
X453578Y424315D01*
X453617Y424260D01*
X453650Y424210D01*
X453678Y424165D01*
X453711Y424132D01*
X453739Y424099D01*
X453761Y424071D01*
X453783Y424055D01*
X453800Y424038D01*
X453805Y424033D01*
X453811Y424027D01*
X453866Y423983D01*
X453927Y423950D01*
X454049Y423889D01*
X454165Y423844D01*
X454282Y423817D01*
X454381Y423795D01*
X454420Y423789D01*
X454459D01*
X454492Y423783D01*
X454531D01*
X454658Y423789D01*
X454780Y423811D01*
X454891Y423839D01*
X454990Y423872D01*
X455068Y423905D01*
X455101Y423922D01*
X455129Y423933D01*
X455151Y423944D01*
X455168Y423955D01*
X455179Y423961D01*
X455184D01*
X455289Y424038D01*
X455378Y424121D01*
X455456Y424215D01*
X455516Y424304D01*
X455566Y424381D01*
X455599Y424448D01*
X455611Y424476D01*
X455622Y424492D01*
X455627Y424503D01*
Y424509D01*
X455671Y424653D01*
X455705Y424797D01*
X455732Y424941D01*
X455749Y425074D01*
X455755Y425135D01*
X455760Y425190D01*
Y425240D01*
X455766Y425279D01*
Y425312D01*
Y425339D01*
Y425356D01*
Y425362D01*
X455760Y425505D01*
X455749Y425638D01*
X455727Y425760D01*
X455705Y425871D01*
X455688Y425965D01*
X455677Y426004D01*
X455666Y426037D01*
X455660Y426065D01*
X455655Y426081D01*
X455649Y426092D01*
Y426098D01*
X455594Y426225D01*
X455533Y426342D01*
X455467Y426436D01*
X455395Y426519D01*
X455334Y426585D01*
X455284Y426630D01*
X455245Y426657D01*
X455239Y426668D01*
X455234D01*
X455118Y426740D01*
X454990Y426796D01*
X454869Y426834D01*
X454752Y426857D01*
X454647Y426873D01*
X454603Y426879D01*
X454564D01*
X454536Y426884D01*
X454492D01*
X454354Y426879D01*
X454226Y426857D01*
X454121Y426823D01*
X454027Y426790D01*
X453955Y426751D01*
X453899Y426724D01*
X453866Y426702D01*
X453855Y426690D01*
X453767Y426607D01*
X453684Y426513D01*
X453617Y426414D01*
X453562Y426314D01*
X453517Y426225D01*
X453501Y426181D01*
X453490Y426148D01*
X453479Y426120D01*
X453468Y426098D01*
X453462Y426087D01*
Y426081D01*
X452964Y426198D01*
X452997Y426297D01*
X453030Y426386D01*
X453074Y426469D01*
X453113Y426552D01*
X453158Y426624D01*
X453207Y426690D01*
X453252Y426757D01*
X453296Y426812D01*
X453340Y426857D01*
X453379Y426901D01*
X453418Y426940D01*
X453446Y426967D01*
X453473Y426995D01*
X453495Y427012D01*
X453506Y427017D01*
X453512Y427023D01*
X453589Y427072D01*
X453667Y427122D01*
X453745Y427161D01*
X453828Y427194D01*
X453994Y427244D01*
X454143Y427277D01*
X454215Y427294D01*
X454276Y427300D01*
X454337Y427305D01*
X454387Y427311D01*
X454426Y427316D01*
X454481D01*
X454664Y427305D01*
D02*
G37*
G36*
X351164Y448949D02*
X351358Y448927D01*
X351529Y448899D01*
X351612Y448877D01*
X351684Y448860D01*
X351751Y448844D01*
X351812Y448822D01*
X351867Y448805D01*
X351911Y448794D01*
X351945Y448777D01*
X351972Y448772D01*
X351989Y448761D01*
X351994D01*
X352161Y448678D01*
X352310Y448583D01*
X352437Y448484D01*
X352487Y448434D01*
X352537Y448390D01*
X352581Y448345D01*
X352620Y448301D01*
X352653Y448262D01*
X352676Y448229D01*
X352698Y448207D01*
X352714Y448185D01*
X352720Y448174D01*
X352725Y448168D01*
X352770Y448091D01*
X352808Y448013D01*
X352869Y447847D01*
X352914Y447681D01*
X352941Y447520D01*
X352952Y447443D01*
X352963Y447376D01*
X352969Y447315D01*
Y447266D01*
X352975Y447221D01*
Y447160D01*
X352969Y447050D01*
X352958Y446945D01*
X352947Y446845D01*
X352925Y446751D01*
X352897Y446662D01*
X352869Y446579D01*
X352842Y446502D01*
X352808Y446429D01*
X352781Y446369D01*
X352753Y446308D01*
X352725Y446263D01*
X352698Y446219D01*
X352676Y446191D01*
X352664Y446164D01*
X352653Y446153D01*
X352648Y446147D01*
X352581Y446070D01*
X352515Y446003D01*
X352437Y445942D01*
X352360Y445881D01*
X352205Y445782D01*
X352050Y445704D01*
X351978Y445671D01*
X351911Y445643D01*
X351851Y445621D01*
X351801Y445605D01*
X351756Y445588D01*
X351723Y445577D01*
X351701Y445571D01*
X351695D01*
X351568Y446081D01*
X351657Y446103D01*
X351740Y446130D01*
X351817Y446158D01*
X351889Y446186D01*
X351956Y446219D01*
X352011Y446252D01*
X352066Y446291D01*
X352116Y446324D01*
X352161Y446352D01*
X352194Y446385D01*
X352227Y446413D01*
X352255Y446435D01*
X352271Y446457D01*
X352288Y446474D01*
X352294Y446479D01*
X352299Y446485D01*
X352343Y446540D01*
X352377Y446601D01*
X352437Y446723D01*
X352482Y446839D01*
X352509Y446955D01*
X352532Y447055D01*
X352537Y447094D01*
Y447133D01*
X352543Y447166D01*
Y447205D01*
X352537Y447332D01*
X352515Y447454D01*
X352487Y447565D01*
X352454Y447664D01*
X352421Y447742D01*
X352404Y447775D01*
X352393Y447803D01*
X352382Y447825D01*
X352371Y447841D01*
X352365Y447853D01*
Y447858D01*
X352288Y447963D01*
X352205Y448052D01*
X352111Y448129D01*
X352022Y448190D01*
X351945Y448240D01*
X351878Y448273D01*
X351851Y448284D01*
X351834Y448296D01*
X351823Y448301D01*
X351817D01*
X351673Y448345D01*
X351529Y448379D01*
X351385Y448406D01*
X351253Y448423D01*
X351192Y448428D01*
X351136Y448434D01*
X351086D01*
X351048Y448439D01*
X351014D01*
X350987D01*
X350970D01*
X350965D01*
X350821Y448434D01*
X350688Y448423D01*
X350566Y448401D01*
X350455Y448379D01*
X350361Y448362D01*
X350322Y448351D01*
X350289Y448340D01*
X350261Y448334D01*
X350245Y448329D01*
X350234Y448323D01*
X350228D01*
X350101Y448268D01*
X349984Y448207D01*
X349890Y448140D01*
X349807Y448069D01*
X349741Y448008D01*
X349697Y447958D01*
X349669Y447919D01*
X349658Y447914D01*
Y447908D01*
X349586Y447792D01*
X349530Y447664D01*
X349492Y447542D01*
X349469Y447426D01*
X349453Y447321D01*
X349447Y447277D01*
Y447238D01*
X349442Y447210D01*
Y447166D01*
X349447Y447028D01*
X349469Y446900D01*
X349503Y446795D01*
X349536Y446701D01*
X349575Y446629D01*
X349602Y446573D01*
X349624Y446540D01*
X349636Y446529D01*
X349719Y446441D01*
X349813Y446357D01*
X349912Y446291D01*
X350012Y446236D01*
X350101Y446191D01*
X350145Y446175D01*
X350178Y446164D01*
X350206Y446153D01*
X350228Y446142D01*
X350239Y446136D01*
X350245D01*
X350128Y445638D01*
X350029Y445671D01*
X349940Y445704D01*
X349857Y445748D01*
X349774Y445787D01*
X349702Y445831D01*
X349636Y445881D01*
X349569Y445926D01*
X349514Y445970D01*
X349469Y446014D01*
X349425Y446053D01*
X349386Y446092D01*
X349359Y446119D01*
X349331Y446147D01*
X349314Y446169D01*
X349309Y446180D01*
X349303Y446186D01*
X349254Y446263D01*
X349204Y446341D01*
X349165Y446418D01*
X349132Y446502D01*
X349082Y446668D01*
X349049Y446817D01*
X349032Y446889D01*
X349026Y446950D01*
X349021Y447011D01*
X349015Y447061D01*
X349010Y447099D01*
Y447155D01*
X349021Y447338D01*
X349049Y447515D01*
X349082Y447670D01*
X349104Y447742D01*
X349126Y447808D01*
X349148Y447869D01*
X349170Y447925D01*
X349187Y447969D01*
X349204Y448013D01*
X349220Y448041D01*
X349231Y448063D01*
X349237Y448080D01*
X349243Y448085D01*
X349337Y448235D01*
X349447Y448362D01*
X349558Y448473D01*
X349669Y448567D01*
X349768Y448639D01*
X349813Y448666D01*
X349851Y448689D01*
X349879Y448711D01*
X349901Y448722D01*
X349918Y448727D01*
X349924Y448733D01*
X350095Y448811D01*
X350272Y448866D01*
X350450Y448905D01*
X350610Y448932D01*
X350682Y448943D01*
X350754Y448949D01*
X350810Y448955D01*
X350865D01*
X350904Y448960D01*
X350937D01*
X350959D01*
X350965D01*
X351164Y448949D01*
D02*
G37*
G36*
X351895Y445139D02*
X351983Y445128D01*
X352066Y445112D01*
X352150Y445089D01*
X352288Y445034D01*
X352354Y445006D01*
X352410Y444973D01*
X352465Y444940D01*
X352509Y444912D01*
X352548Y444879D01*
X352581Y444857D01*
X352609Y444835D01*
X352626Y444818D01*
X352637Y444807D01*
X352642Y444802D01*
X352703Y444735D01*
X352753Y444663D01*
X352797Y444586D01*
X352836Y444508D01*
X352864Y444436D01*
X352892Y444359D01*
X352930Y444209D01*
X352947Y444143D01*
X352958Y444082D01*
X352963Y444026D01*
X352969Y443977D01*
X352975Y443938D01*
Y443882D01*
X352969Y443777D01*
X352958Y443683D01*
X352941Y443589D01*
X352925Y443500D01*
X352897Y443423D01*
X352869Y443345D01*
X352842Y443273D01*
X352808Y443212D01*
X352775Y443157D01*
X352747Y443107D01*
X352720Y443068D01*
X352692Y443030D01*
X352676Y443002D01*
X352659Y442985D01*
X352648Y442974D01*
X352642Y442969D01*
X352576Y442908D01*
X352509Y442853D01*
X352443Y442808D01*
X352371Y442769D01*
X352304Y442731D01*
X352233Y442703D01*
X352105Y442664D01*
X352044Y442648D01*
X351989Y442636D01*
X351939Y442631D01*
X351900Y442626D01*
X351867Y442620D01*
X351839D01*
X351823D01*
X351817D01*
X351690Y442626D01*
X351574Y442648D01*
X351468Y442681D01*
X351380Y442714D01*
X351308Y442747D01*
X351253Y442780D01*
X351219Y442803D01*
X351214Y442808D01*
X351208D01*
X351120Y442886D01*
X351042Y442969D01*
X350981Y443057D01*
X350926Y443140D01*
X350887Y443218D01*
X350859Y443284D01*
X350848Y443307D01*
X350843Y443323D01*
X350837Y443334D01*
Y443340D01*
X350793Y443240D01*
X350743Y443157D01*
X350693Y443085D01*
X350643Y443024D01*
X350599Y442980D01*
X350566Y442947D01*
X350544Y442924D01*
X350533Y442919D01*
X350455Y442869D01*
X350378Y442836D01*
X350300Y442808D01*
X350223Y442792D01*
X350162Y442780D01*
X350112Y442775D01*
X350079D01*
X350073D01*
X350067D01*
X349990Y442780D01*
X349918Y442786D01*
X349780Y442825D01*
X349658Y442875D01*
X349552Y442930D01*
X349469Y442985D01*
X349436Y443013D01*
X349403Y443035D01*
X349381Y443057D01*
X349364Y443074D01*
X349359Y443079D01*
X349353Y443085D01*
X349303Y443146D01*
X349254Y443207D01*
X349215Y443273D01*
X349182Y443340D01*
X349132Y443473D01*
X349099Y443605D01*
X349082Y443661D01*
X349076Y443716D01*
X349071Y443766D01*
X349065Y443810D01*
X349060Y443844D01*
Y443894D01*
X349065Y443982D01*
X349071Y444071D01*
X349104Y444226D01*
X349126Y444298D01*
X349148Y444364D01*
X349176Y444425D01*
X349204Y444480D01*
X349231Y444525D01*
X349259Y444569D01*
X349281Y444608D01*
X349303Y444636D01*
X349320Y444658D01*
X349337Y444674D01*
X349342Y444685D01*
X349348Y444691D01*
X349403Y444741D01*
X349458Y444790D01*
X349519Y444829D01*
X349580Y444863D01*
X349697Y444918D01*
X349807Y444951D01*
X349901Y444973D01*
X349946Y444979D01*
X349979Y444984D01*
X350012Y444990D01*
X350034D01*
X350045D01*
X350051D01*
X350151Y444984D01*
X350245Y444968D01*
X350328Y444945D01*
X350400Y444918D01*
X350455Y444896D01*
X350499Y444874D01*
X350522Y444857D01*
X350533Y444851D01*
X350599Y444790D01*
X350660Y444724D01*
X350715Y444652D01*
X350760Y444580D01*
X350793Y444514D01*
X350815Y444464D01*
X350826Y444442D01*
X350832Y444425D01*
X350837Y444420D01*
Y444414D01*
X350876Y444541D01*
X350926Y444646D01*
X350987Y444741D01*
X351042Y444818D01*
X351097Y444879D01*
X351142Y444923D01*
X351169Y444945D01*
X351175Y444957D01*
X351180D01*
X351280Y445018D01*
X351385Y445067D01*
X351485Y445101D01*
X351585Y445123D01*
X351673Y445134D01*
X351712Y445139D01*
X351745D01*
X351767Y445145D01*
X351790D01*
X351801D01*
X351806D01*
X351895Y445139D01*
D02*
G37*
G36*
X340242Y448949D02*
X340436Y448927D01*
X340607Y448899D01*
X340690Y448877D01*
X340762Y448860D01*
X340829Y448844D01*
X340890Y448822D01*
X340945Y448805D01*
X340989Y448794D01*
X341023Y448777D01*
X341050Y448772D01*
X341067Y448761D01*
X341072D01*
X341239Y448678D01*
X341388Y448583D01*
X341515Y448484D01*
X341565Y448434D01*
X341615Y448390D01*
X341659Y448345D01*
X341698Y448301D01*
X341731Y448262D01*
X341754Y448229D01*
X341776Y448207D01*
X341792Y448185D01*
X341798Y448174D01*
X341803Y448168D01*
X341848Y448091D01*
X341886Y448013D01*
X341947Y447847D01*
X341992Y447681D01*
X342019Y447520D01*
X342030Y447443D01*
X342041Y447376D01*
X342047Y447315D01*
Y447266D01*
X342052Y447221D01*
Y447160D01*
X342047Y447050D01*
X342036Y446945D01*
X342025Y446845D01*
X342003Y446751D01*
X341975Y446662D01*
X341947Y446579D01*
X341920Y446502D01*
X341886Y446429D01*
X341859Y446369D01*
X341831Y446308D01*
X341803Y446263D01*
X341776Y446219D01*
X341754Y446191D01*
X341742Y446164D01*
X341731Y446153D01*
X341726Y446147D01*
X341659Y446070D01*
X341593Y446003D01*
X341515Y445942D01*
X341438Y445881D01*
X341283Y445782D01*
X341128Y445704D01*
X341056Y445671D01*
X340989Y445643D01*
X340928Y445621D01*
X340879Y445605D01*
X340834Y445588D01*
X340801Y445577D01*
X340779Y445571D01*
X340773D01*
X340646Y446081D01*
X340735Y446103D01*
X340818Y446130D01*
X340895Y446158D01*
X340967Y446186D01*
X341034Y446219D01*
X341089Y446252D01*
X341144Y446291D01*
X341194Y446324D01*
X341239Y446352D01*
X341272Y446385D01*
X341305Y446413D01*
X341333Y446435D01*
X341349Y446457D01*
X341366Y446474D01*
X341371Y446479D01*
X341377Y446485D01*
X341421Y446540D01*
X341455Y446601D01*
X341515Y446723D01*
X341560Y446839D01*
X341587Y446955D01*
X341609Y447055D01*
X341615Y447094D01*
Y447133D01*
X341621Y447166D01*
Y447205D01*
X341615Y447332D01*
X341593Y447454D01*
X341565Y447565D01*
X341532Y447664D01*
X341499Y447742D01*
X341482Y447775D01*
X341471Y447803D01*
X341460Y447825D01*
X341449Y447841D01*
X341443Y447853D01*
Y447858D01*
X341366Y447963D01*
X341283Y448052D01*
X341189Y448129D01*
X341100Y448190D01*
X341023Y448240D01*
X340956Y448273D01*
X340928Y448284D01*
X340912Y448296D01*
X340901Y448301D01*
X340895D01*
X340751Y448345D01*
X340607Y448379D01*
X340463Y448406D01*
X340330Y448423D01*
X340270Y448428D01*
X340214Y448434D01*
X340164D01*
X340126Y448439D01*
X340092D01*
X340065D01*
X340048D01*
X340042D01*
X339898Y448434D01*
X339766Y448423D01*
X339644Y448401D01*
X339533Y448379D01*
X339439Y448362D01*
X339400Y448351D01*
X339367Y448340D01*
X339339Y448334D01*
X339323Y448329D01*
X339312Y448323D01*
X339306D01*
X339179Y448268D01*
X339062Y448207D01*
X338968Y448140D01*
X338885Y448069D01*
X338819Y448008D01*
X338774Y447958D01*
X338747Y447919D01*
X338736Y447914D01*
Y447908D01*
X338664Y447792D01*
X338608Y447664D01*
X338570Y447542D01*
X338548Y447426D01*
X338531Y447321D01*
X338525Y447277D01*
Y447238D01*
X338520Y447210D01*
Y447166D01*
X338525Y447028D01*
X338548Y446900D01*
X338581Y446795D01*
X338614Y446701D01*
X338653Y446629D01*
X338680Y446573D01*
X338703Y446540D01*
X338714Y446529D01*
X338797Y446441D01*
X338891Y446357D01*
X338990Y446291D01*
X339090Y446236D01*
X339179Y446191D01*
X339223Y446175D01*
X339256Y446164D01*
X339284Y446153D01*
X339306Y446142D01*
X339317Y446136D01*
X339323D01*
X339206Y445638D01*
X339107Y445671D01*
X339018Y445704D01*
X338935Y445748D01*
X338852Y445787D01*
X338780Y445831D01*
X338714Y445881D01*
X338647Y445926D01*
X338592Y445970D01*
X338548Y446014D01*
X338503Y446053D01*
X338464Y446092D01*
X338437Y446119D01*
X338409Y446147D01*
X338392Y446169D01*
X338387Y446180D01*
X338381Y446186D01*
X338331Y446263D01*
X338282Y446341D01*
X338243Y446418D01*
X338210Y446502D01*
X338160Y446668D01*
X338127Y446817D01*
X338110Y446889D01*
X338105Y446950D01*
X338099Y447011D01*
X338093Y447061D01*
X338088Y447099D01*
Y447155D01*
X338099Y447338D01*
X338127Y447515D01*
X338160Y447670D01*
X338182Y447742D01*
X338204Y447808D01*
X338226Y447869D01*
X338248Y447925D01*
X338265Y447969D01*
X338282Y448013D01*
X338298Y448041D01*
X338309Y448063D01*
X338315Y448080D01*
X338320Y448085D01*
X338415Y448235D01*
X338525Y448362D01*
X338636Y448473D01*
X338747Y448567D01*
X338847Y448639D01*
X338891Y448666D01*
X338929Y448689D01*
X338957Y448711D01*
X338979Y448722D01*
X338996Y448727D01*
X339002Y448733D01*
X339173Y448811D01*
X339350Y448866D01*
X339528Y448905D01*
X339688Y448932D01*
X339760Y448943D01*
X339832Y448949D01*
X339888Y448955D01*
X339943D01*
X339982Y448960D01*
X340015D01*
X340037D01*
X340042D01*
X340242Y448949D01*
D02*
G37*
G36*
X338658Y443229D02*
X338819Y443362D01*
X338990Y443489D01*
X339156Y443600D01*
X339317Y443705D01*
X339389Y443750D01*
X339456Y443788D01*
X339516Y443827D01*
X339566Y443855D01*
X339611Y443877D01*
X339638Y443894D01*
X339660Y443904D01*
X339666Y443910D01*
X339888Y444021D01*
X340109Y444120D01*
X340319Y444204D01*
X340414Y444237D01*
X340508Y444270D01*
X340591Y444303D01*
X340668Y444325D01*
X340735Y444347D01*
X340790Y444364D01*
X340840Y444381D01*
X340873Y444392D01*
X340895Y444397D01*
X340901D01*
X341128Y444453D01*
X341239Y444475D01*
X341338Y444492D01*
X341432Y444508D01*
X341526Y444525D01*
X341604Y444536D01*
X341682Y444547D01*
X341748Y444552D01*
X341809Y444558D01*
X341864Y444563D01*
X341908D01*
X341942Y444569D01*
X341964D01*
X341981D01*
X341986D01*
Y444087D01*
X341776Y444071D01*
X341582Y444043D01*
X341405Y444015D01*
X341322Y443999D01*
X341244Y443982D01*
X341178Y443971D01*
X341117Y443954D01*
X341061Y443943D01*
X341017Y443932D01*
X340984Y443921D01*
X340956Y443916D01*
X340939Y443910D01*
X340934D01*
X340679Y443827D01*
X340441Y443738D01*
X340325Y443694D01*
X340214Y443650D01*
X340115Y443600D01*
X340015Y443556D01*
X339926Y443517D01*
X339849Y443478D01*
X339782Y443445D01*
X339721Y443417D01*
X339672Y443390D01*
X339638Y443373D01*
X339616Y443362D01*
X339611Y443356D01*
X339494Y443290D01*
X339378Y443223D01*
X339273Y443157D01*
X339173Y443091D01*
X339085Y443030D01*
X338996Y442969D01*
X338918Y442908D01*
X338852Y442858D01*
X338786Y442808D01*
X338730Y442764D01*
X338686Y442720D01*
X338647Y442686D01*
X338614Y442664D01*
X338592Y442642D01*
X338581Y442631D01*
X338575Y442626D01*
X338204D01*
Y445106D01*
X338658D01*
Y443229D01*
D02*
G37*
G36*
X358058Y316829D02*
X358152Y316818D01*
X358246Y316801D01*
X358329Y316785D01*
X358407Y316757D01*
X358484Y316729D01*
X358551Y316702D01*
X358612Y316668D01*
X358667Y316635D01*
X358717Y316607D01*
X358756Y316580D01*
X358795Y316552D01*
X358822Y316535D01*
X358839Y316519D01*
X358850Y316508D01*
X358855Y316502D01*
X358916Y316441D01*
X358972Y316375D01*
X359016Y316303D01*
X359055Y316236D01*
X359094Y316170D01*
X359121Y316104D01*
X359160Y315976D01*
X359176Y315921D01*
X359188Y315865D01*
X359193Y315821D01*
X359199Y315777D01*
X359204Y315744D01*
Y315699D01*
X359199Y315600D01*
X359182Y315506D01*
X359165Y315417D01*
X359143Y315340D01*
X359116Y315273D01*
X359099Y315223D01*
X359082Y315190D01*
X359077Y315184D01*
Y315179D01*
X359021Y315090D01*
X358961Y315013D01*
X358900Y314941D01*
X358833Y314886D01*
X358778Y314836D01*
X358734Y314797D01*
X358700Y314775D01*
X358695Y314769D01*
X358795D01*
X358894Y314775D01*
X358983Y314780D01*
X359071Y314791D01*
X359149Y314797D01*
X359221Y314808D01*
X359287Y314819D01*
X359348Y314836D01*
X359404Y314847D01*
X359448Y314858D01*
X359487Y314869D01*
X359520Y314874D01*
X359542Y314886D01*
X359559Y314891D01*
X359570Y314897D01*
X359575D01*
X359686Y314952D01*
X359786Y315007D01*
X359863Y315068D01*
X359930Y315124D01*
X359985Y315173D01*
X360024Y315212D01*
X360046Y315240D01*
X360051Y315251D01*
X360096Y315317D01*
X360123Y315384D01*
X360146Y315450D01*
X360162Y315517D01*
X360173Y315567D01*
X360179Y315611D01*
Y315650D01*
X360168Y315749D01*
X360146Y315843D01*
X360112Y315921D01*
X360079Y315993D01*
X360040Y316048D01*
X360007Y316087D01*
X359985Y316109D01*
X359974Y316120D01*
X359924Y316159D01*
X359863Y316198D01*
X359797Y316231D01*
X359730Y316253D01*
X359669Y316275D01*
X359619Y316292D01*
X359586Y316297D01*
X359581Y316303D01*
X359575D01*
X359614Y316774D01*
X359769Y316740D01*
X359907Y316691D01*
X360029Y316635D01*
X360129Y316574D01*
X360206Y316513D01*
X360240Y316491D01*
X360267Y316464D01*
X360284Y316447D01*
X360301Y316430D01*
X360306Y316425D01*
X360312Y316419D01*
X360356Y316364D01*
X360395Y316303D01*
X360461Y316181D01*
X360505Y316059D01*
X360533Y315943D01*
X360555Y315838D01*
X360561Y315794D01*
Y315755D01*
X360566Y315722D01*
Y315677D01*
X360561Y315567D01*
X360550Y315461D01*
X360528Y315362D01*
X360500Y315268D01*
X360461Y315184D01*
X360428Y315101D01*
X360384Y315029D01*
X360345Y314963D01*
X360306Y314908D01*
X360262Y314852D01*
X360229Y314808D01*
X360195Y314775D01*
X360162Y314747D01*
X360140Y314725D01*
X360129Y314714D01*
X360123Y314708D01*
X360024Y314636D01*
X359907Y314575D01*
X359786Y314520D01*
X359658Y314470D01*
X359525Y314431D01*
X359393Y314398D01*
X359254Y314370D01*
X359127Y314348D01*
X358999Y314332D01*
X358883Y314321D01*
X358778Y314310D01*
X358689Y314304D01*
X358612D01*
X358556Y314298D01*
X358534D01*
X358518D01*
X358512D01*
X358507D01*
X358329Y314304D01*
X358163Y314315D01*
X358008Y314332D01*
X357864Y314359D01*
X357737Y314387D01*
X357621Y314415D01*
X357515Y314448D01*
X357421Y314487D01*
X357344Y314520D01*
X357272Y314553D01*
X357216Y314581D01*
X357166Y314614D01*
X357128Y314636D01*
X357106Y314653D01*
X357089Y314664D01*
X357084Y314669D01*
X357006Y314741D01*
X356940Y314819D01*
X356884Y314897D01*
X356834Y314974D01*
X356790Y315057D01*
X356757Y315135D01*
X356729Y315212D01*
X356707Y315290D01*
X356690Y315356D01*
X356674Y315423D01*
X356663Y315478D01*
X356657Y315528D01*
Y315572D01*
X356652Y315600D01*
Y315627D01*
X356657Y315755D01*
X356679Y315871D01*
X356701Y315976D01*
X356735Y316070D01*
X356762Y316142D01*
X356790Y316198D01*
X356796Y316220D01*
X356807Y316236D01*
X356812Y316242D01*
Y316248D01*
X356879Y316342D01*
X356956Y316430D01*
X357034Y316502D01*
X357111Y316563D01*
X357183Y316613D01*
X357239Y316646D01*
X357261Y316657D01*
X357277Y316668D01*
X357283Y316674D01*
X357288D01*
X357405Y316729D01*
X357527Y316768D01*
X357637Y316796D01*
X357742Y316812D01*
X357831Y316829D01*
X357864D01*
X357897Y316835D01*
X357925D01*
X357942D01*
X357953D01*
X357958D01*
X358058Y316829D01*
D02*
G37*
G36*
Y313379D02*
X357969Y313357D01*
X357886Y313330D01*
X357809Y313302D01*
X357737Y313274D01*
X357670Y313241D01*
X357615Y313208D01*
X357560Y313169D01*
X357510Y313136D01*
X357466Y313108D01*
X357432Y313075D01*
X357399Y313047D01*
X357371Y313025D01*
X357355Y313003D01*
X357338Y312986D01*
X357333Y312981D01*
X357327Y312975D01*
X357283Y312920D01*
X357250Y312859D01*
X357189Y312737D01*
X357144Y312621D01*
X357117Y312505D01*
X357095Y312405D01*
X357089Y312366D01*
Y312327D01*
X357084Y312294D01*
Y312255D01*
X357089Y312128D01*
X357111Y312006D01*
X357139Y311895D01*
X357172Y311796D01*
X357205Y311718D01*
X357222Y311685D01*
X357233Y311657D01*
X357244Y311635D01*
X357255Y311618D01*
X357261Y311607D01*
Y311602D01*
X357338Y311497D01*
X357421Y311408D01*
X357515Y311331D01*
X357604Y311270D01*
X357682Y311220D01*
X357748Y311187D01*
X357776Y311175D01*
X357792Y311164D01*
X357803Y311159D01*
X357809D01*
X357953Y311115D01*
X358097Y311081D01*
X358241Y311054D01*
X358374Y311037D01*
X358435Y311032D01*
X358490Y311026D01*
X358540D01*
X358578Y311021D01*
X358612D01*
X358639D01*
X358656D01*
X358662D01*
X358806Y311026D01*
X358938Y311037D01*
X359060Y311059D01*
X359171Y311081D01*
X359265Y311098D01*
X359304Y311109D01*
X359337Y311120D01*
X359365Y311126D01*
X359381Y311131D01*
X359393Y311137D01*
X359398D01*
X359525Y311192D01*
X359642Y311253D01*
X359736Y311320D01*
X359819Y311392D01*
X359885Y311452D01*
X359930Y311502D01*
X359957Y311541D01*
X359968Y311546D01*
Y311552D01*
X360040Y311668D01*
X360096Y311796D01*
X360135Y311917D01*
X360157Y312034D01*
X360173Y312139D01*
X360179Y312183D01*
Y312222D01*
X360184Y312250D01*
Y312294D01*
X360179Y312432D01*
X360157Y312560D01*
X360123Y312665D01*
X360090Y312759D01*
X360051Y312831D01*
X360024Y312887D01*
X360002Y312920D01*
X359991Y312931D01*
X359907Y313019D01*
X359813Y313102D01*
X359714Y313169D01*
X359614Y313224D01*
X359525Y313269D01*
X359481Y313285D01*
X359448Y313296D01*
X359420Y313307D01*
X359398Y313318D01*
X359387Y313324D01*
X359381D01*
X359498Y313822D01*
X359597Y313789D01*
X359686Y313756D01*
X359769Y313712D01*
X359852Y313673D01*
X359924Y313629D01*
X359991Y313579D01*
X360057Y313534D01*
X360112Y313490D01*
X360157Y313446D01*
X360201Y313407D01*
X360240Y313368D01*
X360267Y313341D01*
X360295Y313313D01*
X360312Y313291D01*
X360317Y313280D01*
X360323Y313274D01*
X360373Y313197D01*
X360422Y313119D01*
X360461Y313042D01*
X360494Y312959D01*
X360544Y312792D01*
X360578Y312643D01*
X360594Y312571D01*
X360600Y312510D01*
X360605Y312449D01*
X360611Y312399D01*
X360616Y312360D01*
Y312305D01*
X360605Y312122D01*
X360578Y311945D01*
X360544Y311790D01*
X360522Y311718D01*
X360500Y311652D01*
X360478Y311591D01*
X360456Y311535D01*
X360439Y311491D01*
X360422Y311447D01*
X360406Y311419D01*
X360395Y311397D01*
X360389Y311380D01*
X360384Y311375D01*
X360289Y311225D01*
X360179Y311098D01*
X360068Y310987D01*
X359957Y310893D01*
X359858Y310821D01*
X359813Y310793D01*
X359775Y310771D01*
X359747Y310749D01*
X359725Y310738D01*
X359708Y310733D01*
X359703Y310727D01*
X359531Y310650D01*
X359354Y310594D01*
X359176Y310555D01*
X359016Y310528D01*
X358944Y310517D01*
X358872Y310511D01*
X358817Y310506D01*
X358761D01*
X358722Y310500D01*
X358689D01*
X358667D01*
X358662D01*
X358462Y310511D01*
X358268Y310533D01*
X358097Y310561D01*
X358014Y310583D01*
X357942Y310600D01*
X357875Y310616D01*
X357814Y310638D01*
X357759Y310655D01*
X357715Y310666D01*
X357682Y310683D01*
X357654Y310688D01*
X357637Y310699D01*
X357632D01*
X357466Y310782D01*
X357316Y310877D01*
X357189Y310976D01*
X357139Y311026D01*
X357089Y311070D01*
X357045Y311115D01*
X357006Y311159D01*
X356973Y311198D01*
X356951Y311231D01*
X356928Y311253D01*
X356912Y311275D01*
X356906Y311286D01*
X356901Y311292D01*
X356856Y311369D01*
X356818Y311447D01*
X356757Y311613D01*
X356712Y311779D01*
X356685Y311940D01*
X356674Y312017D01*
X356663Y312084D01*
X356657Y312145D01*
Y312194D01*
X356652Y312239D01*
Y312300D01*
X356657Y312410D01*
X356668Y312516D01*
X356679Y312615D01*
X356701Y312709D01*
X356729Y312798D01*
X356757Y312881D01*
X356785Y312959D01*
X356818Y313030D01*
X356845Y313091D01*
X356873Y313152D01*
X356901Y313197D01*
X356928Y313241D01*
X356951Y313269D01*
X356962Y313296D01*
X356973Y313307D01*
X356978Y313313D01*
X357045Y313390D01*
X357111Y313457D01*
X357189Y313518D01*
X357266Y313579D01*
X357421Y313678D01*
X357576Y313756D01*
X357648Y313789D01*
X357715Y313817D01*
X357776Y313839D01*
X357826Y313855D01*
X357870Y313872D01*
X357903Y313883D01*
X357925Y313889D01*
X357931D01*
X358058Y313379D01*
D02*
G37*
G36*
X422839Y316947D02*
X425320D01*
Y316565D01*
X422839Y314810D01*
X422407D01*
Y316477D01*
X421488D01*
Y316947D01*
X422407D01*
Y317468D01*
X422839D01*
Y316947D01*
D02*
G37*
G36*
X422828Y314029D02*
X422739Y314007D01*
X422656Y313979D01*
X422579Y313952D01*
X422507Y313924D01*
X422440Y313891D01*
X422385Y313858D01*
X422330Y313819D01*
X422280Y313786D01*
X422236Y313758D01*
X422202Y313725D01*
X422169Y313697D01*
X422141Y313675D01*
X422125Y313653D01*
X422108Y313636D01*
X422103Y313631D01*
X422097Y313625D01*
X422053Y313570D01*
X422020Y313509D01*
X421959Y313387D01*
X421914Y313271D01*
X421887Y313155D01*
X421865Y313055D01*
X421859Y313016D01*
Y312977D01*
X421853Y312944D01*
Y312905D01*
X421859Y312778D01*
X421881Y312656D01*
X421909Y312545D01*
X421942Y312446D01*
X421975Y312368D01*
X421992Y312335D01*
X422003Y312307D01*
X422014Y312285D01*
X422025Y312269D01*
X422031Y312257D01*
Y312252D01*
X422108Y312147D01*
X422191Y312058D01*
X422285Y311981D01*
X422374Y311920D01*
X422452Y311870D01*
X422518Y311837D01*
X422546Y311826D01*
X422562Y311814D01*
X422573Y311809D01*
X422579D01*
X422723Y311765D01*
X422867Y311731D01*
X423011Y311704D01*
X423144Y311687D01*
X423205Y311682D01*
X423260Y311676D01*
X423310D01*
X423349Y311670D01*
X423382D01*
X423410D01*
X423426D01*
X423432D01*
X423576Y311676D01*
X423708Y311687D01*
X423830Y311709D01*
X423941Y311731D01*
X424035Y311748D01*
X424074Y311759D01*
X424107Y311770D01*
X424135Y311776D01*
X424151Y311781D01*
X424162Y311787D01*
X424168D01*
X424295Y311842D01*
X424412Y311903D01*
X424506Y311970D01*
X424589Y312041D01*
X424655Y312102D01*
X424700Y312152D01*
X424727Y312191D01*
X424738Y312197D01*
Y312202D01*
X424810Y312318D01*
X424866Y312446D01*
X424905Y312568D01*
X424927Y312684D01*
X424943Y312789D01*
X424949Y312833D01*
Y312872D01*
X424954Y312900D01*
Y312944D01*
X424949Y313083D01*
X424927Y313210D01*
X424893Y313315D01*
X424860Y313409D01*
X424822Y313481D01*
X424794Y313536D01*
X424772Y313570D01*
X424761Y313581D01*
X424678Y313669D01*
X424583Y313752D01*
X424484Y313819D01*
X424384Y313874D01*
X424295Y313919D01*
X424251Y313935D01*
X424218Y313946D01*
X424190Y313957D01*
X424168Y313968D01*
X424157Y313974D01*
X424151D01*
X424268Y314472D01*
X424367Y314439D01*
X424456Y314406D01*
X424539Y314362D01*
X424622Y314323D01*
X424694Y314279D01*
X424761Y314229D01*
X424827Y314184D01*
X424882Y314140D01*
X424927Y314096D01*
X424971Y314057D01*
X425010Y314018D01*
X425037Y313991D01*
X425065Y313963D01*
X425082Y313941D01*
X425087Y313930D01*
X425093Y313924D01*
X425143Y313847D01*
X425192Y313769D01*
X425231Y313692D01*
X425264Y313608D01*
X425314Y313442D01*
X425348Y313293D01*
X425364Y313221D01*
X425370Y313160D01*
X425375Y313099D01*
X425381Y313049D01*
X425386Y313011D01*
Y312955D01*
X425375Y312772D01*
X425348Y312595D01*
X425314Y312440D01*
X425292Y312368D01*
X425270Y312302D01*
X425248Y312241D01*
X425226Y312185D01*
X425209Y312141D01*
X425192Y312097D01*
X425176Y312069D01*
X425165Y312047D01*
X425159Y312030D01*
X425154Y312025D01*
X425060Y311875D01*
X424949Y311748D01*
X424838Y311637D01*
X424727Y311543D01*
X424628Y311471D01*
X424583Y311444D01*
X424545Y311421D01*
X424517Y311399D01*
X424495Y311388D01*
X424478Y311383D01*
X424473Y311377D01*
X424301Y311299D01*
X424124Y311244D01*
X423947Y311205D01*
X423786Y311178D01*
X423714Y311167D01*
X423642Y311161D01*
X423587Y311155D01*
X423531D01*
X423493Y311150D01*
X423459D01*
X423437D01*
X423432D01*
X423232Y311161D01*
X423038Y311183D01*
X422867Y311211D01*
X422784Y311233D01*
X422712Y311250D01*
X422645Y311266D01*
X422584Y311288D01*
X422529Y311305D01*
X422485Y311316D01*
X422452Y311333D01*
X422424Y311338D01*
X422407Y311349D01*
X422402D01*
X422236Y311432D01*
X422086Y311527D01*
X421959Y311626D01*
X421909Y311676D01*
X421859Y311720D01*
X421815Y311765D01*
X421776Y311809D01*
X421743Y311848D01*
X421721Y311881D01*
X421698Y311903D01*
X421682Y311925D01*
X421676Y311936D01*
X421671Y311942D01*
X421627Y312019D01*
X421588Y312097D01*
X421527Y312263D01*
X421483Y312429D01*
X421455Y312590D01*
X421444Y312667D01*
X421433Y312734D01*
X421427Y312794D01*
Y312844D01*
X421422Y312889D01*
Y312950D01*
X421427Y313060D01*
X421438Y313165D01*
X421449Y313265D01*
X421471Y313359D01*
X421499Y313448D01*
X421527Y313531D01*
X421554Y313608D01*
X421588Y313680D01*
X421615Y313741D01*
X421643Y313802D01*
X421671Y313847D01*
X421698Y313891D01*
X421721Y313919D01*
X421732Y313946D01*
X421743Y313957D01*
X421748Y313963D01*
X421815Y314040D01*
X421881Y314107D01*
X421959Y314168D01*
X422036Y314229D01*
X422191Y314328D01*
X422346Y314406D01*
X422418Y314439D01*
X422485Y314467D01*
X422546Y314489D01*
X422595Y314506D01*
X422640Y314522D01*
X422673Y314533D01*
X422695Y314539D01*
X422701D01*
X422828Y314029D01*
D02*
G37*
G36*
X452382Y414561D02*
X451939Y414500D01*
X451901Y414561D01*
X451851Y414610D01*
X451806Y414660D01*
X451762Y414699D01*
X451718Y414727D01*
X451685Y414754D01*
X451662Y414766D01*
X451657Y414771D01*
X451585Y414804D01*
X451513Y414832D01*
X451446Y414849D01*
X451380Y414865D01*
X451325Y414871D01*
X451280Y414876D01*
X451175D01*
X451109Y414865D01*
X450993Y414837D01*
X450893Y414799D01*
X450804Y414760D01*
X450738Y414716D01*
X450688Y414677D01*
X450660Y414649D01*
X450649Y414644D01*
Y414638D01*
X450572Y414544D01*
X450516Y414444D01*
X450477Y414339D01*
X450450Y414234D01*
X450433Y414145D01*
X450428Y414107D01*
Y414073D01*
X450422Y414046D01*
Y414024D01*
Y414012D01*
Y414007D01*
Y413929D01*
X450433Y413857D01*
X450461Y413719D01*
X450500Y413603D01*
X450538Y413509D01*
X450583Y413431D01*
X450621Y413370D01*
X450638Y413354D01*
X450649Y413337D01*
X450655Y413331D01*
X450660Y413326D01*
X450705Y413282D01*
X450749Y413243D01*
X450849Y413176D01*
X450943Y413132D01*
X451037Y413104D01*
X451114Y413082D01*
X451181Y413077D01*
X451203Y413071D01*
X451236D01*
X451341Y413077D01*
X451436Y413099D01*
X451519Y413126D01*
X451585Y413160D01*
X451646Y413193D01*
X451690Y413221D01*
X451712Y413243D01*
X451723Y413248D01*
X451790Y413326D01*
X451845Y413409D01*
X451889Y413503D01*
X451923Y413586D01*
X451945Y413669D01*
X451962Y413730D01*
X451967Y413758D01*
X451973Y413774D01*
Y413785D01*
Y413791D01*
X452465Y413752D01*
X452454Y413664D01*
X452438Y413581D01*
X452388Y413425D01*
X452327Y413293D01*
X452294Y413232D01*
X452261Y413182D01*
X452233Y413132D01*
X452200Y413088D01*
X452172Y413055D01*
X452144Y413027D01*
X452122Y413005D01*
X452111Y412982D01*
X452100Y412977D01*
X452094Y412971D01*
X452028Y412922D01*
X451962Y412877D01*
X451889Y412839D01*
X451818Y412805D01*
X451679Y412756D01*
X451541Y412722D01*
X451480Y412706D01*
X451419Y412700D01*
X451369Y412695D01*
X451325Y412689D01*
X451286Y412683D01*
X451236D01*
X451120Y412689D01*
X451009Y412706D01*
X450904Y412728D01*
X450810Y412756D01*
X450721Y412794D01*
X450638Y412833D01*
X450561Y412872D01*
X450494Y412916D01*
X450433Y412960D01*
X450378Y412999D01*
X450334Y413043D01*
X450295Y413077D01*
X450267Y413104D01*
X450245Y413126D01*
X450234Y413143D01*
X450228Y413149D01*
X450173Y413221D01*
X450129Y413298D01*
X450084Y413370D01*
X450051Y413448D01*
X449996Y413597D01*
X449963Y413741D01*
X449952Y413802D01*
X449940Y413863D01*
X449935Y413913D01*
X449929Y413957D01*
X449924Y413996D01*
Y414024D01*
Y414040D01*
Y414046D01*
X449929Y414145D01*
X449940Y414240D01*
X449957Y414334D01*
X449979Y414417D01*
X450007Y414494D01*
X450035Y414572D01*
X450068Y414638D01*
X450095Y414699D01*
X450129Y414754D01*
X450162Y414804D01*
X450190Y414843D01*
X450217Y414882D01*
X450239Y414910D01*
X450256Y414926D01*
X450267Y414937D01*
X450273Y414943D01*
X450339Y415004D01*
X450406Y415059D01*
X450477Y415103D01*
X450550Y415142D01*
X450621Y415181D01*
X450694Y415209D01*
X450826Y415247D01*
X450887Y415264D01*
X450943Y415275D01*
X450993Y415280D01*
X451037Y415286D01*
X451070Y415291D01*
X451192D01*
X451258Y415280D01*
X451391Y415253D01*
X451513Y415214D01*
X451624Y415170D01*
X451712Y415125D01*
X451751Y415103D01*
X451784Y415087D01*
X451812Y415070D01*
X451829Y415059D01*
X451840Y415053D01*
X451845Y415048D01*
X451640Y416083D01*
X450107D01*
Y416532D01*
X452011D01*
X452382Y414561D01*
D02*
G37*
G36*
X454664Y416637D02*
X454841Y416609D01*
X454996Y416576D01*
X455068Y416554D01*
X455134Y416532D01*
X455195Y416510D01*
X455251Y416488D01*
X455295Y416471D01*
X455339Y416454D01*
X455367Y416438D01*
X455389Y416427D01*
X455406Y416421D01*
X455411Y416416D01*
X455561Y416321D01*
X455688Y416211D01*
X455799Y416100D01*
X455893Y415989D01*
X455965Y415890D01*
X455993Y415845D01*
X456015Y415807D01*
X456037Y415779D01*
X456048Y415757D01*
X456054Y415740D01*
X456059Y415734D01*
X456137Y415563D01*
X456192Y415386D01*
X456231Y415209D01*
X456258Y415048D01*
X456269Y414976D01*
X456275Y414904D01*
X456281Y414849D01*
Y414793D01*
X456286Y414754D01*
Y414721D01*
Y414699D01*
Y414693D01*
X456275Y414494D01*
X456253Y414300D01*
X456225Y414129D01*
X456203Y414046D01*
X456186Y413974D01*
X456170Y413907D01*
X456148Y413846D01*
X456131Y413791D01*
X456120Y413747D01*
X456103Y413713D01*
X456098Y413686D01*
X456087Y413669D01*
Y413664D01*
X456004Y413498D01*
X455910Y413348D01*
X455810Y413221D01*
X455760Y413171D01*
X455716Y413121D01*
X455671Y413077D01*
X455627Y413038D01*
X455588Y413005D01*
X455555Y412982D01*
X455533Y412960D01*
X455511Y412944D01*
X455500Y412938D01*
X455494Y412933D01*
X455417Y412888D01*
X455339Y412850D01*
X455173Y412789D01*
X455007Y412744D01*
X454846Y412717D01*
X454769Y412706D01*
X454702Y412695D01*
X454641Y412689D01*
X454592D01*
X454547Y412683D01*
X454487D01*
X454376Y412689D01*
X454271Y412700D01*
X454171Y412711D01*
X454077Y412733D01*
X453988Y412761D01*
X453905Y412789D01*
X453828Y412816D01*
X453756Y412850D01*
X453695Y412877D01*
X453634Y412905D01*
X453589Y412933D01*
X453545Y412960D01*
X453517Y412982D01*
X453490Y412994D01*
X453479Y413005D01*
X453473Y413010D01*
X453396Y413077D01*
X453329Y413143D01*
X453268Y413221D01*
X453207Y413298D01*
X453108Y413453D01*
X453030Y413608D01*
X452997Y413680D01*
X452969Y413747D01*
X452947Y413808D01*
X452930Y413857D01*
X452914Y413902D01*
X452903Y413935D01*
X452897Y413957D01*
Y413963D01*
X453407Y414090D01*
X453429Y414001D01*
X453456Y413918D01*
X453484Y413841D01*
X453512Y413769D01*
X453545Y413702D01*
X453578Y413647D01*
X453617Y413592D01*
X453650Y413542D01*
X453678Y413498D01*
X453711Y413464D01*
X453739Y413431D01*
X453761Y413403D01*
X453783Y413387D01*
X453800Y413370D01*
X453805Y413365D01*
X453811Y413359D01*
X453866Y413315D01*
X453927Y413282D01*
X454049Y413221D01*
X454165Y413176D01*
X454282Y413149D01*
X454381Y413126D01*
X454420Y413121D01*
X454459D01*
X454492Y413115D01*
X454531D01*
X454658Y413121D01*
X454780Y413143D01*
X454891Y413171D01*
X454990Y413204D01*
X455068Y413237D01*
X455101Y413254D01*
X455129Y413265D01*
X455151Y413276D01*
X455168Y413287D01*
X455179Y413293D01*
X455184D01*
X455289Y413370D01*
X455378Y413453D01*
X455456Y413547D01*
X455516Y413636D01*
X455566Y413713D01*
X455599Y413780D01*
X455611Y413808D01*
X455622Y413824D01*
X455627Y413835D01*
Y413841D01*
X455671Y413985D01*
X455705Y414129D01*
X455732Y414273D01*
X455749Y414406D01*
X455755Y414467D01*
X455760Y414522D01*
Y414572D01*
X455766Y414610D01*
Y414644D01*
Y414671D01*
Y414688D01*
Y414693D01*
X455760Y414837D01*
X455749Y414970D01*
X455727Y415092D01*
X455705Y415203D01*
X455688Y415297D01*
X455677Y415336D01*
X455666Y415369D01*
X455660Y415397D01*
X455655Y415413D01*
X455649Y415424D01*
Y415430D01*
X455594Y415557D01*
X455533Y415674D01*
X455467Y415768D01*
X455395Y415851D01*
X455334Y415917D01*
X455284Y415962D01*
X455245Y415989D01*
X455239Y416000D01*
X455234D01*
X455118Y416072D01*
X454990Y416128D01*
X454869Y416166D01*
X454752Y416189D01*
X454647Y416205D01*
X454603Y416211D01*
X454564D01*
X454536Y416216D01*
X454492D01*
X454354Y416211D01*
X454226Y416189D01*
X454121Y416155D01*
X454027Y416122D01*
X453955Y416083D01*
X453899Y416056D01*
X453866Y416034D01*
X453855Y416022D01*
X453767Y415939D01*
X453684Y415845D01*
X453617Y415746D01*
X453562Y415646D01*
X453517Y415557D01*
X453501Y415513D01*
X453490Y415480D01*
X453479Y415452D01*
X453468Y415430D01*
X453462Y415419D01*
Y415413D01*
X452964Y415530D01*
X452997Y415629D01*
X453030Y415718D01*
X453074Y415801D01*
X453113Y415884D01*
X453158Y415956D01*
X453207Y416022D01*
X453252Y416089D01*
X453296Y416144D01*
X453340Y416189D01*
X453379Y416233D01*
X453418Y416272D01*
X453446Y416299D01*
X453473Y416327D01*
X453495Y416344D01*
X453506Y416349D01*
X453512Y416355D01*
X453589Y416404D01*
X453667Y416454D01*
X453745Y416493D01*
X453828Y416526D01*
X453994Y416576D01*
X454143Y416609D01*
X454215Y416626D01*
X454276Y416632D01*
X454337Y416637D01*
X454387Y416643D01*
X454426Y416648D01*
X454481D01*
X454664Y416637D01*
D02*
G37*
%LPC*%
G36*
X251376Y451658D02*
X251349D01*
X251338D01*
X251205Y451647D01*
X251089Y451625D01*
X250983Y451586D01*
X250900Y451547D01*
X250828Y451508D01*
X250778Y451470D01*
X250751Y451447D01*
X250740Y451436D01*
X250662Y451348D01*
X250607Y451259D01*
X250562Y451165D01*
X250535Y451082D01*
X250518Y451004D01*
X250513Y450949D01*
X250507Y450927D01*
Y450894D01*
X250518Y450777D01*
X250546Y450672D01*
X250579Y450584D01*
X250623Y450506D01*
X250668Y450445D01*
X250701Y450401D01*
X250729Y450373D01*
X250740Y450362D01*
X250834Y450290D01*
X250933Y450235D01*
X251039Y450196D01*
X251138Y450174D01*
X251227Y450157D01*
X251266Y450152D01*
X251299D01*
X251327Y450146D01*
X251349D01*
X251360D01*
X251365D01*
X251515Y450157D01*
X251642Y450179D01*
X251753Y450213D01*
X251847Y450251D01*
X251919Y450296D01*
X251975Y450329D01*
X252008Y450351D01*
X252013Y450362D01*
X252019D01*
X252063Y450401D01*
X252096Y450445D01*
X252157Y450534D01*
X252196Y450622D01*
X252229Y450700D01*
X252246Y450772D01*
X252251Y450827D01*
X252257Y450849D01*
Y450877D01*
X252251Y450955D01*
X252240Y451027D01*
X252218Y451093D01*
X252196Y451148D01*
X252179Y451198D01*
X252157Y451237D01*
X252146Y451259D01*
X252141Y451270D01*
X252091Y451337D01*
X252041Y451392D01*
X251980Y451442D01*
X251930Y451481D01*
X251880Y451514D01*
X251842Y451536D01*
X251814Y451553D01*
X251803Y451558D01*
X251720Y451591D01*
X251637Y451614D01*
X251559Y451636D01*
X251487Y451647D01*
X251426Y451652D01*
X251376Y451658D01*
D02*
G37*
G36*
X448274Y437547D02*
X448241D01*
X448180Y437541D01*
X448119Y437536D01*
X448063Y437519D01*
X448013Y437497D01*
X447919Y437447D01*
X447836Y437392D01*
X447775Y437331D01*
X447725Y437281D01*
X447709Y437259D01*
X447698Y437242D01*
X447687Y437237D01*
Y437231D01*
X447648Y437165D01*
X447615Y437087D01*
X447582Y436998D01*
X447559Y436904D01*
X447537Y436805D01*
X447521Y436699D01*
X447493Y436489D01*
X447482Y436384D01*
X447476Y436290D01*
X447471Y436201D01*
Y436129D01*
X447465Y436063D01*
Y436013D01*
Y435985D01*
Y435980D01*
Y435974D01*
Y435802D01*
X447476Y435648D01*
X447487Y435509D01*
X447499Y435376D01*
X447515Y435265D01*
X447537Y435160D01*
X447559Y435072D01*
X447576Y434989D01*
X447598Y434922D01*
X447620Y434867D01*
X447637Y434817D01*
X447659Y434778D01*
X447670Y434750D01*
X447681Y434734D01*
X447692Y434723D01*
Y434717D01*
X447737Y434662D01*
X447781Y434618D01*
X447825Y434573D01*
X447869Y434540D01*
X447964Y434485D01*
X448047Y434446D01*
X448124Y434424D01*
X448180Y434413D01*
X448202Y434407D01*
X448235D01*
X448296Y434413D01*
X448351Y434418D01*
X448456Y434457D01*
X448551Y434507D01*
X448634Y434562D01*
X448695Y434618D01*
X448744Y434667D01*
X448772Y434706D01*
X448783Y434712D01*
Y434717D01*
X448822Y434784D01*
X448855Y434861D01*
X448888Y434950D01*
X448910Y435044D01*
X448933Y435144D01*
X448949Y435249D01*
X448977Y435465D01*
X448988Y435564D01*
X448994Y435658D01*
X448999Y435747D01*
Y435819D01*
X449005Y435886D01*
Y435935D01*
Y435963D01*
Y435974D01*
X448999Y436146D01*
X448994Y436301D01*
X448983Y436445D01*
X448966Y436578D01*
X448949Y436694D01*
X448927Y436799D01*
X448905Y436893D01*
X448883Y436976D01*
X448861Y437048D01*
X448844Y437109D01*
X448822Y437159D01*
X448805Y437203D01*
X448789Y437231D01*
X448778Y437253D01*
X448767Y437264D01*
Y437270D01*
X448728Y437320D01*
X448689Y437364D01*
X448645Y437397D01*
X448600Y437430D01*
X448512Y437480D01*
X448429Y437514D01*
X448357Y437530D01*
X448296Y437541D01*
X448274Y437547D01*
D02*
G37*
G36*
X451236Y426879D02*
X451147D01*
X451092Y426868D01*
X450993Y426840D01*
X450904Y426801D01*
X450826Y426762D01*
X450765Y426718D01*
X450721Y426679D01*
X450694Y426652D01*
X450682Y426646D01*
Y426641D01*
X450610Y426547D01*
X450555Y426441D01*
X450516Y426330D01*
X450494Y426225D01*
X450477Y426137D01*
X450472Y426098D01*
Y426059D01*
X450466Y426031D01*
Y426009D01*
Y425998D01*
Y425993D01*
X450477Y425849D01*
X450500Y425721D01*
X450533Y425616D01*
X450572Y425528D01*
X450616Y425456D01*
X450649Y425406D01*
X450671Y425373D01*
X450682Y425362D01*
X450765Y425284D01*
X450854Y425229D01*
X450943Y425190D01*
X451031Y425162D01*
X451103Y425146D01*
X451164Y425140D01*
X451186Y425135D01*
X451219D01*
X451336Y425146D01*
X451441Y425168D01*
X451535Y425206D01*
X451618Y425251D01*
X451679Y425289D01*
X451729Y425328D01*
X451757Y425350D01*
X451768Y425362D01*
X451840Y425450D01*
X451895Y425550D01*
X451928Y425649D01*
X451956Y425744D01*
X451973Y425827D01*
X451978Y425860D01*
Y425893D01*
X451984Y425921D01*
Y425937D01*
Y425948D01*
Y425954D01*
X451973Y426098D01*
X451950Y426231D01*
X451912Y426347D01*
X451867Y426441D01*
X451829Y426519D01*
X451790Y426574D01*
X451779Y426591D01*
X451768Y426607D01*
X451757Y426613D01*
Y426618D01*
X451712Y426663D01*
X451668Y426707D01*
X451574Y426768D01*
X451480Y426818D01*
X451391Y426846D01*
X451319Y426868D01*
X451258Y426873D01*
X451236Y426879D01*
D02*
G37*
G36*
X350051Y444508D02*
X350045D01*
X350040D01*
X349951Y444503D01*
X349874Y444480D01*
X349802Y444453D01*
X349741Y444420D01*
X349691Y444392D01*
X349652Y444364D01*
X349630Y444342D01*
X349624Y444336D01*
X349564Y444264D01*
X349519Y444193D01*
X349492Y444115D01*
X349469Y444043D01*
X349458Y443977D01*
X349447Y443927D01*
Y443882D01*
X349453Y443788D01*
X349475Y443700D01*
X349503Y443628D01*
X349536Y443561D01*
X349569Y443511D01*
X349597Y443473D01*
X349619Y443445D01*
X349624Y443439D01*
X349697Y443378D01*
X349768Y443334D01*
X349841Y443301D01*
X349907Y443279D01*
X349968Y443268D01*
X350018Y443257D01*
X350051D01*
X350056D01*
X350062D01*
X350151Y443262D01*
X350234Y443284D01*
X350306Y443312D01*
X350367Y443345D01*
X350416Y443378D01*
X350450Y443406D01*
X350477Y443428D01*
X350483Y443434D01*
X350538Y443500D01*
X350583Y443578D01*
X350610Y443650D01*
X350632Y443722D01*
X350643Y443788D01*
X350649Y443838D01*
X350654Y443871D01*
Y443882D01*
X350649Y443982D01*
X350627Y444071D01*
X350599Y444148D01*
X350566Y444215D01*
X350538Y444264D01*
X350510Y444303D01*
X350488Y444331D01*
X350483Y444336D01*
X350416Y444392D01*
X350339Y444436D01*
X350267Y444464D01*
X350195Y444486D01*
X350134Y444497D01*
X350084Y444503D01*
X350051Y444508D01*
D02*
G37*
G36*
X351839Y444663D02*
X351817D01*
X351806D01*
X351690Y444652D01*
X351585Y444630D01*
X351491Y444597D01*
X351408Y444552D01*
X351347Y444514D01*
X351297Y444480D01*
X351269Y444458D01*
X351258Y444447D01*
X351186Y444364D01*
X351131Y444270D01*
X351092Y444181D01*
X351064Y444093D01*
X351048Y444015D01*
X351042Y443954D01*
X351036Y443932D01*
Y443899D01*
X351048Y443777D01*
X351070Y443666D01*
X351109Y443567D01*
X351147Y443484D01*
X351192Y443417D01*
X351230Y443367D01*
X351253Y443340D01*
X351264Y443329D01*
X351352Y443251D01*
X351446Y443196D01*
X351540Y443157D01*
X351623Y443129D01*
X351707Y443113D01*
X351767Y443107D01*
X351790Y443102D01*
X351806D01*
X351817D01*
X351823D01*
X351939Y443113D01*
X352050Y443135D01*
X352144Y443174D01*
X352221Y443212D01*
X352282Y443251D01*
X352332Y443290D01*
X352360Y443312D01*
X352371Y443323D01*
X352443Y443412D01*
X352498Y443500D01*
X352532Y443595D01*
X352559Y443683D01*
X352576Y443761D01*
X352581Y443827D01*
X352587Y443849D01*
Y443882D01*
X352581Y443960D01*
X352570Y444037D01*
X352554Y444109D01*
X352537Y444170D01*
X352520Y444220D01*
X352504Y444259D01*
X352493Y444281D01*
X352487Y444292D01*
X352443Y444359D01*
X352399Y444414D01*
X352349Y444464D01*
X352299Y444503D01*
X352260Y444536D01*
X352227Y444558D01*
X352199Y444569D01*
X352194Y444575D01*
X352122Y444602D01*
X352055Y444624D01*
X351989Y444641D01*
X351928Y444652D01*
X351878Y444658D01*
X351839Y444663D01*
D02*
G37*
G36*
X357969Y316353D02*
X357947D01*
X357936D01*
X357931D01*
X357781Y316342D01*
X357654Y316320D01*
X357543Y316286D01*
X357449Y316248D01*
X357377Y316203D01*
X357322Y316170D01*
X357288Y316148D01*
X357283Y316137D01*
X357277D01*
X357233Y316098D01*
X357200Y316054D01*
X357139Y315965D01*
X357100Y315877D01*
X357067Y315799D01*
X357050Y315727D01*
X357045Y315672D01*
X357039Y315650D01*
Y315622D01*
X357045Y315544D01*
X357056Y315472D01*
X357078Y315406D01*
X357100Y315351D01*
X357117Y315301D01*
X357139Y315262D01*
X357150Y315240D01*
X357155Y315229D01*
X357205Y315162D01*
X357255Y315107D01*
X357316Y315057D01*
X357366Y315018D01*
X357416Y314985D01*
X357454Y314963D01*
X357482Y314946D01*
X357493Y314941D01*
X357576Y314908D01*
X357659Y314886D01*
X357737Y314863D01*
X357809Y314852D01*
X357870Y314847D01*
X357920Y314841D01*
X357947D01*
X357958D01*
X358091Y314852D01*
X358208Y314874D01*
X358313Y314913D01*
X358396Y314952D01*
X358468Y314991D01*
X358518Y315029D01*
X358545Y315052D01*
X358556Y315063D01*
X358634Y315151D01*
X358689Y315240D01*
X358734Y315334D01*
X358761Y315417D01*
X358778Y315494D01*
X358783Y315550D01*
X358789Y315572D01*
Y315605D01*
X358778Y315722D01*
X358750Y315827D01*
X358717Y315915D01*
X358673Y315993D01*
X358628Y316054D01*
X358595Y316098D01*
X358568Y316126D01*
X358556Y316137D01*
X358462Y316209D01*
X358363Y316264D01*
X358257Y316303D01*
X358158Y316325D01*
X358069Y316342D01*
X358030Y316347D01*
X357997D01*
X357969Y316353D01*
D02*
G37*
G36*
X424556Y316477D02*
X422839D01*
Y315270D01*
X424556Y316477D01*
D02*
G37*
%LPD*%
M02*
