G04*
G04 #@! TF.GenerationSoftware,Altium Limited,Altium Designer,25.7.1 (20)*
G04*
G04 Layer_Color=32768*
%FSLAX44Y44*%
%MOMM*%
G71*
G04*
G04 #@! TF.SameCoordinates,711889C3-5294-40D1-B7F6-5CF0684BB26A*
G04*
G04*
G04 #@! TF.FilePolarity,Positive*
G04*
G01*
G75*
G36*
X484711Y554293D02*
X481077D01*
X480938Y554307D01*
X480744D01*
X480536Y554334D01*
X480314Y554362D01*
X480093Y554390D01*
X479871Y554445D01*
X479843D01*
X479774Y554473D01*
X479663Y554501D01*
X479524Y554556D01*
X479371Y554612D01*
X479191Y554695D01*
X479011Y554778D01*
X478830Y554889D01*
X478803Y554903D01*
X478747Y554958D01*
X478664Y555028D01*
X478539Y555139D01*
X478414Y555264D01*
X478290Y555416D01*
X478165Y555596D01*
X478054Y555804D01*
X478040Y555832D01*
X478012Y555901D01*
X477957Y556026D01*
X477901Y556179D01*
X477860Y556387D01*
X477804Y556609D01*
X477776Y556872D01*
X477763Y557150D01*
Y557177D01*
Y557261D01*
X477776Y557372D01*
X477790Y557538D01*
X477818Y557718D01*
X477846Y557926D01*
X477901Y558134D01*
X477971Y558356D01*
X477985Y558384D01*
X478012Y558453D01*
X478054Y558550D01*
X478109Y558689D01*
X478193Y558842D01*
X478303Y558994D01*
X478414Y559147D01*
X478553Y559299D01*
X478567Y559313D01*
X478595Y559341D01*
X478636Y559383D01*
X478692Y559438D01*
X478858Y559590D01*
X479052Y559743D01*
X479066Y559757D01*
X479094Y559771D01*
X479163Y559812D01*
X479233Y559854D01*
X479316Y559910D01*
X479427Y559965D01*
X479663Y560076D01*
X479677D01*
X479718Y560104D01*
X479787Y560117D01*
X479884Y560159D01*
X479982Y560187D01*
X480106Y560228D01*
X480398Y560298D01*
X480411D01*
X480467Y560312D01*
X480550Y560326D01*
X480647D01*
X480786Y560339D01*
X480925Y560353D01*
X481091Y560367D01*
X482450D01*
Y563321D01*
X484711D01*
Y554293D01*
D02*
G37*
G36*
X476293Y561740D02*
X474393D01*
Y556983D01*
X476293D01*
Y555513D01*
X476029D01*
X475904Y555499D01*
X475766D01*
X475474Y555472D01*
X475461D01*
X475405Y555458D01*
X475336Y555444D01*
X475239Y555430D01*
X475017Y555374D01*
X474906Y555333D01*
X474809Y555291D01*
X474795Y555277D01*
X474767Y555264D01*
X474712Y555236D01*
X474642Y555180D01*
X474504Y555069D01*
X474365Y554903D01*
X474351Y554889D01*
X474337Y554861D01*
X474309Y554806D01*
X474282Y554737D01*
X474240Y554640D01*
X474212Y554529D01*
X474185Y554418D01*
X474171Y554279D01*
X472188D01*
Y561740D01*
X470329D01*
Y563321D01*
X476293D01*
Y561740D01*
D02*
G37*
G36*
X273455Y358223D02*
X273505Y358217D01*
X273566Y358212D01*
X273627Y358206D01*
X273699Y358189D01*
X273848Y358156D01*
X274015Y358106D01*
X274098Y358073D01*
X274175Y358034D01*
X274253Y357985D01*
X274330Y357935D01*
X274336Y357929D01*
X274347Y357924D01*
X274369Y357907D01*
X274397Y357879D01*
X274424Y357852D01*
X274463Y357813D01*
X274502Y357769D01*
X274546Y357724D01*
X274590Y357669D01*
X274635Y357603D01*
X274685Y357536D01*
X274729Y357464D01*
X274768Y357381D01*
X274812Y357298D01*
X274845Y357209D01*
X274878Y357110D01*
X274380Y356993D01*
Y356999D01*
X274375Y357010D01*
X274363Y357032D01*
X274352Y357060D01*
X274341Y357093D01*
X274325Y357137D01*
X274280Y357226D01*
X274225Y357326D01*
X274159Y357425D01*
X274076Y357519D01*
X273987Y357603D01*
X273976Y357614D01*
X273943Y357636D01*
X273887Y357663D01*
X273815Y357702D01*
X273721Y357735D01*
X273616Y357769D01*
X273489Y357791D01*
X273350Y357796D01*
X273306D01*
X273278Y357791D01*
X273239D01*
X273195Y357785D01*
X273090Y357769D01*
X272974Y357747D01*
X272852Y357708D01*
X272724Y357652D01*
X272608Y357580D01*
X272603D01*
X272597Y357569D01*
X272558Y357542D01*
X272509Y357497D01*
X272448Y357431D01*
X272376Y357348D01*
X272309Y357254D01*
X272248Y357137D01*
X272193Y357010D01*
Y357005D01*
X272187Y356993D01*
X272182Y356977D01*
X272176Y356949D01*
X272165Y356916D01*
X272154Y356877D01*
X272138Y356783D01*
X272115Y356672D01*
X272093Y356550D01*
X272082Y356418D01*
X272077Y356274D01*
Y356268D01*
Y356251D01*
Y356224D01*
Y356190D01*
X272082Y356152D01*
Y356102D01*
X272088Y356046D01*
X272093Y355986D01*
X272110Y355853D01*
X272138Y355709D01*
X272171Y355565D01*
X272215Y355421D01*
Y355415D01*
X272220Y355404D01*
X272232Y355388D01*
X272243Y355360D01*
X272276Y355294D01*
X272326Y355216D01*
X272387Y355127D01*
X272464Y355033D01*
X272553Y354950D01*
X272658Y354873D01*
X272663D01*
X272675Y354867D01*
X272691Y354856D01*
X272713Y354845D01*
X272741Y354834D01*
X272774Y354817D01*
X272852Y354784D01*
X272951Y354751D01*
X273062Y354723D01*
X273184Y354701D01*
X273311Y354696D01*
X273350D01*
X273383Y354701D01*
X273422D01*
X273461Y354706D01*
X273561Y354729D01*
X273677Y354756D01*
X273793Y354801D01*
X273915Y354862D01*
X273976Y354895D01*
X274031Y354939D01*
X274037Y354945D01*
X274042Y354950D01*
X274059Y354967D01*
X274081Y354983D01*
X274103Y355011D01*
X274131Y355044D01*
X274164Y355078D01*
X274192Y355122D01*
X274225Y355172D01*
X274264Y355227D01*
X274297Y355282D01*
X274330Y355349D01*
X274358Y355421D01*
X274386Y355498D01*
X274413Y355581D01*
X274435Y355670D01*
X274945Y355543D01*
Y355537D01*
X274939Y355515D01*
X274928Y355482D01*
X274912Y355437D01*
X274895Y355388D01*
X274873Y355327D01*
X274845Y355260D01*
X274812Y355188D01*
X274734Y355033D01*
X274635Y354878D01*
X274574Y354801D01*
X274513Y354723D01*
X274447Y354657D01*
X274369Y354590D01*
X274363Y354585D01*
X274352Y354574D01*
X274325Y354563D01*
X274297Y354540D01*
X274253Y354513D01*
X274208Y354485D01*
X274147Y354457D01*
X274087Y354430D01*
X274015Y354396D01*
X273937Y354369D01*
X273854Y354341D01*
X273765Y354313D01*
X273671Y354291D01*
X273572Y354280D01*
X273466Y354269D01*
X273356Y354264D01*
X273295D01*
X273251Y354269D01*
X273201D01*
X273140Y354275D01*
X273073Y354286D01*
X272996Y354297D01*
X272835Y354324D01*
X272669Y354369D01*
X272503Y354430D01*
X272425Y354468D01*
X272348Y354513D01*
X272342Y354518D01*
X272331Y354524D01*
X272309Y354540D01*
X272287Y354563D01*
X272254Y354585D01*
X272215Y354618D01*
X272171Y354657D01*
X272126Y354701D01*
X272082Y354751D01*
X272032Y354801D01*
X271933Y354928D01*
X271838Y355078D01*
X271755Y355244D01*
Y355249D01*
X271744Y355266D01*
X271739Y355294D01*
X271722Y355327D01*
X271711Y355371D01*
X271695Y355426D01*
X271672Y355487D01*
X271656Y355554D01*
X271639Y355626D01*
X271617Y355709D01*
X271589Y355880D01*
X271567Y356074D01*
X271556Y356274D01*
Y356279D01*
Y356301D01*
Y356334D01*
X271562Y356373D01*
Y356429D01*
X271567Y356484D01*
X271573Y356556D01*
X271584Y356628D01*
X271611Y356788D01*
X271650Y356966D01*
X271706Y357143D01*
X271783Y357315D01*
X271789Y357320D01*
X271794Y357337D01*
X271805Y357359D01*
X271827Y357387D01*
X271849Y357425D01*
X271877Y357470D01*
X271949Y357569D01*
X272043Y357680D01*
X272154Y357791D01*
X272281Y357901D01*
X272431Y357996D01*
X272437Y358001D01*
X272453Y358007D01*
X272475Y358018D01*
X272503Y358034D01*
X272547Y358051D01*
X272591Y358068D01*
X272647Y358090D01*
X272708Y358112D01*
X272774Y358134D01*
X272846Y358156D01*
X273001Y358189D01*
X273179Y358217D01*
X273361Y358228D01*
X273417D01*
X273455Y358223D01*
D02*
G37*
G36*
X280715Y357663D02*
X279181D01*
X278976Y356628D01*
X278981Y356633D01*
X278993Y356639D01*
X279009Y356650D01*
X279037Y356667D01*
X279070Y356683D01*
X279109Y356706D01*
X279197Y356750D01*
X279308Y356794D01*
X279430Y356833D01*
X279563Y356861D01*
X279629Y356872D01*
X279751D01*
X279784Y356866D01*
X279829Y356861D01*
X279879Y356855D01*
X279934Y356844D01*
X279995Y356827D01*
X280128Y356788D01*
X280200Y356761D01*
X280272Y356722D01*
X280344Y356683D01*
X280416Y356639D01*
X280482Y356584D01*
X280548Y356523D01*
X280554Y356517D01*
X280565Y356506D01*
X280582Y356489D01*
X280604Y356462D01*
X280632Y356423D01*
X280659Y356384D01*
X280693Y356334D01*
X280726Y356279D01*
X280753Y356218D01*
X280787Y356152D01*
X280814Y356074D01*
X280842Y355997D01*
X280864Y355914D01*
X280881Y355820D01*
X280892Y355725D01*
X280897Y355626D01*
Y355620D01*
Y355604D01*
Y355576D01*
X280892Y355537D01*
X280886Y355493D01*
X280881Y355443D01*
X280870Y355382D01*
X280859Y355321D01*
X280825Y355177D01*
X280770Y355028D01*
X280737Y354950D01*
X280693Y354878D01*
X280648Y354801D01*
X280593Y354729D01*
X280587Y354723D01*
X280576Y354706D01*
X280554Y354684D01*
X280526Y354657D01*
X280488Y354623D01*
X280443Y354579D01*
X280388Y354540D01*
X280327Y354496D01*
X280261Y354452D01*
X280183Y354413D01*
X280100Y354374D01*
X280011Y354336D01*
X279917Y354308D01*
X279812Y354286D01*
X279701Y354269D01*
X279585Y354264D01*
X279535D01*
X279496Y354269D01*
X279452Y354275D01*
X279402Y354280D01*
X279341Y354286D01*
X279280Y354302D01*
X279142Y354336D01*
X279004Y354385D01*
X278932Y354419D01*
X278860Y354457D01*
X278793Y354502D01*
X278727Y354552D01*
X278721Y354557D01*
X278710Y354563D01*
X278699Y354585D01*
X278677Y354607D01*
X278649Y354635D01*
X278622Y354668D01*
X278588Y354712D01*
X278561Y354762D01*
X278527Y354812D01*
X278494Y354873D01*
X278433Y355005D01*
X278383Y355161D01*
X278367Y355244D01*
X278356Y355332D01*
X278849Y355371D01*
Y355365D01*
Y355354D01*
X278854Y355338D01*
X278860Y355310D01*
X278876Y355249D01*
X278898Y355166D01*
X278932Y355083D01*
X278976Y354989D01*
X279031Y354906D01*
X279098Y354828D01*
X279109Y354823D01*
X279131Y354801D01*
X279175Y354773D01*
X279236Y354740D01*
X279303Y354706D01*
X279386Y354679D01*
X279480Y354657D01*
X279585Y354651D01*
X279618D01*
X279640Y354657D01*
X279707Y354662D01*
X279784Y354684D01*
X279879Y354712D01*
X279973Y354756D01*
X280072Y354823D01*
X280117Y354862D01*
X280161Y354906D01*
X280166Y354911D01*
X280172Y354917D01*
X280183Y354934D01*
X280200Y354950D01*
X280238Y355011D01*
X280283Y355089D01*
X280322Y355183D01*
X280360Y355299D01*
X280388Y355437D01*
X280399Y355509D01*
Y355587D01*
Y355592D01*
Y355604D01*
Y355626D01*
X280393Y355653D01*
Y355687D01*
X280388Y355725D01*
X280371Y355814D01*
X280344Y355919D01*
X280305Y356024D01*
X280250Y356124D01*
X280172Y356218D01*
Y356224D01*
X280161Y356229D01*
X280133Y356257D01*
X280083Y356296D01*
X280017Y356340D01*
X279928Y356379D01*
X279829Y356418D01*
X279712Y356445D01*
X279646Y356456D01*
X279541D01*
X279496Y356451D01*
X279441Y356445D01*
X279375Y356429D01*
X279308Y356412D01*
X279236Y356384D01*
X279164Y356351D01*
X279159Y356345D01*
X279137Y356334D01*
X279103Y356307D01*
X279059Y356279D01*
X279015Y356240D01*
X278970Y356190D01*
X278920Y356141D01*
X278882Y356080D01*
X278439Y356141D01*
X278810Y358112D01*
X280715D01*
Y357663D01*
D02*
G37*
G36*
X277149Y354330D02*
X276678D01*
Y357326D01*
X276672Y357320D01*
X276645Y357298D01*
X276611Y357265D01*
X276556Y357226D01*
X276495Y357176D01*
X276418Y357121D01*
X276329Y357060D01*
X276229Y356999D01*
X276224D01*
X276218Y356993D01*
X276185Y356971D01*
X276130Y356944D01*
X276063Y356910D01*
X275986Y356872D01*
X275903Y356833D01*
X275820Y356794D01*
X275737Y356761D01*
Y357215D01*
X275742D01*
X275753Y357226D01*
X275775Y357231D01*
X275803Y357248D01*
X275836Y357265D01*
X275875Y357287D01*
X275969Y357342D01*
X276080Y357403D01*
X276191Y357481D01*
X276307Y357569D01*
X276423Y357663D01*
X276429Y357669D01*
X276434Y357674D01*
X276451Y357691D01*
X276473Y357708D01*
X276523Y357763D01*
X276589Y357830D01*
X276656Y357907D01*
X276728Y357996D01*
X276789Y358084D01*
X276844Y358178D01*
X277149D01*
Y354330D01*
D02*
G37*
G36*
X286262Y401381D02*
X286311D01*
X286372Y401375D01*
X286439Y401364D01*
X286516Y401353D01*
X286677Y401325D01*
X286843Y401281D01*
X287009Y401220D01*
X287087Y401182D01*
X287164Y401137D01*
X287170Y401132D01*
X287181Y401126D01*
X287203Y401110D01*
X287225Y401087D01*
X287258Y401065D01*
X287297Y401032D01*
X287341Y400993D01*
X287386Y400949D01*
X287430Y400899D01*
X287480Y400849D01*
X287579Y400722D01*
X287674Y400573D01*
X287757Y400406D01*
Y400401D01*
X287768Y400384D01*
X287773Y400356D01*
X287790Y400323D01*
X287801Y400279D01*
X287818Y400224D01*
X287840Y400163D01*
X287856Y400096D01*
X287873Y400024D01*
X287895Y399941D01*
X287923Y399770D01*
X287945Y399576D01*
X287956Y399376D01*
Y399371D01*
Y399349D01*
Y399315D01*
X287950Y399277D01*
Y399221D01*
X287945Y399166D01*
X287939Y399094D01*
X287928Y399022D01*
X287901Y398862D01*
X287862Y398684D01*
X287806Y398507D01*
X287729Y398335D01*
X287724Y398330D01*
X287718Y398313D01*
X287707Y398291D01*
X287685Y398264D01*
X287663Y398225D01*
X287635Y398180D01*
X287563Y398081D01*
X287469Y397970D01*
X287358Y397859D01*
X287231Y397748D01*
X287081Y397654D01*
X287076Y397649D01*
X287059Y397643D01*
X287037Y397632D01*
X287009Y397616D01*
X286965Y397599D01*
X286921Y397582D01*
X286865Y397560D01*
X286804Y397538D01*
X286738Y397516D01*
X286666Y397494D01*
X286511Y397461D01*
X286334Y397433D01*
X286151Y397422D01*
X286096D01*
X286057Y397427D01*
X286007Y397433D01*
X285946Y397438D01*
X285885Y397444D01*
X285813Y397461D01*
X285664Y397494D01*
X285497Y397544D01*
X285415Y397577D01*
X285337Y397616D01*
X285259Y397665D01*
X285182Y397715D01*
X285176Y397721D01*
X285165Y397726D01*
X285143Y397743D01*
X285116Y397771D01*
X285088Y397798D01*
X285049Y397837D01*
X285010Y397881D01*
X284966Y397926D01*
X284922Y397981D01*
X284877Y398047D01*
X284827Y398114D01*
X284783Y398186D01*
X284744Y398269D01*
X284700Y398352D01*
X284667Y398441D01*
X284634Y398540D01*
X285132Y398657D01*
Y398651D01*
X285138Y398640D01*
X285149Y398618D01*
X285160Y398590D01*
X285171Y398557D01*
X285187Y398513D01*
X285232Y398424D01*
X285287Y398324D01*
X285354Y398225D01*
X285437Y398131D01*
X285525Y398047D01*
X285536Y398036D01*
X285569Y398014D01*
X285625Y397987D01*
X285697Y397948D01*
X285791Y397915D01*
X285896Y397881D01*
X286024Y397859D01*
X286162Y397854D01*
X286206D01*
X286234Y397859D01*
X286273D01*
X286317Y397865D01*
X286422Y397881D01*
X286539Y397904D01*
X286660Y397942D01*
X286788Y397998D01*
X286904Y398070D01*
X286910D01*
X286915Y398081D01*
X286954Y398108D01*
X287004Y398153D01*
X287065Y398219D01*
X287136Y398302D01*
X287203Y398396D01*
X287264Y398513D01*
X287319Y398640D01*
Y398646D01*
X287325Y398657D01*
X287330Y398673D01*
X287336Y398701D01*
X287347Y398734D01*
X287358Y398773D01*
X287375Y398867D01*
X287397Y398978D01*
X287419Y399100D01*
X287430Y399232D01*
X287435Y399376D01*
Y399382D01*
Y399399D01*
Y399426D01*
Y399459D01*
X287430Y399498D01*
Y399548D01*
X287425Y399604D01*
X287419Y399664D01*
X287402Y399797D01*
X287375Y399941D01*
X287341Y400085D01*
X287297Y400229D01*
Y400235D01*
X287292Y400246D01*
X287281Y400262D01*
X287269Y400290D01*
X287236Y400356D01*
X287186Y400434D01*
X287125Y400523D01*
X287048Y400617D01*
X286959Y400700D01*
X286854Y400777D01*
X286849D01*
X286838Y400783D01*
X286821Y400794D01*
X286799Y400805D01*
X286771Y400816D01*
X286738Y400833D01*
X286660Y400866D01*
X286561Y400899D01*
X286450Y400927D01*
X286328Y400949D01*
X286201Y400955D01*
X286162D01*
X286129Y400949D01*
X286090D01*
X286051Y400943D01*
X285952Y400921D01*
X285835Y400894D01*
X285719Y400849D01*
X285597Y400788D01*
X285536Y400755D01*
X285481Y400711D01*
X285475Y400705D01*
X285470Y400700D01*
X285453Y400683D01*
X285431Y400667D01*
X285409Y400639D01*
X285381Y400606D01*
X285348Y400573D01*
X285320Y400528D01*
X285287Y400478D01*
X285248Y400423D01*
X285215Y400368D01*
X285182Y400301D01*
X285154Y400229D01*
X285126Y400152D01*
X285099Y400069D01*
X285077Y399980D01*
X284567Y400107D01*
Y400113D01*
X284573Y400135D01*
X284584Y400168D01*
X284601Y400213D01*
X284617Y400262D01*
X284639Y400323D01*
X284667Y400390D01*
X284700Y400462D01*
X284778Y400617D01*
X284877Y400772D01*
X284938Y400849D01*
X284999Y400927D01*
X285066Y400993D01*
X285143Y401060D01*
X285149Y401065D01*
X285160Y401076D01*
X285187Y401087D01*
X285215Y401110D01*
X285259Y401137D01*
X285304Y401165D01*
X285365Y401193D01*
X285425Y401220D01*
X285497Y401254D01*
X285575Y401281D01*
X285658Y401309D01*
X285747Y401337D01*
X285841Y401359D01*
X285940Y401370D01*
X286046Y401381D01*
X286157Y401386D01*
X286217D01*
X286262Y401381D01*
D02*
G37*
G36*
X279650Y400401D02*
X281317D01*
Y399969D01*
X279562Y397488D01*
X279180D01*
Y399969D01*
X278659D01*
Y400401D01*
X279180D01*
Y401320D01*
X279650D01*
Y400401D01*
D02*
G37*
G36*
X282834Y398324D02*
X282840Y398330D01*
X282867Y398352D01*
X282901Y398385D01*
X282956Y398424D01*
X283017Y398474D01*
X283094Y398529D01*
X283183Y398590D01*
X283283Y398651D01*
X283288D01*
X283294Y398657D01*
X283327Y398679D01*
X283382Y398706D01*
X283449Y398740D01*
X283526Y398778D01*
X283609Y398817D01*
X283692Y398856D01*
X283776Y398889D01*
Y398435D01*
X283770D01*
X283759Y398424D01*
X283737Y398419D01*
X283709Y398402D01*
X283676Y398385D01*
X283637Y398363D01*
X283543Y398308D01*
X283432Y398247D01*
X283321Y398169D01*
X283205Y398081D01*
X283089Y397987D01*
X283083Y397981D01*
X283078Y397976D01*
X283061Y397959D01*
X283039Y397942D01*
X282989Y397887D01*
X282923Y397821D01*
X282856Y397743D01*
X282784Y397654D01*
X282723Y397566D01*
X282668Y397472D01*
X282363D01*
Y401320D01*
X282834D01*
Y398324D01*
D02*
G37*
G36*
X59327Y541483D02*
X59383D01*
X59438Y541477D01*
X59510Y541471D01*
X59582Y541460D01*
X59742Y541433D01*
X59920Y541394D01*
X60097Y541339D01*
X60269Y541261D01*
X60274Y541255D01*
X60291Y541250D01*
X60313Y541239D01*
X60340Y541217D01*
X60379Y541194D01*
X60424Y541167D01*
X60523Y541095D01*
X60634Y541001D01*
X60745Y540890D01*
X60855Y540763D01*
X60950Y540613D01*
X60955Y540608D01*
X60961Y540591D01*
X60972Y540569D01*
X60988Y540541D01*
X61005Y540497D01*
X61022Y540452D01*
X61044Y540397D01*
X61066Y540336D01*
X61088Y540270D01*
X61110Y540198D01*
X61143Y540043D01*
X61171Y539866D01*
X61182Y539683D01*
Y539627D01*
X61177Y539589D01*
X61171Y539539D01*
X61165Y539478D01*
X61160Y539417D01*
X61143Y539345D01*
X61110Y539196D01*
X61060Y539030D01*
X61027Y538946D01*
X60988Y538869D01*
X60939Y538791D01*
X60889Y538714D01*
X60883Y538708D01*
X60878Y538697D01*
X60861Y538675D01*
X60833Y538647D01*
X60806Y538620D01*
X60767Y538581D01*
X60723Y538542D01*
X60678Y538498D01*
X60623Y538454D01*
X60556Y538409D01*
X60490Y538359D01*
X60418Y538315D01*
X60335Y538276D01*
X60252Y538232D01*
X60163Y538199D01*
X60064Y538166D01*
X59947Y538664D01*
X59953D01*
X59964Y538670D01*
X59986Y538681D01*
X60014Y538692D01*
X60047Y538703D01*
X60091Y538719D01*
X60180Y538764D01*
X60280Y538819D01*
X60379Y538885D01*
X60473Y538969D01*
X60556Y539057D01*
X60567Y539068D01*
X60590Y539101D01*
X60617Y539157D01*
X60656Y539229D01*
X60689Y539323D01*
X60723Y539428D01*
X60745Y539556D01*
X60750Y539694D01*
Y539738D01*
X60745Y539766D01*
Y539805D01*
X60739Y539849D01*
X60723Y539954D01*
X60700Y540070D01*
X60662Y540192D01*
X60606Y540320D01*
X60534Y540436D01*
Y540442D01*
X60523Y540447D01*
X60496Y540486D01*
X60451Y540536D01*
X60385Y540597D01*
X60302Y540668D01*
X60208Y540735D01*
X60091Y540796D01*
X59964Y540851D01*
X59958D01*
X59947Y540857D01*
X59931Y540862D01*
X59903Y540868D01*
X59870Y540879D01*
X59831Y540890D01*
X59737Y540907D01*
X59626Y540929D01*
X59504Y540951D01*
X59372Y540962D01*
X59227Y540967D01*
X59222D01*
X59205D01*
X59178D01*
X59145D01*
X59106Y540962D01*
X59056D01*
X59001Y540956D01*
X58940Y540951D01*
X58807Y540934D01*
X58663Y540907D01*
X58519Y540873D01*
X58375Y540829D01*
X58369D01*
X58358Y540824D01*
X58342Y540812D01*
X58314Y540801D01*
X58247Y540768D01*
X58170Y540718D01*
X58081Y540657D01*
X57987Y540580D01*
X57904Y540491D01*
X57827Y540386D01*
Y540381D01*
X57821Y540369D01*
X57810Y540353D01*
X57799Y540331D01*
X57788Y540303D01*
X57771Y540270D01*
X57738Y540192D01*
X57705Y540093D01*
X57677Y539982D01*
X57655Y539860D01*
X57649Y539733D01*
Y539694D01*
X57655Y539661D01*
Y539622D01*
X57660Y539583D01*
X57683Y539483D01*
X57710Y539367D01*
X57755Y539251D01*
X57815Y539129D01*
X57849Y539068D01*
X57893Y539013D01*
X57899Y539007D01*
X57904Y539002D01*
X57921Y538985D01*
X57937Y538963D01*
X57965Y538941D01*
X57998Y538913D01*
X58032Y538880D01*
X58076Y538852D01*
X58126Y538819D01*
X58181Y538780D01*
X58236Y538747D01*
X58303Y538714D01*
X58375Y538686D01*
X58452Y538658D01*
X58535Y538631D01*
X58624Y538609D01*
X58497Y538099D01*
X58491D01*
X58469Y538105D01*
X58436Y538116D01*
X58391Y538133D01*
X58342Y538149D01*
X58281Y538171D01*
X58214Y538199D01*
X58142Y538232D01*
X57987Y538310D01*
X57832Y538409D01*
X57755Y538470D01*
X57677Y538531D01*
X57611Y538598D01*
X57544Y538675D01*
X57539Y538681D01*
X57528Y538692D01*
X57516Y538719D01*
X57494Y538747D01*
X57467Y538791D01*
X57439Y538836D01*
X57411Y538897D01*
X57384Y538957D01*
X57350Y539030D01*
X57323Y539107D01*
X57295Y539190D01*
X57267Y539279D01*
X57245Y539373D01*
X57234Y539473D01*
X57223Y539578D01*
X57217Y539688D01*
Y539749D01*
X57223Y539794D01*
Y539843D01*
X57229Y539904D01*
X57240Y539971D01*
X57251Y540048D01*
X57278Y540209D01*
X57323Y540375D01*
X57384Y540541D01*
X57422Y540619D01*
X57467Y540696D01*
X57472Y540702D01*
X57478Y540713D01*
X57494Y540735D01*
X57516Y540757D01*
X57539Y540790D01*
X57572Y540829D01*
X57611Y540873D01*
X57655Y540918D01*
X57705Y540962D01*
X57755Y541012D01*
X57882Y541111D01*
X58032Y541206D01*
X58198Y541289D01*
X58203D01*
X58220Y541300D01*
X58247Y541305D01*
X58281Y541322D01*
X58325Y541333D01*
X58380Y541350D01*
X58441Y541372D01*
X58508Y541388D01*
X58580Y541405D01*
X58663Y541427D01*
X58834Y541455D01*
X59028Y541477D01*
X59227Y541488D01*
X59233D01*
X59255D01*
X59288D01*
X59327Y541483D01*
D02*
G37*
G36*
X58358Y537191D02*
X58353D01*
X58342Y537186D01*
X58319Y537180D01*
X58292Y537174D01*
X58259Y537169D01*
X58220Y537158D01*
X58137Y537130D01*
X58037Y537091D01*
X57943Y537042D01*
X57854Y536986D01*
X57777Y536920D01*
X57771Y536909D01*
X57749Y536887D01*
X57721Y536842D01*
X57694Y536787D01*
X57660Y536721D01*
X57633Y536637D01*
X57611Y536543D01*
X57605Y536444D01*
Y536410D01*
X57611Y536388D01*
X57616Y536327D01*
X57633Y536250D01*
X57660Y536161D01*
X57699Y536067D01*
X57755Y535973D01*
X57832Y535884D01*
X57843Y535873D01*
X57876Y535846D01*
X57926Y535812D01*
X57993Y535768D01*
X58076Y535724D01*
X58170Y535690D01*
X58281Y535663D01*
X58403Y535652D01*
X58408D01*
X58419D01*
X58436D01*
X58458Y535657D01*
X58519Y535663D01*
X58591Y535680D01*
X58679Y535702D01*
X58768Y535740D01*
X58857Y535796D01*
X58940Y535868D01*
X58951Y535879D01*
X58973Y535906D01*
X59006Y535951D01*
X59045Y536012D01*
X59083Y536089D01*
X59117Y536183D01*
X59139Y536289D01*
X59150Y536405D01*
Y536455D01*
X59145Y536493D01*
X59139Y536543D01*
X59128Y536599D01*
X59117Y536665D01*
X59100Y536737D01*
X59516Y536682D01*
Y536654D01*
X59510Y536632D01*
Y536560D01*
X59521Y536499D01*
X59532Y536427D01*
X59549Y536344D01*
X59576Y536250D01*
X59615Y536161D01*
X59665Y536067D01*
Y536062D01*
X59671Y536056D01*
X59693Y536028D01*
X59731Y535990D01*
X59781Y535945D01*
X59853Y535901D01*
X59936Y535862D01*
X60030Y535835D01*
X60086Y535823D01*
X60147D01*
X60152D01*
X60158D01*
X60191D01*
X60235Y535835D01*
X60296Y535846D01*
X60363Y535868D01*
X60435Y535895D01*
X60507Y535940D01*
X60573Y536001D01*
X60579Y536006D01*
X60601Y536034D01*
X60628Y536073D01*
X60662Y536122D01*
X60689Y536189D01*
X60717Y536266D01*
X60739Y536355D01*
X60745Y536455D01*
Y536499D01*
X60734Y536549D01*
X60723Y536615D01*
X60700Y536687D01*
X60673Y536759D01*
X60628Y536837D01*
X60573Y536909D01*
X60567Y536914D01*
X60540Y536936D01*
X60501Y536970D01*
X60446Y537008D01*
X60374Y537047D01*
X60285Y537086D01*
X60180Y537119D01*
X60058Y537141D01*
X60141Y537612D01*
X60147D01*
X60163Y537606D01*
X60185Y537601D01*
X60219Y537595D01*
X60257Y537584D01*
X60302Y537568D01*
X60407Y537534D01*
X60529Y537479D01*
X60651Y537413D01*
X60767Y537330D01*
X60872Y537224D01*
X60878Y537219D01*
X60883Y537208D01*
X60894Y537191D01*
X60911Y537169D01*
X60933Y537141D01*
X60955Y537103D01*
X60977Y537064D01*
X61005Y537014D01*
X61049Y536903D01*
X61094Y536776D01*
X61121Y536626D01*
X61132Y536549D01*
Y536410D01*
X61127Y536349D01*
X61116Y536278D01*
X61099Y536189D01*
X61071Y536089D01*
X61038Y535990D01*
X60994Y535890D01*
Y535884D01*
X60988Y535879D01*
X60972Y535846D01*
X60939Y535796D01*
X60900Y535740D01*
X60844Y535674D01*
X60784Y535607D01*
X60711Y535541D01*
X60628Y535486D01*
X60617Y535480D01*
X60590Y535463D01*
X60540Y535441D01*
X60479Y535414D01*
X60407Y535386D01*
X60324Y535364D01*
X60230Y535347D01*
X60136Y535342D01*
X60125D01*
X60091D01*
X60047Y535347D01*
X59986Y535358D01*
X59914Y535375D01*
X59837Y535403D01*
X59759Y535436D01*
X59682Y535480D01*
X59671Y535486D01*
X59648Y535502D01*
X59610Y535536D01*
X59565Y535580D01*
X59516Y535635D01*
X59460Y535702D01*
X59410Y535779D01*
X59360Y535873D01*
Y535868D01*
X59355Y535857D01*
X59349Y535840D01*
X59344Y535818D01*
X59322Y535757D01*
X59288Y535680D01*
X59244Y535591D01*
X59189Y535502D01*
X59117Y535419D01*
X59034Y535342D01*
X59023Y535336D01*
X58989Y535314D01*
X58934Y535281D01*
X58862Y535248D01*
X58773Y535214D01*
X58668Y535181D01*
X58546Y535159D01*
X58414Y535153D01*
X58408D01*
X58391D01*
X58364D01*
X58330Y535159D01*
X58286Y535164D01*
X58236Y535176D01*
X58181Y535187D01*
X58120Y535198D01*
X57987Y535242D01*
X57915Y535275D01*
X57849Y535308D01*
X57777Y535353D01*
X57705Y535403D01*
X57633Y535458D01*
X57566Y535524D01*
X57561Y535530D01*
X57550Y535541D01*
X57533Y535563D01*
X57511Y535591D01*
X57483Y535624D01*
X57456Y535668D01*
X57422Y535718D01*
X57395Y535779D01*
X57361Y535840D01*
X57328Y535912D01*
X57301Y535984D01*
X57273Y536067D01*
X57251Y536156D01*
X57234Y536250D01*
X57223Y536344D01*
X57217Y536449D01*
Y536499D01*
X57223Y536532D01*
X57229Y536576D01*
X57234Y536626D01*
X57245Y536682D01*
X57256Y536743D01*
X57290Y536875D01*
X57345Y537014D01*
X57378Y537086D01*
X57417Y537152D01*
X57467Y537219D01*
X57516Y537285D01*
X57522Y537291D01*
X57533Y537302D01*
X57550Y537318D01*
X57572Y537335D01*
X57600Y537363D01*
X57638Y537391D01*
X57677Y537424D01*
X57727Y537457D01*
X57782Y537490D01*
X57838Y537523D01*
X57971Y537584D01*
X58126Y537634D01*
X58209Y537651D01*
X58297Y537662D01*
X58358Y537191D01*
D02*
G37*
G36*
X83203Y541483D02*
X83259D01*
X83314Y541477D01*
X83386Y541471D01*
X83458Y541460D01*
X83618Y541433D01*
X83796Y541394D01*
X83973Y541339D01*
X84144Y541261D01*
X84150Y541255D01*
X84167Y541250D01*
X84189Y541239D01*
X84216Y541217D01*
X84255Y541194D01*
X84300Y541167D01*
X84399Y541095D01*
X84510Y541001D01*
X84621Y540890D01*
X84732Y540763D01*
X84826Y540613D01*
X84831Y540608D01*
X84837Y540591D01*
X84848Y540569D01*
X84864Y540541D01*
X84881Y540497D01*
X84898Y540452D01*
X84920Y540397D01*
X84942Y540336D01*
X84964Y540270D01*
X84986Y540198D01*
X85019Y540043D01*
X85047Y539866D01*
X85058Y539683D01*
Y539627D01*
X85053Y539589D01*
X85047Y539539D01*
X85042Y539478D01*
X85036Y539417D01*
X85019Y539345D01*
X84986Y539196D01*
X84936Y539030D01*
X84903Y538946D01*
X84864Y538869D01*
X84815Y538791D01*
X84765Y538714D01*
X84759Y538708D01*
X84754Y538697D01*
X84737Y538675D01*
X84709Y538647D01*
X84682Y538620D01*
X84643Y538581D01*
X84599Y538542D01*
X84554Y538498D01*
X84499Y538454D01*
X84432Y538409D01*
X84366Y538359D01*
X84294Y538315D01*
X84211Y538276D01*
X84128Y538232D01*
X84039Y538199D01*
X83940Y538166D01*
X83823Y538664D01*
X83829D01*
X83840Y538670D01*
X83862Y538681D01*
X83890Y538692D01*
X83923Y538703D01*
X83967Y538719D01*
X84056Y538764D01*
X84156Y538819D01*
X84255Y538885D01*
X84349Y538969D01*
X84432Y539057D01*
X84444Y539068D01*
X84466Y539101D01*
X84493Y539157D01*
X84532Y539229D01*
X84565Y539323D01*
X84599Y539428D01*
X84621Y539556D01*
X84626Y539694D01*
Y539738D01*
X84621Y539766D01*
Y539805D01*
X84615Y539849D01*
X84599Y539954D01*
X84576Y540070D01*
X84538Y540192D01*
X84482Y540320D01*
X84410Y540436D01*
Y540442D01*
X84399Y540447D01*
X84372Y540486D01*
X84327Y540536D01*
X84261Y540597D01*
X84178Y540668D01*
X84084Y540735D01*
X83967Y540796D01*
X83840Y540851D01*
X83834D01*
X83823Y540857D01*
X83807Y540862D01*
X83779Y540868D01*
X83746Y540879D01*
X83707Y540890D01*
X83613Y540907D01*
X83502Y540929D01*
X83380Y540951D01*
X83247Y540962D01*
X83104Y540967D01*
X83098D01*
X83081D01*
X83054D01*
X83020D01*
X82982Y540962D01*
X82932D01*
X82877Y540956D01*
X82816Y540951D01*
X82683Y540934D01*
X82539Y540907D01*
X82395Y540873D01*
X82251Y540829D01*
X82245D01*
X82234Y540824D01*
X82218Y540812D01*
X82190Y540801D01*
X82123Y540768D01*
X82046Y540718D01*
X81957Y540657D01*
X81863Y540580D01*
X81780Y540491D01*
X81703Y540386D01*
Y540381D01*
X81697Y540369D01*
X81686Y540353D01*
X81675Y540331D01*
X81664Y540303D01*
X81647Y540270D01*
X81614Y540192D01*
X81581Y540093D01*
X81553Y539982D01*
X81531Y539860D01*
X81525Y539733D01*
Y539694D01*
X81531Y539661D01*
Y539622D01*
X81537Y539583D01*
X81559Y539483D01*
X81586Y539367D01*
X81631Y539251D01*
X81692Y539129D01*
X81725Y539068D01*
X81769Y539013D01*
X81775Y539007D01*
X81780Y539002D01*
X81797Y538985D01*
X81813Y538963D01*
X81841Y538941D01*
X81874Y538913D01*
X81908Y538880D01*
X81952Y538852D01*
X82002Y538819D01*
X82057Y538780D01*
X82112Y538747D01*
X82179Y538714D01*
X82251Y538686D01*
X82328Y538658D01*
X82411Y538631D01*
X82500Y538609D01*
X82373Y538099D01*
X82367D01*
X82345Y538105D01*
X82312Y538116D01*
X82267Y538133D01*
X82218Y538149D01*
X82157Y538171D01*
X82090Y538199D01*
X82018Y538232D01*
X81863Y538310D01*
X81708Y538409D01*
X81631Y538470D01*
X81553Y538531D01*
X81487Y538598D01*
X81420Y538675D01*
X81415Y538681D01*
X81404Y538692D01*
X81392Y538719D01*
X81370Y538747D01*
X81343Y538791D01*
X81315Y538836D01*
X81287Y538897D01*
X81260Y538957D01*
X81226Y539030D01*
X81199Y539107D01*
X81171Y539190D01*
X81143Y539279D01*
X81121Y539373D01*
X81110Y539473D01*
X81099Y539578D01*
X81094Y539688D01*
Y539749D01*
X81099Y539794D01*
Y539843D01*
X81105Y539904D01*
X81116Y539971D01*
X81127Y540048D01*
X81154Y540209D01*
X81199Y540375D01*
X81260Y540541D01*
X81298Y540619D01*
X81343Y540696D01*
X81348Y540702D01*
X81354Y540713D01*
X81370Y540735D01*
X81392Y540757D01*
X81415Y540790D01*
X81448Y540829D01*
X81487Y540873D01*
X81531Y540918D01*
X81581Y540962D01*
X81631Y541012D01*
X81758Y541111D01*
X81908Y541206D01*
X82074Y541289D01*
X82079D01*
X82096Y541300D01*
X82123Y541305D01*
X82157Y541322D01*
X82201Y541333D01*
X82256Y541350D01*
X82317Y541372D01*
X82384Y541388D01*
X82456Y541405D01*
X82539Y541427D01*
X82710Y541455D01*
X82904Y541477D01*
X83104Y541488D01*
X83109D01*
X83131D01*
X83164D01*
X83203Y541483D01*
D02*
G37*
G36*
X81265Y537728D02*
X81315Y537723D01*
X81370Y537712D01*
X81426Y537701D01*
X81487Y537678D01*
X81492D01*
X81498Y537673D01*
X81531Y537662D01*
X81581Y537640D01*
X81647Y537606D01*
X81725Y537562D01*
X81813Y537507D01*
X81902Y537446D01*
X81996Y537368D01*
X82002D01*
X82007Y537357D01*
X82040Y537330D01*
X82090Y537280D01*
X82162Y537208D01*
X82245Y537125D01*
X82345Y537020D01*
X82456Y536892D01*
X82572Y536754D01*
X82577Y536748D01*
X82594Y536726D01*
X82622Y536693D01*
X82655Y536654D01*
X82699Y536604D01*
X82749Y536543D01*
X82804Y536482D01*
X82865Y536410D01*
X82998Y536272D01*
X83131Y536133D01*
X83198Y536067D01*
X83264Y536006D01*
X83325Y535951D01*
X83386Y535906D01*
X83392D01*
X83397Y535895D01*
X83414Y535884D01*
X83436Y535873D01*
X83497Y535835D01*
X83569Y535790D01*
X83657Y535751D01*
X83751Y535713D01*
X83857Y535690D01*
X83956Y535680D01*
X83962D01*
X83967D01*
X84001Y535685D01*
X84056Y535690D01*
X84117Y535707D01*
X84194Y535729D01*
X84272Y535768D01*
X84349Y535818D01*
X84427Y535884D01*
X84438Y535895D01*
X84460Y535923D01*
X84488Y535962D01*
X84527Y536023D01*
X84560Y536100D01*
X84593Y536189D01*
X84615Y536294D01*
X84621Y536410D01*
Y536444D01*
X84615Y536466D01*
X84610Y536532D01*
X84593Y536610D01*
X84571Y536693D01*
X84532Y536787D01*
X84482Y536875D01*
X84416Y536959D01*
X84405Y536970D01*
X84377Y536992D01*
X84333Y537025D01*
X84266Y537058D01*
X84189Y537097D01*
X84089Y537130D01*
X83978Y537152D01*
X83851Y537163D01*
X83901Y537645D01*
X83906D01*
X83923Y537640D01*
X83951D01*
X83989Y537634D01*
X84034Y537623D01*
X84084Y537612D01*
X84144Y537595D01*
X84205Y537579D01*
X84338Y537534D01*
X84471Y537468D01*
X84538Y537429D01*
X84604Y537379D01*
X84665Y537330D01*
X84720Y537274D01*
X84726Y537269D01*
X84732Y537258D01*
X84748Y537241D01*
X84765Y537213D01*
X84787Y537180D01*
X84809Y537141D01*
X84837Y537097D01*
X84864Y537042D01*
X84892Y536981D01*
X84920Y536914D01*
X84942Y536842D01*
X84964Y536765D01*
X84981Y536682D01*
X84997Y536593D01*
X85003Y536499D01*
X85008Y536399D01*
Y536344D01*
X85003Y536305D01*
X84997Y536261D01*
X84992Y536205D01*
X84981Y536145D01*
X84970Y536084D01*
X84931Y535940D01*
X84875Y535796D01*
X84842Y535724D01*
X84803Y535652D01*
X84754Y535585D01*
X84698Y535524D01*
X84693Y535519D01*
X84687Y535508D01*
X84665Y535497D01*
X84643Y535475D01*
X84615Y535447D01*
X84576Y535419D01*
X84538Y535392D01*
X84488Y535358D01*
X84383Y535303D01*
X84250Y535248D01*
X84183Y535225D01*
X84106Y535214D01*
X84028Y535203D01*
X83945Y535198D01*
X83934D01*
X83906D01*
X83862Y535203D01*
X83801Y535209D01*
X83735Y535220D01*
X83657Y535242D01*
X83574Y535264D01*
X83491Y535297D01*
X83480Y535303D01*
X83452Y535314D01*
X83408Y535336D01*
X83347Y535369D01*
X83281Y535414D01*
X83198Y535469D01*
X83115Y535536D01*
X83020Y535613D01*
X83009Y535624D01*
X82976Y535652D01*
X82949Y535680D01*
X82921Y535707D01*
X82888Y535740D01*
X82843Y535785D01*
X82799Y535829D01*
X82749Y535884D01*
X82694Y535940D01*
X82633Y536006D01*
X82572Y536078D01*
X82500Y536156D01*
X82428Y536244D01*
X82351Y536333D01*
X82345Y536338D01*
X82334Y536349D01*
X82317Y536372D01*
X82295Y536399D01*
X82262Y536432D01*
X82229Y536471D01*
X82157Y536560D01*
X82074Y536654D01*
X81990Y536743D01*
X81919Y536820D01*
X81891Y536853D01*
X81863Y536881D01*
X81858Y536887D01*
X81841Y536903D01*
X81819Y536925D01*
X81786Y536953D01*
X81747Y536981D01*
X81708Y537014D01*
X81614Y537080D01*
Y535192D01*
X81160D01*
Y537734D01*
X81166D01*
X81188D01*
X81221D01*
X81265Y537728D01*
D02*
G37*
G36*
X71265Y541483D02*
X71321D01*
X71376Y541477D01*
X71448Y541471D01*
X71520Y541460D01*
X71680Y541433D01*
X71858Y541394D01*
X72035Y541339D01*
X72207Y541261D01*
X72212Y541255D01*
X72229Y541250D01*
X72251Y541239D01*
X72278Y541217D01*
X72317Y541194D01*
X72362Y541167D01*
X72461Y541095D01*
X72572Y541001D01*
X72683Y540890D01*
X72793Y540763D01*
X72888Y540613D01*
X72893Y540608D01*
X72899Y540591D01*
X72910Y540569D01*
X72926Y540541D01*
X72943Y540497D01*
X72960Y540452D01*
X72982Y540397D01*
X73004Y540336D01*
X73026Y540270D01*
X73048Y540198D01*
X73081Y540043D01*
X73109Y539866D01*
X73120Y539683D01*
Y539627D01*
X73115Y539589D01*
X73109Y539539D01*
X73103Y539478D01*
X73098Y539417D01*
X73081Y539345D01*
X73048Y539196D01*
X72998Y539030D01*
X72965Y538946D01*
X72926Y538869D01*
X72877Y538791D01*
X72827Y538714D01*
X72821Y538708D01*
X72816Y538697D01*
X72799Y538675D01*
X72771Y538647D01*
X72744Y538620D01*
X72705Y538581D01*
X72661Y538542D01*
X72616Y538498D01*
X72561Y538454D01*
X72494Y538409D01*
X72428Y538359D01*
X72356Y538315D01*
X72273Y538276D01*
X72190Y538232D01*
X72101Y538199D01*
X72002Y538166D01*
X71885Y538664D01*
X71891D01*
X71902Y538670D01*
X71924Y538681D01*
X71952Y538692D01*
X71985Y538703D01*
X72029Y538719D01*
X72118Y538764D01*
X72218Y538819D01*
X72317Y538885D01*
X72411Y538969D01*
X72494Y539057D01*
X72505Y539068D01*
X72528Y539101D01*
X72555Y539157D01*
X72594Y539229D01*
X72627Y539323D01*
X72661Y539428D01*
X72683Y539556D01*
X72688Y539694D01*
Y539738D01*
X72683Y539766D01*
Y539805D01*
X72677Y539849D01*
X72661Y539954D01*
X72638Y540070D01*
X72600Y540192D01*
X72544Y540320D01*
X72472Y540436D01*
Y540442D01*
X72461Y540447D01*
X72434Y540486D01*
X72389Y540536D01*
X72323Y540597D01*
X72240Y540668D01*
X72146Y540735D01*
X72029Y540796D01*
X71902Y540851D01*
X71896D01*
X71885Y540857D01*
X71869Y540862D01*
X71841Y540868D01*
X71808Y540879D01*
X71769Y540890D01*
X71675Y540907D01*
X71564Y540929D01*
X71442Y540951D01*
X71309Y540962D01*
X71165Y540967D01*
X71160D01*
X71143D01*
X71116D01*
X71083D01*
X71044Y540962D01*
X70994D01*
X70939Y540956D01*
X70878Y540951D01*
X70745Y540934D01*
X70601Y540907D01*
X70457Y540873D01*
X70313Y540829D01*
X70307D01*
X70296Y540824D01*
X70280Y540812D01*
X70252Y540801D01*
X70185Y540768D01*
X70108Y540718D01*
X70019Y540657D01*
X69925Y540580D01*
X69842Y540491D01*
X69765Y540386D01*
Y540381D01*
X69759Y540369D01*
X69748Y540353D01*
X69737Y540331D01*
X69726Y540303D01*
X69709Y540270D01*
X69676Y540192D01*
X69643Y540093D01*
X69615Y539982D01*
X69593Y539860D01*
X69587Y539733D01*
Y539694D01*
X69593Y539661D01*
Y539622D01*
X69598Y539583D01*
X69621Y539483D01*
X69648Y539367D01*
X69693Y539251D01*
X69753Y539129D01*
X69787Y539068D01*
X69831Y539013D01*
X69837Y539007D01*
X69842Y539002D01*
X69859Y538985D01*
X69875Y538963D01*
X69903Y538941D01*
X69936Y538913D01*
X69970Y538880D01*
X70014Y538852D01*
X70064Y538819D01*
X70119Y538780D01*
X70174Y538747D01*
X70241Y538714D01*
X70313Y538686D01*
X70390Y538658D01*
X70473Y538631D01*
X70562Y538609D01*
X70435Y538099D01*
X70429D01*
X70407Y538105D01*
X70374Y538116D01*
X70329Y538133D01*
X70280Y538149D01*
X70219Y538171D01*
X70152Y538199D01*
X70080Y538232D01*
X69925Y538310D01*
X69770Y538409D01*
X69693Y538470D01*
X69615Y538531D01*
X69549Y538598D01*
X69482Y538675D01*
X69477Y538681D01*
X69466Y538692D01*
X69454Y538719D01*
X69432Y538747D01*
X69405Y538791D01*
X69377Y538836D01*
X69349Y538897D01*
X69322Y538957D01*
X69288Y539030D01*
X69261Y539107D01*
X69233Y539190D01*
X69205Y539279D01*
X69183Y539373D01*
X69172Y539473D01*
X69161Y539578D01*
X69156Y539688D01*
Y539749D01*
X69161Y539794D01*
Y539843D01*
X69167Y539904D01*
X69178Y539971D01*
X69189Y540048D01*
X69216Y540209D01*
X69261Y540375D01*
X69322Y540541D01*
X69360Y540619D01*
X69405Y540696D01*
X69410Y540702D01*
X69416Y540713D01*
X69432Y540735D01*
X69454Y540757D01*
X69477Y540790D01*
X69510Y540829D01*
X69549Y540873D01*
X69593Y540918D01*
X69643Y540962D01*
X69693Y541012D01*
X69820Y541111D01*
X69970Y541206D01*
X70136Y541289D01*
X70141D01*
X70158Y541300D01*
X70185Y541305D01*
X70219Y541322D01*
X70263Y541333D01*
X70318Y541350D01*
X70379Y541372D01*
X70446Y541388D01*
X70518Y541405D01*
X70601Y541427D01*
X70772Y541455D01*
X70966Y541477D01*
X71165Y541488D01*
X71171D01*
X71193D01*
X71226D01*
X71265Y541483D01*
D02*
G37*
G36*
X72107Y537302D02*
X72118Y537291D01*
X72123Y537269D01*
X72140Y537241D01*
X72157Y537208D01*
X72179Y537169D01*
X72234Y537075D01*
X72295Y536964D01*
X72373Y536853D01*
X72461Y536737D01*
X72555Y536621D01*
X72561Y536615D01*
X72566Y536610D01*
X72583Y536593D01*
X72600Y536571D01*
X72655Y536521D01*
X72722Y536455D01*
X72799Y536388D01*
X72888Y536316D01*
X72976Y536255D01*
X73070Y536200D01*
Y535895D01*
X69222D01*
Y536366D01*
X72218D01*
X72212Y536372D01*
X72190Y536399D01*
X72157Y536432D01*
X72118Y536488D01*
X72068Y536549D01*
X72013Y536626D01*
X71952Y536715D01*
X71891Y536815D01*
Y536820D01*
X71885Y536826D01*
X71863Y536859D01*
X71835Y536914D01*
X71802Y536981D01*
X71764Y537058D01*
X71725Y537141D01*
X71686Y537224D01*
X71653Y537307D01*
X72107D01*
Y537302D01*
D02*
G37*
%LPC*%
G36*
X482450Y558689D02*
X481535D01*
X481368Y558675D01*
X481202Y558647D01*
X481174D01*
X481091Y558620D01*
X480966Y558592D01*
X480828Y558536D01*
X480814D01*
X480786Y558523D01*
X480703Y558467D01*
X480606Y558412D01*
X480509Y558329D01*
X480495Y558315D01*
X480467Y558287D01*
X480425Y558245D01*
X480384Y558190D01*
X480273Y558037D01*
X480231Y557954D01*
X480190Y557871D01*
Y557857D01*
X480176Y557829D01*
X480162Y557774D01*
X480148Y557691D01*
X480134Y557593D01*
X480120Y557482D01*
X480106Y557358D01*
Y557205D01*
Y557191D01*
Y557136D01*
X480120Y557066D01*
X480134Y556969D01*
X480190Y556761D01*
X480231Y556650D01*
X480301Y556539D01*
X480314Y556526D01*
X480328Y556498D01*
X480370Y556442D01*
X480425Y556387D01*
X480564Y556262D01*
X480633Y556207D01*
X480731Y556165D01*
X480744D01*
X480786Y556137D01*
X480841Y556123D01*
X480925Y556096D01*
X481119Y556040D01*
X481341Y555999D01*
X481396D01*
X481465Y555985D01*
X481660D01*
X481798Y555971D01*
X482450D01*
Y558689D01*
D02*
G37*
G36*
X280857Y399969D02*
X279650D01*
Y398252D01*
X280857Y399969D01*
D02*
G37*
%LPD*%
M02*
