G04*
G04 #@! TF.GenerationSoftware,Altium Limited,Altium Designer,25.7.1 (20)*
G04*
G04 Layer_Color=128*
%FSLAX44Y44*%
%MOMM*%
G71*
G04*
G04 #@! TF.SameCoordinates,711889C3-5294-40D1-B7F6-5CF0684BB26A*
G04*
G04*
G04 #@! TF.FilePolarity,Positive*
G04*
G01*
G75*
%ADD11C,0.1270*%
D11*
X25910Y518534D02*
X34810D01*
X30360Y514084D02*
Y522984D01*
X25910Y538534D02*
X34810D01*
X30360Y534084D02*
Y542984D01*
X484720Y558800D02*
X495720D01*
X490220Y553300D02*
Y564300D01*
X510120Y558800D02*
X521120D01*
X515620Y553300D02*
Y564300D01*
X459320Y558800D02*
X470320D01*
X464820Y553300D02*
Y564300D01*
X433920Y558800D02*
X444920D01*
X439420Y553300D02*
Y564300D01*
X344300Y509270D02*
X352300D01*
X348300Y505270D02*
Y513270D01*
X384300Y509270D02*
X392300D01*
X388300Y505270D02*
Y513270D01*
X151132Y344890D02*
X161032D01*
X156082Y339940D02*
Y349840D01*
X257762Y430118D02*
X262362D01*
X260062Y427818D02*
Y432418D01*
X257762Y442118D02*
X262362D01*
X260062Y439818D02*
Y444418D01*
X151132Y389890D02*
X161032D01*
X156082Y384940D02*
Y394840D01*
X216132Y389890D02*
X226032D01*
X221082Y384940D02*
Y394840D01*
X216132Y344890D02*
X226032D01*
X221082Y339940D02*
Y349840D01*
X364300Y509270D02*
X372300D01*
X368300Y505270D02*
Y513270D01*
X366440Y199390D02*
X375240D01*
X370840Y194990D02*
Y203790D01*
X23540Y328930D02*
X32340D01*
X27940Y324530D02*
Y333330D01*
X23540Y201930D02*
X32340D01*
X27940Y197530D02*
Y206330D01*
X23540Y430530D02*
X32340D01*
X27940Y426130D02*
Y434930D01*
X23540Y252730D02*
X32340D01*
X27940Y248330D02*
Y257130D01*
X23540Y303530D02*
X32340D01*
X27940Y299130D02*
Y307930D01*
X23540Y405130D02*
X32340D01*
X27940Y400730D02*
Y409530D01*
X23540Y227330D02*
X32340D01*
X27940Y222930D02*
Y231730D01*
X23540Y354330D02*
X32340D01*
X27940Y349930D02*
Y358730D01*
X23540Y278130D02*
X32340D01*
X27940Y273730D02*
Y282530D01*
X23540Y379730D02*
X32340D01*
X27940Y375330D02*
Y384130D01*
X442640Y199390D02*
X451440D01*
X447040Y194990D02*
Y203790D01*
X417240Y199390D02*
X426040D01*
X421640Y194990D02*
Y203790D01*
X391840Y199390D02*
X400640D01*
X396240Y194990D02*
Y203790D01*
X341040Y199390D02*
X349840D01*
X345440Y194990D02*
Y203790D01*
X315640Y199390D02*
X324440D01*
X320040Y194990D02*
Y203790D01*
X290240Y199390D02*
X299040D01*
X294640Y194990D02*
Y203790D01*
X264840Y199390D02*
X273640D01*
X269240Y194990D02*
Y203790D01*
X239440Y199390D02*
X248240D01*
X243840Y194990D02*
Y203790D01*
X214040Y199390D02*
X222840D01*
X218440Y194990D02*
Y203790D01*
X588690Y205740D02*
X597490D01*
X593090Y201340D02*
Y210140D01*
X588690Y231140D02*
X597490D01*
X593090Y226740D02*
Y235540D01*
X588690Y256540D02*
X597490D01*
X593090Y252140D02*
Y260940D01*
X588690Y281940D02*
X597490D01*
X593090Y277540D02*
Y286340D01*
X588690Y307340D02*
X597490D01*
X593090Y302940D02*
Y311740D01*
X588690Y332740D02*
X597490D01*
X593090Y328340D02*
Y337140D01*
X588690Y358140D02*
X597490D01*
X593090Y353740D02*
Y362540D01*
X588690Y383540D02*
X597490D01*
X593090Y379140D02*
Y387940D01*
X588690Y408940D02*
X597490D01*
X593090Y404540D02*
Y413340D01*
X588690Y434340D02*
X597490D01*
X593090Y429940D02*
Y438740D01*
X532447Y265747D02*
X534987D01*
X533717Y264477D02*
Y267017D01*
X462280Y407793D02*
X464820D01*
X463550Y406523D02*
Y409063D01*
X443230Y459740D02*
X445770D01*
X444500Y458470D02*
Y461010D01*
X520700Y533400D02*
X523240D01*
X521970Y532130D02*
Y534670D01*
X518160Y415290D02*
X520700D01*
X519430Y414020D02*
Y416560D01*
X518160Y440690D02*
X520700D01*
X519430Y439420D02*
Y441960D01*
X462636Y417322D02*
X465176D01*
X463906Y416052D02*
Y418592D01*
X462636Y435102D02*
X465176D01*
X463906Y433832D02*
Y436372D01*
X518160Y364490D02*
X520700D01*
X519430Y363220D02*
Y365760D01*
X518160Y389890D02*
X520700D01*
X519430Y388620D02*
Y391160D01*
X518160Y339090D02*
X520700D01*
X519430Y337820D02*
Y340360D01*
X462636Y424688D02*
X465176D01*
X463906Y423418D02*
Y425958D01*
X518160Y288290D02*
X520700D01*
X519430Y287020D02*
Y289560D01*
X518160Y313690D02*
X520700D01*
X519430Y312420D02*
Y314960D01*
X518160Y262890D02*
X520700D01*
X519430Y261620D02*
Y264160D01*
X447040Y273050D02*
X449580D01*
X448310Y271780D02*
Y274320D01*
X521127Y234523D02*
X523667D01*
X522397Y233253D02*
Y235793D01*
X518160Y212090D02*
X520700D01*
X519430Y210820D02*
Y213360D01*
X422250Y305054D02*
X424790D01*
X423520Y303784D02*
Y306324D01*
X358242Y304546D02*
X360782D01*
X359512Y303276D02*
Y305816D01*
X421640Y273050D02*
X424180D01*
X422910Y271780D02*
Y274320D01*
X370840Y273050D02*
X373380D01*
X372110Y271780D02*
Y274320D01*
X396240Y273050D02*
X398780D01*
X397510Y271780D02*
Y274320D01*
X353060Y480060D02*
X355600D01*
X354330Y478790D02*
Y481330D01*
X348590Y453644D02*
X351130D01*
X349860Y452374D02*
Y454914D01*
X182506Y513040D02*
X185046D01*
X183776Y511770D02*
Y514310D01*
X339446Y453644D02*
X341986D01*
X340716Y452374D02*
Y454914D01*
X312700Y359694D02*
X315240D01*
X313970Y358424D02*
Y360964D01*
X111760Y426720D02*
X114300D01*
X113030Y425450D02*
Y427990D01*
X111760Y401320D02*
X114300D01*
X113030Y400050D02*
Y402590D01*
X111760Y375920D02*
X114300D01*
X113030Y374650D02*
Y377190D01*
X320040Y273050D02*
X322580D01*
X321310Y271780D02*
Y274320D01*
X310744Y346456D02*
X313284D01*
X312014Y345186D02*
Y347726D01*
X269240Y273050D02*
X271780D01*
X270510Y271780D02*
Y274320D01*
X294640Y273050D02*
X297180D01*
X295910Y271780D02*
Y274320D01*
X243840Y273050D02*
X246380D01*
X245110Y271780D02*
Y274320D01*
X344170Y263652D02*
X346710D01*
X345440Y262382D02*
Y264922D01*
X217170Y265931D02*
X219710D01*
X218440Y264661D02*
Y267201D01*
X111760Y248920D02*
X114300D01*
X113030Y247650D02*
Y250190D01*
X111760Y198120D02*
X114300D01*
X113030Y196850D02*
Y199390D01*
X111760Y223520D02*
X114300D01*
X113030Y222250D02*
Y224790D01*
X111760Y350520D02*
X114300D01*
X113030Y349250D02*
Y351790D01*
X111760Y325120D02*
X114300D01*
X113030Y323850D02*
Y326390D01*
X111760Y299720D02*
X114300D01*
X113030Y298450D02*
Y300990D01*
X111760Y274320D02*
X114300D01*
X113030Y273050D02*
Y275590D01*
X532130Y443230D02*
X534670D01*
X533400Y441960D02*
Y444500D01*
X532130Y417830D02*
X534670D01*
X533400Y416560D02*
Y419100D01*
X532130Y367030D02*
X534670D01*
X533400Y365760D02*
Y368300D01*
X532130Y392430D02*
X534670D01*
X533400Y391160D02*
Y393700D01*
X422250Y408940D02*
X424790D01*
X423520Y407670D02*
Y410210D01*
X419100Y533400D02*
X421640D01*
X420370Y532130D02*
Y534670D01*
X383540Y480060D02*
X386080D01*
X384810Y478790D02*
Y481330D01*
X363068Y415798D02*
X365608D01*
X364338Y414528D02*
Y417068D01*
X354940Y367030D02*
X357480D01*
X356210Y365760D02*
Y368300D01*
X532130Y290830D02*
X534670D01*
X533400Y289560D02*
Y292100D01*
X532130Y341630D02*
X534670D01*
X533400Y340360D02*
Y342900D01*
X532130Y316230D02*
X534670D01*
X533400Y314960D02*
Y317500D01*
X454660Y262890D02*
X457200D01*
X455930Y261620D02*
Y264160D01*
X429260Y262890D02*
X431800D01*
X430530Y261620D02*
Y264160D01*
X532130Y214630D02*
X534670D01*
X533400Y213360D02*
Y215900D01*
X532130Y235666D02*
X534670D01*
X533400Y234396D02*
Y236936D01*
X417678Y345694D02*
X420218D01*
X418948Y344424D02*
Y346964D01*
X354432Y346456D02*
X356972D01*
X355702Y345186D02*
Y347726D01*
X403860Y262890D02*
X406400D01*
X405130Y261620D02*
Y264160D01*
X378460Y262890D02*
X381000D01*
X379730Y261620D02*
Y264160D01*
X353060Y262890D02*
X355600D01*
X354330Y261620D02*
Y264160D01*
X296520Y397256D02*
X299060D01*
X297790Y395986D02*
Y398526D01*
X233680Y435610D02*
X236220D01*
X234950Y434340D02*
Y436880D01*
X115450Y550632D02*
X117990D01*
X116720Y549362D02*
Y551902D01*
X96520Y421640D02*
X99060D01*
X97790Y420370D02*
Y422910D01*
X96520Y396240D02*
X99060D01*
X97790Y394970D02*
Y397510D01*
X96520Y370840D02*
X99060D01*
X97790Y369570D02*
Y372110D01*
X302260Y262890D02*
X304800D01*
X303530Y261620D02*
Y264160D01*
X327660Y262890D02*
X330200D01*
X328930Y261620D02*
Y264160D01*
X276860Y262890D02*
X279400D01*
X278130Y261620D02*
Y264160D01*
X266040Y354584D02*
X268580D01*
X267310Y353314D02*
Y355854D01*
X226060Y262890D02*
X228600D01*
X227330Y261620D02*
Y264160D01*
X251460Y262890D02*
X254000D01*
X252730Y261620D02*
Y264160D01*
X96520Y193040D02*
X99060D01*
X97790Y191770D02*
Y194310D01*
X96520Y345440D02*
X99060D01*
X97790Y344170D02*
Y346710D01*
X96520Y320040D02*
X99060D01*
X97790Y318770D02*
Y321310D01*
X96520Y294640D02*
X99060D01*
X97790Y293370D02*
Y295910D01*
X96520Y269240D02*
X99060D01*
X97790Y267970D02*
Y270510D01*
X96520Y243840D02*
X99060D01*
X97790Y242570D02*
Y245110D01*
X96520Y219583D02*
X99060D01*
X97790Y218313D02*
Y220853D01*
X430530Y459740D02*
X433070D01*
X431800Y458470D02*
Y461010D01*
X434340Y444500D02*
X436880D01*
X435610Y443230D02*
Y445770D01*
X195725Y455785D02*
X198265D01*
X196995Y454515D02*
Y457055D01*
X193523Y466090D02*
X196063D01*
X194793Y464820D02*
Y467360D01*
X213237Y468507D02*
X215777D01*
X214507Y467237D02*
Y469777D01*
X223520Y459740D02*
X226060D01*
X224790Y458470D02*
Y461010D01*
X207010Y448310D02*
X209550D01*
X208280Y447040D02*
Y449580D01*
X187960Y478790D02*
X190500D01*
X189230Y477520D02*
Y480060D01*
X208280Y481330D02*
X210820D01*
X209550Y480060D02*
Y482600D01*
X320040Y500380D02*
X322580D01*
X321310Y499110D02*
Y501650D01*
X407670Y500380D02*
X410210D01*
X408940Y499110D02*
Y501650D01*
X322580Y487680D02*
X325120D01*
X323850Y486410D02*
Y488950D01*
X400050Y487680D02*
X402590D01*
X401320Y486410D02*
Y488950D01*
X332740Y478790D02*
X335280D01*
X334010Y477520D02*
Y480060D01*
X384810Y467360D02*
X387350D01*
X386080Y466090D02*
Y468630D01*
X231140Y453390D02*
X233680D01*
X232410Y452120D02*
Y454660D01*
X310744Y381000D02*
X313284D01*
X312014Y379730D02*
Y382270D01*
M02*
