G04*
G04 #@! TF.GenerationSoftware,Altium Limited,Altium Designer,25.7.1 (20)*
G04*
G04 Layer_Color=2752767*
%FSLAX44Y44*%
%MOMM*%
G71*
G04*
G04 #@! TF.SameCoordinates,711889C3-5294-40D1-B7F6-5CF0684BB26A*
G04*
G04*
G04 #@! TF.FilePolarity,Positive*
G04*
G01*
G75*
%ADD11C,0.1270*%
%ADD75C,0.1693*%
D11*
X25280Y513454D02*
Y523614D01*
X35440D01*
Y513454D01*
X25280D01*
Y533454D02*
Y543614D01*
X35440D01*
Y533454D01*
X25280D01*
X348300Y504190D02*
X343220Y514350D01*
X353380D01*
X348300Y504190D01*
X388300D02*
X383220Y514350D01*
X393380D01*
X388300Y504190D01*
X156082Y339810D02*
X158622Y342350D01*
X161162D01*
X158622Y344890D01*
X161162Y347430D01*
X158622D01*
X156082Y349970D01*
X153542Y347430D01*
X151002D01*
X153542Y344890D01*
X151002Y342350D01*
X153542D01*
X156082Y339810D01*
X254982Y425038D02*
X257522Y430118D01*
X254982Y435198D01*
X260062Y432658D01*
X265142Y435198D01*
X262602Y430118D01*
X265142Y425038D01*
X260062Y427578D01*
X254982Y425038D01*
Y437038D02*
X257522Y442118D01*
X254982Y447198D01*
X260062Y444658D01*
X265142Y447198D01*
X262602Y442118D01*
X265142Y437038D01*
X260062Y439578D01*
X254982Y437038D01*
X156082Y384810D02*
X158622Y387350D01*
X161162D01*
X158622Y389890D01*
X161162Y392430D01*
X158622D01*
X156082Y394970D01*
X153542Y392430D01*
X151002D01*
X153542Y389890D01*
X151002Y387350D01*
X153542D01*
X156082Y384810D01*
X221082D02*
X223622Y387350D01*
X226162D01*
X223622Y389890D01*
X226162Y392430D01*
X223622D01*
X221082Y394970D01*
X218542Y392430D01*
X216002D01*
X218542Y389890D01*
X216002Y387350D01*
X218542D01*
X221082Y384810D01*
Y339810D02*
X223622Y342350D01*
X226162D01*
X223622Y344890D01*
X226162Y347430D01*
X223622D01*
X221082Y349970D01*
X218542Y347430D01*
X216002D01*
X218542Y344890D01*
X216002Y342350D01*
X218542D01*
X221082Y339810D01*
X368300Y504190D02*
X363220Y514350D01*
X373380D01*
X368300Y504190D01*
X365760Y194310D02*
X368300D01*
X370840Y196850D01*
X373380Y194310D01*
X375920D01*
Y196850D01*
X373380Y199390D01*
X375920Y201930D01*
Y204470D01*
X373380D01*
X370840Y201930D01*
X368300Y204470D01*
X365760D01*
Y201930D01*
X368300Y199390D01*
X365760Y196850D01*
Y194310D01*
X22860Y323850D02*
X25400D01*
X27940Y326390D01*
X30480Y323850D01*
X33020D01*
Y326390D01*
X30480Y328930D01*
X33020Y331470D01*
Y334010D01*
X30480D01*
X27940Y331470D01*
X25400Y334010D01*
X22860D01*
Y331470D01*
X25400Y328930D01*
X22860Y326390D01*
Y323850D01*
Y196850D02*
X25400D01*
X27940Y199390D01*
X30480Y196850D01*
X33020D01*
Y199390D01*
X30480Y201930D01*
X33020Y204470D01*
Y207010D01*
X30480D01*
X27940Y204470D01*
X25400Y207010D01*
X22860D01*
Y204470D01*
X25400Y201930D01*
X22860Y199390D01*
Y196850D01*
Y425450D02*
X25400D01*
X27940Y427990D01*
X30480Y425450D01*
X33020D01*
Y427990D01*
X30480Y430530D01*
X33020Y433070D01*
Y435610D01*
X30480D01*
X27940Y433070D01*
X25400Y435610D01*
X22860D01*
Y433070D01*
X25400Y430530D01*
X22860Y427990D01*
Y425450D01*
Y247650D02*
X25400D01*
X27940Y250190D01*
X30480Y247650D01*
X33020D01*
Y250190D01*
X30480Y252730D01*
X33020Y255270D01*
Y257810D01*
X30480D01*
X27940Y255270D01*
X25400Y257810D01*
X22860D01*
Y255270D01*
X25400Y252730D01*
X22860Y250190D01*
Y247650D01*
Y298450D02*
X25400D01*
X27940Y300990D01*
X30480Y298450D01*
X33020D01*
Y300990D01*
X30480Y303530D01*
X33020Y306070D01*
Y308610D01*
X30480D01*
X27940Y306070D01*
X25400Y308610D01*
X22860D01*
Y306070D01*
X25400Y303530D01*
X22860Y300990D01*
Y298450D01*
Y400050D02*
X25400D01*
X27940Y402590D01*
X30480Y400050D01*
X33020D01*
Y402590D01*
X30480Y405130D01*
X33020Y407670D01*
Y410210D01*
X30480D01*
X27940Y407670D01*
X25400Y410210D01*
X22860D01*
Y407670D01*
X25400Y405130D01*
X22860Y402590D01*
Y400050D01*
Y222250D02*
X25400D01*
X27940Y224790D01*
X30480Y222250D01*
X33020D01*
Y224790D01*
X30480Y227330D01*
X33020Y229870D01*
Y232410D01*
X30480D01*
X27940Y229870D01*
X25400Y232410D01*
X22860D01*
Y229870D01*
X25400Y227330D01*
X22860Y224790D01*
Y222250D01*
Y349250D02*
X25400D01*
X27940Y351790D01*
X30480Y349250D01*
X33020D01*
Y351790D01*
X30480Y354330D01*
X33020Y356870D01*
Y359410D01*
X30480D01*
X27940Y356870D01*
X25400Y359410D01*
X22860D01*
Y356870D01*
X25400Y354330D01*
X22860Y351790D01*
Y349250D01*
Y273050D02*
X25400D01*
X27940Y275590D01*
X30480Y273050D01*
X33020D01*
Y275590D01*
X30480Y278130D01*
X33020Y280670D01*
Y283210D01*
X30480D01*
X27940Y280670D01*
X25400Y283210D01*
X22860D01*
Y280670D01*
X25400Y278130D01*
X22860Y275590D01*
Y273050D01*
Y374650D02*
X25400D01*
X27940Y377190D01*
X30480Y374650D01*
X33020D01*
Y377190D01*
X30480Y379730D01*
X33020Y382270D01*
Y384810D01*
X30480D01*
X27940Y382270D01*
X25400Y384810D01*
X22860D01*
Y382270D01*
X25400Y379730D01*
X22860Y377190D01*
Y374650D01*
X441960Y194310D02*
X444500D01*
X447040Y196850D01*
X449580Y194310D01*
X452120D01*
Y196850D01*
X449580Y199390D01*
X452120Y201930D01*
Y204470D01*
X449580D01*
X447040Y201930D01*
X444500Y204470D01*
X441960D01*
Y201930D01*
X444500Y199390D01*
X441960Y196850D01*
Y194310D01*
X416560D02*
X419100D01*
X421640Y196850D01*
X424180Y194310D01*
X426720D01*
Y196850D01*
X424180Y199390D01*
X426720Y201930D01*
Y204470D01*
X424180D01*
X421640Y201930D01*
X419100Y204470D01*
X416560D01*
Y201930D01*
X419100Y199390D01*
X416560Y196850D01*
Y194310D01*
X391160D02*
X393700D01*
X396240Y196850D01*
X398780Y194310D01*
X401320D01*
Y196850D01*
X398780Y199390D01*
X401320Y201930D01*
Y204470D01*
X398780D01*
X396240Y201930D01*
X393700Y204470D01*
X391160D01*
Y201930D01*
X393700Y199390D01*
X391160Y196850D01*
Y194310D01*
X340360D02*
X342900D01*
X345440Y196850D01*
X347980Y194310D01*
X350520D01*
Y196850D01*
X347980Y199390D01*
X350520Y201930D01*
Y204470D01*
X347980D01*
X345440Y201930D01*
X342900Y204470D01*
X340360D01*
Y201930D01*
X342900Y199390D01*
X340360Y196850D01*
Y194310D01*
X314960D02*
X317500D01*
X320040Y196850D01*
X322580Y194310D01*
X325120D01*
Y196850D01*
X322580Y199390D01*
X325120Y201930D01*
Y204470D01*
X322580D01*
X320040Y201930D01*
X317500Y204470D01*
X314960D01*
Y201930D01*
X317500Y199390D01*
X314960Y196850D01*
Y194310D01*
X289560D02*
X292100D01*
X294640Y196850D01*
X297180Y194310D01*
X299720D01*
Y196850D01*
X297180Y199390D01*
X299720Y201930D01*
Y204470D01*
X297180D01*
X294640Y201930D01*
X292100Y204470D01*
X289560D01*
Y201930D01*
X292100Y199390D01*
X289560Y196850D01*
Y194310D01*
X264160D02*
X266700D01*
X269240Y196850D01*
X271780Y194310D01*
X274320D01*
Y196850D01*
X271780Y199390D01*
X274320Y201930D01*
Y204470D01*
X271780D01*
X269240Y201930D01*
X266700Y204470D01*
X264160D01*
Y201930D01*
X266700Y199390D01*
X264160Y196850D01*
Y194310D01*
X238760D02*
X241300D01*
X243840Y196850D01*
X246380Y194310D01*
X248920D01*
Y196850D01*
X246380Y199390D01*
X248920Y201930D01*
Y204470D01*
X246380D01*
X243840Y201930D01*
X241300Y204470D01*
X238760D01*
Y201930D01*
X241300Y199390D01*
X238760Y196850D01*
Y194310D01*
X213360D02*
X215900D01*
X218440Y196850D01*
X220980Y194310D01*
X223520D01*
Y196850D01*
X220980Y199390D01*
X223520Y201930D01*
Y204470D01*
X220980D01*
X218440Y201930D01*
X215900Y204470D01*
X213360D01*
Y201930D01*
X215900Y199390D01*
X213360Y196850D01*
Y194310D01*
X588010Y200660D02*
X590550D01*
X593090Y203200D01*
X595630Y200660D01*
X598170D01*
Y203200D01*
X595630Y205740D01*
X598170Y208280D01*
Y210820D01*
X595630D01*
X593090Y208280D01*
X590550Y210820D01*
X588010D01*
Y208280D01*
X590550Y205740D01*
X588010Y203200D01*
Y200660D01*
Y226060D02*
X590550D01*
X593090Y228600D01*
X595630Y226060D01*
X598170D01*
Y228600D01*
X595630Y231140D01*
X598170Y233680D01*
Y236220D01*
X595630D01*
X593090Y233680D01*
X590550Y236220D01*
X588010D01*
Y233680D01*
X590550Y231140D01*
X588010Y228600D01*
Y226060D01*
Y251460D02*
X590550D01*
X593090Y254000D01*
X595630Y251460D01*
X598170D01*
Y254000D01*
X595630Y256540D01*
X598170Y259080D01*
Y261620D01*
X595630D01*
X593090Y259080D01*
X590550Y261620D01*
X588010D01*
Y259080D01*
X590550Y256540D01*
X588010Y254000D01*
Y251460D01*
Y276860D02*
X590550D01*
X593090Y279400D01*
X595630Y276860D01*
X598170D01*
Y279400D01*
X595630Y281940D01*
X598170Y284480D01*
Y287020D01*
X595630D01*
X593090Y284480D01*
X590550Y287020D01*
X588010D01*
Y284480D01*
X590550Y281940D01*
X588010Y279400D01*
Y276860D01*
Y302260D02*
X590550D01*
X593090Y304800D01*
X595630Y302260D01*
X598170D01*
Y304800D01*
X595630Y307340D01*
X598170Y309880D01*
Y312420D01*
X595630D01*
X593090Y309880D01*
X590550Y312420D01*
X588010D01*
Y309880D01*
X590550Y307340D01*
X588010Y304800D01*
Y302260D01*
Y327660D02*
X590550D01*
X593090Y330200D01*
X595630Y327660D01*
X598170D01*
Y330200D01*
X595630Y332740D01*
X598170Y335280D01*
Y337820D01*
X595630D01*
X593090Y335280D01*
X590550Y337820D01*
X588010D01*
Y335280D01*
X590550Y332740D01*
X588010Y330200D01*
Y327660D01*
Y353060D02*
X590550D01*
X593090Y355600D01*
X595630Y353060D01*
X598170D01*
Y355600D01*
X595630Y358140D01*
X598170Y360680D01*
Y363220D01*
X595630D01*
X593090Y360680D01*
X590550Y363220D01*
X588010D01*
Y360680D01*
X590550Y358140D01*
X588010Y355600D01*
Y353060D01*
Y378460D02*
X590550D01*
X593090Y381000D01*
X595630Y378460D01*
X598170D01*
Y381000D01*
X595630Y383540D01*
X598170Y386080D01*
Y388620D01*
X595630D01*
X593090Y386080D01*
X590550Y388620D01*
X588010D01*
Y386080D01*
X590550Y383540D01*
X588010Y381000D01*
Y378460D01*
Y403860D02*
X590550D01*
X593090Y406400D01*
X595630Y403860D01*
X598170D01*
Y406400D01*
X595630Y408940D01*
X598170Y411480D01*
Y414020D01*
X595630D01*
X593090Y411480D01*
X590550Y414020D01*
X588010D01*
Y411480D01*
X590550Y408940D01*
X588010Y406400D01*
Y403860D01*
Y429260D02*
X590550D01*
X593090Y431800D01*
X595630Y429260D01*
X598170D01*
Y431800D01*
X595630Y434340D01*
X598170Y436880D01*
Y439420D01*
X595630D01*
X593090Y436880D01*
X590550Y439420D01*
X588010D01*
Y436880D01*
X590550Y434340D01*
X588010Y431800D01*
Y429260D01*
X531177Y263207D02*
Y260667D01*
X536257D01*
Y263207D01*
X538797D01*
Y268287D01*
X536257D01*
Y270827D01*
X531177D01*
Y268287D01*
X528637D01*
Y263207D01*
X531177D01*
X461010Y405253D02*
Y402713D01*
X466090D01*
Y405253D01*
X468630D01*
Y410333D01*
X466090D01*
Y412873D01*
X461010D01*
Y410333D01*
X458470D01*
Y405253D01*
X461010D01*
X441960Y457200D02*
Y454660D01*
X447040D01*
Y457200D01*
X449580D01*
Y462280D01*
X447040D01*
Y464820D01*
X441960D01*
Y462280D01*
X439420D01*
Y457200D01*
X441960D01*
X519430Y530860D02*
Y528320D01*
X524510D01*
Y530860D01*
X527050D01*
Y535940D01*
X524510D01*
Y538480D01*
X519430D01*
Y535940D01*
X516890D01*
Y530860D01*
X519430D01*
X516890Y412750D02*
Y410210D01*
X521970D01*
Y412750D01*
X524510D01*
Y417830D01*
X521970D01*
Y420370D01*
X516890D01*
Y417830D01*
X514350D01*
Y412750D01*
X516890D01*
Y438150D02*
Y435610D01*
X521970D01*
Y438150D01*
X524510D01*
Y443230D01*
X521970D01*
Y445770D01*
X516890D01*
Y443230D01*
X514350D01*
Y438150D01*
X516890D01*
X461366Y414782D02*
Y412242D01*
X466446D01*
Y414782D01*
X468986D01*
Y419862D01*
X466446D01*
Y422402D01*
X461366D01*
Y419862D01*
X458826D01*
Y414782D01*
X461366D01*
Y432562D02*
Y430022D01*
X466446D01*
Y432562D01*
X468986D01*
Y437642D01*
X466446D01*
Y440182D01*
X461366D01*
Y437642D01*
X458826D01*
Y432562D01*
X461366D01*
X516890Y361950D02*
Y359410D01*
X521970D01*
Y361950D01*
X524510D01*
Y367030D01*
X521970D01*
Y369570D01*
X516890D01*
Y367030D01*
X514350D01*
Y361950D01*
X516890D01*
Y387350D02*
Y384810D01*
X521970D01*
Y387350D01*
X524510D01*
Y392430D01*
X521970D01*
Y394970D01*
X516890D01*
Y392430D01*
X514350D01*
Y387350D01*
X516890D01*
Y336550D02*
Y334010D01*
X521970D01*
Y336550D01*
X524510D01*
Y341630D01*
X521970D01*
Y344170D01*
X516890D01*
Y341630D01*
X514350D01*
Y336550D01*
X516890D01*
X461366Y422148D02*
Y419608D01*
X466446D01*
Y422148D01*
X468986D01*
Y427228D01*
X466446D01*
Y429768D01*
X461366D01*
Y427228D01*
X458826D01*
Y422148D01*
X461366D01*
X516890Y285750D02*
Y283210D01*
X521970D01*
Y285750D01*
X524510D01*
Y290830D01*
X521970D01*
Y293370D01*
X516890D01*
Y290830D01*
X514350D01*
Y285750D01*
X516890D01*
Y311150D02*
Y308610D01*
X521970D01*
Y311150D01*
X524510D01*
Y316230D01*
X521970D01*
Y318770D01*
X516890D01*
Y316230D01*
X514350D01*
Y311150D01*
X516890D01*
Y260350D02*
Y257810D01*
X521970D01*
Y260350D01*
X524510D01*
Y265430D01*
X521970D01*
Y267970D01*
X516890D01*
Y265430D01*
X514350D01*
Y260350D01*
X516890D01*
X445770Y270510D02*
Y267970D01*
X450850D01*
Y270510D01*
X453390D01*
Y275590D01*
X450850D01*
Y278130D01*
X445770D01*
Y275590D01*
X443230D01*
Y270510D01*
X445770D01*
X519857Y231983D02*
Y229443D01*
X524937D01*
Y231983D01*
X527477D01*
Y237063D01*
X524937D01*
Y239603D01*
X519857D01*
Y237063D01*
X517317D01*
Y231983D01*
X519857D01*
X516890Y209550D02*
Y207010D01*
X521970D01*
Y209550D01*
X524510D01*
Y214630D01*
X521970D01*
Y217170D01*
X516890D01*
Y214630D01*
X514350D01*
Y209550D01*
X516890D01*
X420980Y302514D02*
Y299974D01*
X426060D01*
Y302514D01*
X428600D01*
Y307594D01*
X426060D01*
Y310134D01*
X420980D01*
Y307594D01*
X418440D01*
Y302514D01*
X420980D01*
X356972Y302006D02*
Y299466D01*
X362052D01*
Y302006D01*
X364592D01*
Y307086D01*
X362052D01*
Y309626D01*
X356972D01*
Y307086D01*
X354432D01*
Y302006D01*
X356972D01*
X420370Y270510D02*
Y267970D01*
X425450D01*
Y270510D01*
X427990D01*
Y275590D01*
X425450D01*
Y278130D01*
X420370D01*
Y275590D01*
X417830D01*
Y270510D01*
X420370D01*
X369570D02*
Y267970D01*
X374650D01*
Y270510D01*
X377190D01*
Y275590D01*
X374650D01*
Y278130D01*
X369570D01*
Y275590D01*
X367030D01*
Y270510D01*
X369570D01*
X394970D02*
Y267970D01*
X400050D01*
Y270510D01*
X402590D01*
Y275590D01*
X400050D01*
Y278130D01*
X394970D01*
Y275590D01*
X392430D01*
Y270510D01*
X394970D01*
X351790Y477520D02*
Y474980D01*
X356870D01*
Y477520D01*
X359410D01*
Y482600D01*
X356870D01*
Y485140D01*
X351790D01*
Y482600D01*
X349250D01*
Y477520D01*
X351790D01*
X347320Y451104D02*
Y448564D01*
X352400D01*
Y451104D01*
X354940D01*
Y456184D01*
X352400D01*
Y458724D01*
X347320D01*
Y456184D01*
X344780D01*
Y451104D01*
X347320D01*
X181236Y510500D02*
Y507960D01*
X186316D01*
Y510500D01*
X188856D01*
Y515580D01*
X186316D01*
Y518120D01*
X181236D01*
Y515580D01*
X178696D01*
Y510500D01*
X181236D01*
X338176Y451104D02*
Y448564D01*
X343256D01*
Y451104D01*
X345796D01*
Y456184D01*
X343256D01*
Y458724D01*
X338176D01*
Y456184D01*
X335636D01*
Y451104D01*
X338176D01*
X311430Y357154D02*
Y354614D01*
X316510D01*
Y357154D01*
X319050D01*
Y362234D01*
X316510D01*
Y364774D01*
X311430D01*
Y362234D01*
X308890D01*
Y357154D01*
X311430D01*
X110490Y424180D02*
Y421640D01*
X115570D01*
Y424180D01*
X118110D01*
Y429260D01*
X115570D01*
Y431800D01*
X110490D01*
Y429260D01*
X107950D01*
Y424180D01*
X110490D01*
Y398780D02*
Y396240D01*
X115570D01*
Y398780D01*
X118110D01*
Y403860D01*
X115570D01*
Y406400D01*
X110490D01*
Y403860D01*
X107950D01*
Y398780D01*
X110490D01*
Y373380D02*
Y370840D01*
X115570D01*
Y373380D01*
X118110D01*
Y378460D01*
X115570D01*
Y381000D01*
X110490D01*
Y378460D01*
X107950D01*
Y373380D01*
X110490D01*
X318770Y270510D02*
Y267970D01*
X323850D01*
Y270510D01*
X326390D01*
Y275590D01*
X323850D01*
Y278130D01*
X318770D01*
Y275590D01*
X316230D01*
Y270510D01*
X318770D01*
X309474Y343916D02*
Y341376D01*
X314554D01*
Y343916D01*
X317094D01*
Y348996D01*
X314554D01*
Y351536D01*
X309474D01*
Y348996D01*
X306934D01*
Y343916D01*
X309474D01*
X267970Y270510D02*
Y267970D01*
X273050D01*
Y270510D01*
X275590D01*
Y275590D01*
X273050D01*
Y278130D01*
X267970D01*
Y275590D01*
X265430D01*
Y270510D01*
X267970D01*
X293370D02*
Y267970D01*
X298450D01*
Y270510D01*
X300990D01*
Y275590D01*
X298450D01*
Y278130D01*
X293370D01*
Y275590D01*
X290830D01*
Y270510D01*
X293370D01*
X242570D02*
Y267970D01*
X247650D01*
Y270510D01*
X250190D01*
Y275590D01*
X247650D01*
Y278130D01*
X242570D01*
Y275590D01*
X240030D01*
Y270510D01*
X242570D01*
X342900Y261112D02*
Y258572D01*
X347980D01*
Y261112D01*
X350520D01*
Y266192D01*
X347980D01*
Y268732D01*
X342900D01*
Y266192D01*
X340360D01*
Y261112D01*
X342900D01*
X215900Y263391D02*
Y260851D01*
X220980D01*
Y263391D01*
X223520D01*
Y268471D01*
X220980D01*
Y271011D01*
X215900D01*
Y268471D01*
X213360D01*
Y263391D01*
X215900D01*
X110490Y246380D02*
Y243840D01*
X115570D01*
Y246380D01*
X118110D01*
Y251460D01*
X115570D01*
Y254000D01*
X110490D01*
Y251460D01*
X107950D01*
Y246380D01*
X110490D01*
Y195580D02*
Y193040D01*
X115570D01*
Y195580D01*
X118110D01*
Y200660D01*
X115570D01*
Y203200D01*
X110490D01*
Y200660D01*
X107950D01*
Y195580D01*
X110490D01*
Y220980D02*
Y218440D01*
X115570D01*
Y220980D01*
X118110D01*
Y226060D01*
X115570D01*
Y228600D01*
X110490D01*
Y226060D01*
X107950D01*
Y220980D01*
X110490D01*
Y347980D02*
Y345440D01*
X115570D01*
Y347980D01*
X118110D01*
Y353060D01*
X115570D01*
Y355600D01*
X110490D01*
Y353060D01*
X107950D01*
Y347980D01*
X110490D01*
Y322580D02*
Y320040D01*
X115570D01*
Y322580D01*
X118110D01*
Y327660D01*
X115570D01*
Y330200D01*
X110490D01*
Y327660D01*
X107950D01*
Y322580D01*
X110490D01*
Y297180D02*
Y294640D01*
X115570D01*
Y297180D01*
X118110D01*
Y302260D01*
X115570D01*
Y304800D01*
X110490D01*
Y302260D01*
X107950D01*
Y297180D01*
X110490D01*
Y271780D02*
Y269240D01*
X115570D01*
Y271780D01*
X118110D01*
Y276860D01*
X115570D01*
Y279400D01*
X110490D01*
Y276860D01*
X107950D01*
Y271780D01*
X110490D01*
X530860Y440690D02*
Y438150D01*
X535940D01*
Y440690D01*
X538480D01*
Y445770D01*
X535940D01*
Y448310D01*
X530860D01*
Y445770D01*
X528320D01*
Y440690D01*
X530860D01*
Y415290D02*
Y412750D01*
X535940D01*
Y415290D01*
X538480D01*
Y420370D01*
X535940D01*
Y422910D01*
X530860D01*
Y420370D01*
X528320D01*
Y415290D01*
X530860D01*
Y364490D02*
Y361950D01*
X535940D01*
Y364490D01*
X538480D01*
Y369570D01*
X535940D01*
Y372110D01*
X530860D01*
Y369570D01*
X528320D01*
Y364490D01*
X530860D01*
Y389890D02*
Y387350D01*
X535940D01*
Y389890D01*
X538480D01*
Y394970D01*
X535940D01*
Y397510D01*
X530860D01*
Y394970D01*
X528320D01*
Y389890D01*
X530860D01*
X420980Y406400D02*
Y403860D01*
X426060D01*
Y406400D01*
X428600D01*
Y411480D01*
X426060D01*
Y414020D01*
X420980D01*
Y411480D01*
X418440D01*
Y406400D01*
X420980D01*
X417830Y530860D02*
Y528320D01*
X422910D01*
Y530860D01*
X425450D01*
Y535940D01*
X422910D01*
Y538480D01*
X417830D01*
Y535940D01*
X415290D01*
Y530860D01*
X417830D01*
X382270Y477520D02*
Y474980D01*
X387350D01*
Y477520D01*
X389890D01*
Y482600D01*
X387350D01*
Y485140D01*
X382270D01*
Y482600D01*
X379730D01*
Y477520D01*
X382270D01*
X361798Y413258D02*
Y410718D01*
X366878D01*
Y413258D01*
X369418D01*
Y418338D01*
X366878D01*
Y420878D01*
X361798D01*
Y418338D01*
X359258D01*
Y413258D01*
X361798D01*
X353670Y364490D02*
Y361950D01*
X358750D01*
Y364490D01*
X361290D01*
Y369570D01*
X358750D01*
Y372110D01*
X353670D01*
Y369570D01*
X351130D01*
Y364490D01*
X353670D01*
X530860Y288290D02*
Y285750D01*
X535940D01*
Y288290D01*
X538480D01*
Y293370D01*
X535940D01*
Y295910D01*
X530860D01*
Y293370D01*
X528320D01*
Y288290D01*
X530860D01*
Y339090D02*
Y336550D01*
X535940D01*
Y339090D01*
X538480D01*
Y344170D01*
X535940D01*
Y346710D01*
X530860D01*
Y344170D01*
X528320D01*
Y339090D01*
X530860D01*
Y313690D02*
Y311150D01*
X535940D01*
Y313690D01*
X538480D01*
Y318770D01*
X535940D01*
Y321310D01*
X530860D01*
Y318770D01*
X528320D01*
Y313690D01*
X530860D01*
X453390Y260350D02*
Y257810D01*
X458470D01*
Y260350D01*
X461010D01*
Y265430D01*
X458470D01*
Y267970D01*
X453390D01*
Y265430D01*
X450850D01*
Y260350D01*
X453390D01*
X427990D02*
Y257810D01*
X433070D01*
Y260350D01*
X435610D01*
Y265430D01*
X433070D01*
Y267970D01*
X427990D01*
Y265430D01*
X425450D01*
Y260350D01*
X427990D01*
X530860Y212090D02*
Y209550D01*
X535940D01*
Y212090D01*
X538480D01*
Y217170D01*
X535940D01*
Y219710D01*
X530860D01*
Y217170D01*
X528320D01*
Y212090D01*
X530860D01*
Y233126D02*
Y230586D01*
X535940D01*
Y233126D01*
X538480D01*
Y238206D01*
X535940D01*
Y240746D01*
X530860D01*
Y238206D01*
X528320D01*
Y233126D01*
X530860D01*
X416408Y343154D02*
Y340614D01*
X421488D01*
Y343154D01*
X424028D01*
Y348234D01*
X421488D01*
Y350774D01*
X416408D01*
Y348234D01*
X413868D01*
Y343154D01*
X416408D01*
X353162Y343916D02*
Y341376D01*
X358242D01*
Y343916D01*
X360782D01*
Y348996D01*
X358242D01*
Y351536D01*
X353162D01*
Y348996D01*
X350622D01*
Y343916D01*
X353162D01*
X402590Y260350D02*
Y257810D01*
X407670D01*
Y260350D01*
X410210D01*
Y265430D01*
X407670D01*
Y267970D01*
X402590D01*
Y265430D01*
X400050D01*
Y260350D01*
X402590D01*
X377190D02*
Y257810D01*
X382270D01*
Y260350D01*
X384810D01*
Y265430D01*
X382270D01*
Y267970D01*
X377190D01*
Y265430D01*
X374650D01*
Y260350D01*
X377190D01*
X351790D02*
Y257810D01*
X356870D01*
Y260350D01*
X359410D01*
Y265430D01*
X356870D01*
Y267970D01*
X351790D01*
Y265430D01*
X349250D01*
Y260350D01*
X351790D01*
X295250Y394716D02*
Y392176D01*
X300330D01*
Y394716D01*
X302870D01*
Y399796D01*
X300330D01*
Y402336D01*
X295250D01*
Y399796D01*
X292710D01*
Y394716D01*
X295250D01*
X232410Y433070D02*
Y430530D01*
X237490D01*
Y433070D01*
X240030D01*
Y438150D01*
X237490D01*
Y440690D01*
X232410D01*
Y438150D01*
X229870D01*
Y433070D01*
X232410D01*
X114180Y548092D02*
Y545552D01*
X119260D01*
Y548092D01*
X121800D01*
Y553172D01*
X119260D01*
Y555712D01*
X114180D01*
Y553172D01*
X111640D01*
Y548092D01*
X114180D01*
X95250Y419100D02*
Y416560D01*
X100330D01*
Y419100D01*
X102870D01*
Y424180D01*
X100330D01*
Y426720D01*
X95250D01*
Y424180D01*
X92710D01*
Y419100D01*
X95250D01*
Y393700D02*
Y391160D01*
X100330D01*
Y393700D01*
X102870D01*
Y398780D01*
X100330D01*
Y401320D01*
X95250D01*
Y398780D01*
X92710D01*
Y393700D01*
X95250D01*
Y368300D02*
Y365760D01*
X100330D01*
Y368300D01*
X102870D01*
Y373380D01*
X100330D01*
Y375920D01*
X95250D01*
Y373380D01*
X92710D01*
Y368300D01*
X95250D01*
X300990Y260350D02*
Y257810D01*
X306070D01*
Y260350D01*
X308610D01*
Y265430D01*
X306070D01*
Y267970D01*
X300990D01*
Y265430D01*
X298450D01*
Y260350D01*
X300990D01*
X326390D02*
Y257810D01*
X331470D01*
Y260350D01*
X334010D01*
Y265430D01*
X331470D01*
Y267970D01*
X326390D01*
Y265430D01*
X323850D01*
Y260350D01*
X326390D01*
X275590D02*
Y257810D01*
X280670D01*
Y260350D01*
X283210D01*
Y265430D01*
X280670D01*
Y267970D01*
X275590D01*
Y265430D01*
X273050D01*
Y260350D01*
X275590D01*
X264770Y352044D02*
Y349504D01*
X269850D01*
Y352044D01*
X272390D01*
Y357124D01*
X269850D01*
Y359664D01*
X264770D01*
Y357124D01*
X262230D01*
Y352044D01*
X264770D01*
X224790Y260350D02*
Y257810D01*
X229870D01*
Y260350D01*
X232410D01*
Y265430D01*
X229870D01*
Y267970D01*
X224790D01*
Y265430D01*
X222250D01*
Y260350D01*
X224790D01*
X250190D02*
Y257810D01*
X255270D01*
Y260350D01*
X257810D01*
Y265430D01*
X255270D01*
Y267970D01*
X250190D01*
Y265430D01*
X247650D01*
Y260350D01*
X250190D01*
X95250Y190500D02*
Y187960D01*
X100330D01*
Y190500D01*
X102870D01*
Y195580D01*
X100330D01*
Y198120D01*
X95250D01*
Y195580D01*
X92710D01*
Y190500D01*
X95250D01*
Y342900D02*
Y340360D01*
X100330D01*
Y342900D01*
X102870D01*
Y347980D01*
X100330D01*
Y350520D01*
X95250D01*
Y347980D01*
X92710D01*
Y342900D01*
X95250D01*
Y317500D02*
Y314960D01*
X100330D01*
Y317500D01*
X102870D01*
Y322580D01*
X100330D01*
Y325120D01*
X95250D01*
Y322580D01*
X92710D01*
Y317500D01*
X95250D01*
Y292100D02*
Y289560D01*
X100330D01*
Y292100D01*
X102870D01*
Y297180D01*
X100330D01*
Y299720D01*
X95250D01*
Y297180D01*
X92710D01*
Y292100D01*
X95250D01*
Y266700D02*
Y264160D01*
X100330D01*
Y266700D01*
X102870D01*
Y271780D01*
X100330D01*
Y274320D01*
X95250D01*
Y271780D01*
X92710D01*
Y266700D01*
X95250D01*
Y241300D02*
Y238760D01*
X100330D01*
Y241300D01*
X102870D01*
Y246380D01*
X100330D01*
Y248920D01*
X95250D01*
Y246380D01*
X92710D01*
Y241300D01*
X95250D01*
Y217043D02*
Y214503D01*
X100330D01*
Y217043D01*
X102870D01*
Y222123D01*
X100330D01*
Y224663D01*
X95250D01*
Y222123D01*
X92710D01*
Y217043D01*
X95250D01*
X429260Y457200D02*
Y454660D01*
X434340D01*
Y457200D01*
X436880D01*
Y462280D01*
X434340D01*
Y464820D01*
X429260D01*
Y462280D01*
X426720D01*
Y457200D01*
X429260D01*
X433070Y441960D02*
Y439420D01*
X438150D01*
Y441960D01*
X440690D01*
Y447040D01*
X438150D01*
Y449580D01*
X433070D01*
Y447040D01*
X430530D01*
Y441960D01*
X433070D01*
X194455Y453245D02*
Y450705D01*
X199535D01*
Y453245D01*
X202075D01*
Y458325D01*
X199535D01*
Y460865D01*
X194455D01*
Y458325D01*
X191915D01*
Y453245D01*
X194455D01*
X192253Y463550D02*
Y461010D01*
X197333D01*
Y463550D01*
X199873D01*
Y468630D01*
X197333D01*
Y471170D01*
X192253D01*
Y468630D01*
X189713D01*
Y463550D01*
X192253D01*
X211967Y465967D02*
Y463427D01*
X217047D01*
Y465967D01*
X219587D01*
Y471047D01*
X217047D01*
Y473587D01*
X211967D01*
Y471047D01*
X209427D01*
Y465967D01*
X211967D01*
X222250Y457200D02*
Y454660D01*
X227330D01*
Y457200D01*
X229870D01*
Y462280D01*
X227330D01*
Y464820D01*
X222250D01*
Y462280D01*
X219710D01*
Y457200D01*
X222250D01*
X205740Y445770D02*
Y443230D01*
X210820D01*
Y445770D01*
X213360D01*
Y450850D01*
X210820D01*
Y453390D01*
X205740D01*
Y450850D01*
X203200D01*
Y445770D01*
X205740D01*
X186690Y476250D02*
Y473710D01*
X191770D01*
Y476250D01*
X194310D01*
Y481330D01*
X191770D01*
Y483870D01*
X186690D01*
Y481330D01*
X184150D01*
Y476250D01*
X186690D01*
X207010Y478790D02*
Y476250D01*
X212090D01*
Y478790D01*
X214630D01*
Y483870D01*
X212090D01*
Y486410D01*
X207010D01*
Y483870D01*
X204470D01*
Y478790D01*
X207010D01*
X318770Y497840D02*
Y495300D01*
X323850D01*
Y497840D01*
X326390D01*
Y502920D01*
X323850D01*
Y505460D01*
X318770D01*
Y502920D01*
X316230D01*
Y497840D01*
X318770D01*
X406400D02*
Y495300D01*
X411480D01*
Y497840D01*
X414020D01*
Y502920D01*
X411480D01*
Y505460D01*
X406400D01*
Y502920D01*
X403860D01*
Y497840D01*
X406400D01*
X321310Y485140D02*
Y482600D01*
X326390D01*
Y485140D01*
X328930D01*
Y490220D01*
X326390D01*
Y492760D01*
X321310D01*
Y490220D01*
X318770D01*
Y485140D01*
X321310D01*
X398780D02*
Y482600D01*
X403860D01*
Y485140D01*
X406400D01*
Y490220D01*
X403860D01*
Y492760D01*
X398780D01*
Y490220D01*
X396240D01*
Y485140D01*
X398780D01*
X331470Y476250D02*
Y473710D01*
X336550D01*
Y476250D01*
X339090D01*
Y481330D01*
X336550D01*
Y483870D01*
X331470D01*
Y481330D01*
X328930D01*
Y476250D01*
X331470D01*
X383540Y464820D02*
Y462280D01*
X388620D01*
Y464820D01*
X391160D01*
Y469900D01*
X388620D01*
Y472440D01*
X383540D01*
Y469900D01*
X381000D01*
Y464820D01*
X383540D01*
X229870Y450850D02*
Y448310D01*
X234950D01*
Y450850D01*
X237490D01*
Y455930D01*
X234950D01*
Y458470D01*
X229870D01*
Y455930D01*
X227330D01*
Y450850D01*
X229870D01*
X309474Y378460D02*
Y375920D01*
X314554D01*
Y378460D01*
X317094D01*
Y383540D01*
X314554D01*
Y386080D01*
X309474D01*
Y383540D01*
X306934D01*
Y378460D01*
X309474D01*
D75*
X495300Y558800D02*
G03*
X495300Y558800I-5080J0D01*
G01*
X520700D02*
G03*
X520700Y558800I-5080J0D01*
G01*
X469900D02*
G03*
X469900Y558800I-5080J0D01*
G01*
X444500D02*
G03*
X444500Y558800I-5080J0D01*
G01*
M02*
